<svg width="423" height="366" viewBox="0 0 423 366" fill="none" xmlns="http://www.w3.org/2000/svg">
<path d="M181.918 47.162C110.08 88.3671 51.8549 189.228 51.8549 272.435C51.8549 355.643 110.08 389.709 181.918 348.506C253.745 307.309 311.98 206.442 311.98 123.235C311.981 40.0245 253.745 5.9656 181.918 47.162Z" fill="#FF6445"/>
<path d="M237.922 165.712C237.921 201.485 212.796 245.002 181.918 262.709C151.039 280.419 125.914 265.725 125.914 229.954C125.914 194.184 151.039 150.669 181.918 132.957C212.794 115.246 237.922 129.939 237.922 165.712Z" fill="white"/>
<path d="M181.918 158.069C162.992 168.924 147.592 195.6 147.592 217.524C147.592 239.448 162.992 248.454 181.918 237.6C200.841 226.746 216.244 200.069 216.244 178.147C216.244 156.221 200.842 147.215 181.918 158.069Z" fill="white"/>
<path d="M198.174 188.509C198.174 198.893 190.883 211.528 181.918 216.669C172.954 221.811 165.66 217.544 165.66 207.159C165.66 196.776 172.954 184.141 181.918 179C190.883 173.858 198.174 178.127 198.174 188.509Z" fill="white"/>
<path d="M181.918 306.656C130.12 336.368 87.9807 311.722 87.9807 251.715C87.9807 191.708 130.121 118.72 181.918 89.0099C233.715 59.3007 275.855 83.9489 275.855 143.953C275.855 203.958 233.715 276.945 181.918 306.656Z" fill="white"/>
<path d="M107.858 240.312C107.858 193.001 141.078 135.464 181.918 112.039C222.757 88.6135 255.978 108.043 255.978 155.356C255.978 202.665 222.757 260.205 181.918 283.626C141.078 307.052 107.858 287.622 107.858 240.312ZM237.922 165.712C237.922 129.94 212.794 115.247 181.918 132.957C151.039 150.669 125.914 194.184 125.914 229.954C125.914 265.726 151.039 280.42 181.918 262.709C212.796 245.001 237.922 201.484 237.922 165.712Z" fill="white"/>
<path d="M147.592 217.523C147.592 195.6 162.992 168.922 181.918 158.068C200.841 147.214 216.244 156.221 216.244 178.146C216.244 200.068 200.842 226.745 181.918 237.599C162.992 248.453 147.592 239.447 147.592 217.523Z" fill="#FF2121"/>
<path d="M181.918 262.709C212.794 245.001 237.921 201.485 237.921 165.713C237.921 129.941 212.794 115.247 181.918 132.957C151.039 150.67 125.914 194.184 125.914 229.955C125.914 265.726 151.039 280.419 181.918 262.709Z" fill="#FF6445"/>
<path d="M198.174 188.509C198.174 178.127 190.883 173.86 181.918 179C172.954 184.141 165.66 196.776 165.66 207.159C165.66 217.544 172.954 221.81 181.918 216.668C190.883 211.526 198.174 198.891 198.174 188.509Z" fill="white"/>
<path d="M0 242.763C0 284.637 14.7455 314.066 38.5503 327.72L90.4034 357.393C66.5995 343.737 51.854 314.307 51.854 272.435C51.854 189.229 110.079 88.3677 181.917 47.1643C217.599 26.6987 249.926 24.8048 273.426 38.2824L221.574 8.61055C198.072 -4.86708 165.743 -2.97485 130.062 17.4933C58.2245 58.6967 0 159.556 0 242.763Z" fill="#D9482C"/>
<path d="M230.341 224.496L230.363 232.509L249.538 221.439L249.514 213.425L230.341 224.496Z" fill="#633D14"/>
<path d="M205.345 238.928L205.367 246.942L224.549 235.868L224.525 227.854L205.345 238.928Z" fill="#633D14"/>
<path d="M180.07 198.65L180.094 206.664L205.367 246.942L205.345 238.927L180.07 198.65Z" fill="#6D3F15"/>
<path d="M224.525 227.854L224.549 235.868L348.361 307.78L348.338 299.768L224.525 227.854Z" fill="#754115"/>
<path d="M348.338 299.768L348.361 307.78L349.243 321.448L349.219 313.438L348.338 299.768Z" fill="#613814"/>
<path d="M392.601 322.091L392.624 330.105L422.313 330.799L422.291 322.781L392.601 322.091Z" fill="#613C13"/>
<path d="M349.219 313.437L349.243 321.448L393.73 347.301L393.707 339.287L349.219 313.437Z" fill="#754115"/>
<path d="M180.07 198.65L205.345 238.927L224.525 227.854L348.338 299.767L349.219 313.437L393.707 339.287L392.601 322.091L422.291 322.781L377.804 296.932L354.094 296.371L230.341 224.496L249.514 213.424L180.07 198.65Z" fill="#FFA22F"/>
</svg>
