<svg width="121" height="26" viewBox="0 0 121 26" fill="none" xmlns="http://www.w3.org/2000/svg">
<path d="M105.343 19.7769V12.1817L105.161 12.1148C105.058 12.3763 104.937 12.6256 104.852 12.8871C104.19 14.8938 103.516 16.8945 102.891 18.9073C102.703 19.5154 102.466 19.789 101.774 19.8012C99.1522 19.8012 99.1583 19.8559 98.3631 17.3688C97.8341 15.5785 97.1769 13.8287 96.3966 12.1331V19.7039H92.5059V5.24938C94.0051 5.24938 95.4861 5.2129 96.9671 5.24938C97.1917 5.24938 97.4891 5.67505 97.6044 5.96694C98.5574 8.39933 99.4739 10.8317 100.403 13.3067C100.53 13.6412 100.67 13.9756 100.918 14.5837C101.143 14.0546 101.289 13.7567 101.398 13.4466C102.308 11.0142 103.219 8.53919 104.105 6.0703C104.158 5.78855 104.32 5.53897 104.555 5.37522C104.79 5.21147 105.079 5.14665 105.362 5.19466C106.575 5.24939 107.832 5.19466 109.216 5.19466C109.281 5.52991 109.324 5.86918 109.343 6.21017C109.343 10.3696 109.343 14.529 109.343 18.6884C109.343 19.4911 109.119 19.8073 108.293 19.7525C107.395 19.7343 106.436 19.7769 105.343 19.7769Z" fill="white"/>
<path d="M38.9768 5.21285C40.1907 5.21285 41.2711 5.14596 42.3515 5.24325C42.7828 5.33321 43.1618 5.58856 43.4077 5.95474C44.8341 8.07092 46.2058 10.2114 47.5958 12.3519C47.7475 12.5891 47.9175 12.808 48.2695 13.3006V5.28582H52.3302V19.7707C51.1162 19.7707 49.9023 19.8194 48.7369 19.7343C48.4334 19.7343 48.0753 19.339 47.875 19.041C46.2969 16.6877 44.7491 14.3039 43.0556 11.7438C42.9919 12.0714 42.9474 12.4023 42.9221 12.735C42.9221 14.7357 42.8857 16.7424 42.9221 18.7491C42.9221 19.564 42.649 19.8498 41.8478 19.8072C40.907 19.7525 39.9661 19.8072 38.9707 19.8072L38.9768 5.21285Z" fill="white"/>
<path d="M25.0832 12.5586C25.0832 15.2586 25.0832 17.9586 25.0832 20.6585C25.0856 21.2432 24.9723 21.8225 24.7497 22.363C24.5271 22.9034 24.1997 23.3943 23.7865 23.8072C23.3733 24.22 22.8824 24.5467 22.3424 24.7682C21.8023 24.9897 21.2237 25.1017 20.6402 25.0976C15.2867 25.0976 9.93314 25.0976 4.57964 25.0976C3.39687 25.1139 2.25595 24.6595 1.40711 23.8342C0.558265 23.0089 0.0708012 21.8799 0.0516265 20.695C-0.00907081 15.2667 -0.00907081 9.83233 0.0516265 4.39186C0.0739675 3.20693 0.564499 2.07926 1.41563 1.25619C2.26676 0.433114 3.409 -0.0181482 4.59179 0.00138612C9.90887 0.00138612 15.226 0.00138612 20.543 0.00138612C21.1447 -0.0136691 21.7431 0.0940511 22.3018 0.317999C22.8606 0.541948 23.3681 0.877438 23.7933 1.30406C24.2186 1.73069 24.5528 2.23953 24.7756 2.79963C24.9984 3.35973 25.1051 3.9594 25.0893 4.56213V12.5586H25.0832ZM23.4322 12.5586C23.4322 10.0046 23.4322 7.4506 23.4322 4.90267C23.4322 2.79864 22.279 1.6919 20.1667 1.6919H4.99239C2.85585 1.6919 1.71474 2.84729 1.70867 5.01821C1.70867 10.0492 1.70867 15.0802 1.70867 20.1112C1.70867 22.2761 2.86191 23.4315 4.99845 23.4315H20.1728C22.285 23.4315 23.414 22.3186 23.4322 20.2146C23.4504 17.6545 23.4322 15.1066 23.4322 12.5525V12.5586Z" fill="white"/>
<path d="M111.097 5.25537H120.408V8.29587C118.939 8.29587 117.525 8.36276 116.117 8.29587C114.994 8.22898 115.115 8.90398 115.115 9.61545C115.115 10.3269 115.006 11.008 116.123 10.9289C117.24 10.8499 118.502 10.9289 119.832 10.9289C119.872 11.7235 119.86 12.5198 119.795 13.3127C119.759 13.5377 119.285 13.86 118.994 13.8721C117.78 13.933 116.53 13.8721 115.212 13.8721V16.5478H120.481C120.481 17.5329 120.523 18.3721 120.481 19.2417C120.481 19.4362 120.08 19.7525 119.874 19.7585C117.185 19.795 114.49 19.7585 111.801 19.7585C111.055 19.7585 111.146 19.2356 111.146 18.7734V5.25537H111.097Z" fill="white"/>
<path d="M28.2395 19.71V5.29199H37.4594V8.30209C36.1544 8.30209 34.8252 8.30209 33.502 8.30209C33.0589 8.30209 32.288 8.3933 32.2516 8.58181C32.1301 9.2554 32.1301 9.94536 32.2516 10.6189C32.2516 10.7466 32.8039 10.8683 33.1014 10.8744C34.3153 10.9048 35.5596 10.8744 36.8464 10.8744V13.8419C35.6021 13.8419 34.3699 13.9148 33.1499 13.8419C32.027 13.7567 32.112 14.45 32.1363 15.1554C32.1606 15.8608 31.8814 16.6756 33.1256 16.6026C34.5399 16.5236 35.9602 16.6026 37.4655 16.6026V19.7222L28.2395 19.71Z" fill="white"/>
<path d="M60.0507 8.30197H54.1692V5.26147H64.5969C64.5969 6.67835 64.9126 8.0405 63.82 9.35399C62.1873 11.306 60.7852 13.4343 59.2495 15.4897C59.0431 15.7694 58.8611 16.0674 58.5394 16.5356H64.5545V19.6613H54.0478C53.9992 18.1836 53.7746 16.7667 54.9157 15.4046C56.5303 13.483 57.9142 11.3668 59.3891 9.32357C59.5712 9.08033 59.723 8.80061 60.0507 8.30197Z" fill="white"/>
<path d="M70.606 16.6025H76.6151V19.6856H66.2965C66.1205 18.0498 66.0659 16.5843 67.2373 15.1674C68.9733 13.0755 70.4725 10.7891 72.2327 8.35666H66.3026V5.31616H76.6575C76.6575 6.69655 77.0217 8.06477 75.9535 9.37826C74.345 11.3485 72.9186 13.4525 71.389 15.5079C71.1584 15.7694 70.9763 16.0674 70.606 16.6025Z" fill="white"/>
<path d="M86.4965 19.6978H82.63C82.584 19.3859 82.5657 19.0704 82.5754 18.7553C82.9457 16.1648 82.0656 13.9209 80.7909 11.7317C79.6862 9.84661 78.7636 7.86419 77.7561 5.91827C77.665 5.73584 77.6043 5.5291 77.4829 5.21289C78.885 5.21289 80.19 5.17032 81.4889 5.24937C81.7742 5.24937 82.1384 5.65679 82.2901 5.96084C83.0307 7.45068 83.7044 9.00134 84.5359 10.7709C85.2825 9.15945 85.9745 7.82163 86.5147 6.423C86.6185 6.00922 86.878 5.65166 87.2388 5.42502C87.5996 5.19838 88.0339 5.12019 88.4509 5.2068C89.4221 5.29802 90.4114 5.2068 91.6011 5.2068L89.3614 9.58511C88.6634 10.9473 88.0018 12.3276 87.237 13.6533C86.6579 14.6233 86.3929 15.7492 86.4783 16.8762C86.545 17.7823 86.4965 18.6944 86.4965 19.6978Z" fill="white"/>
<path d="M5.302 5.26147C9.16842 5.26147 12.8042 5.26147 16.44 5.26147C16.6078 5.27527 16.7707 5.32535 16.9174 5.40828C17.0641 5.49122 17.1911 5.60504 17.2897 5.74188C18.1031 7.06754 18.8557 8.43576 19.754 9.99857C18.7144 10.0706 17.6706 10.0522 16.6342 9.94385C16.2579 9.87088 16.0636 9.07427 15.6873 8.72765C15.3777 8.37903 14.9652 8.13833 14.5098 8.04049C13.138 7.95536 11.7602 8.04049 10.2124 8.04049C10.6798 9.11075 11.044 10.0533 11.4992 10.9472C11.6085 11.16 12.0212 11.2877 12.3065 11.3121C12.9499 11.3668 13.5993 11.3121 14.3277 11.3121V13.8661C13.3687 13.9999 12.1911 13.8174 11.6206 14.3282C10.9104 14.9363 10.698 16.1525 10.1881 17.3018C11.8816 17.3018 13.3929 17.3383 14.8982 17.2654C15.0807 17.2164 15.2492 17.1255 15.3904 16.9999C15.5315 16.8743 15.6415 16.7174 15.7116 16.5417C15.8489 16.0694 16.1651 15.6695 16.5926 15.4275C17.0202 15.1855 17.5252 15.1205 17.9999 15.2465C18.5942 15.2814 19.1901 15.2814 19.7844 15.2465C18.8436 16.8823 18.012 18.3539 17.144 19.8011C17.0562 19.8849 16.9522 19.9496 16.8384 19.9915C16.7246 20.0333 16.6035 20.0513 16.4825 20.0444C12.8406 20.0444 9.15022 20.0444 5.30808 20.0444C6.15177 18.293 6.81337 16.5904 7.73597 15.0579C8.76175 13.3918 8.82851 11.9506 7.76631 10.2601C6.85544 8.63963 6.03281 6.971 5.302 5.26147Z" fill="white"/>
</svg>
