<svg width="172" height="50" viewBox="0 0 121 26" fill="none" xmlns="http://www.w3.org/2000/svg">
<path d="M105.843 20.2248V12.6296L105.661 12.5627C105.558 12.8242 105.437 13.0736 105.352 13.335C104.69 15.3418 104.016 17.3424 103.391 19.3552C103.203 19.9633 102.966 20.237 102.274 20.2491C99.6521 20.2491 99.6582 20.3039 98.863 17.8167C98.334 16.0264 97.6768 14.2766 96.8964 12.581V20.1518H93.0057V5.69732C94.505 5.69732 95.986 5.66083 97.467 5.69732C97.6916 5.69732 97.989 6.12299 98.1043 6.41487C99.0573 8.84727 99.9738 11.2797 100.902 13.7546C101.03 14.0891 101.17 14.4235 101.418 15.0316C101.643 14.5026 101.789 14.2046 101.898 13.8945C102.808 11.4621 103.719 8.98712 104.605 6.51824C104.658 6.23649 104.82 5.98691 105.055 5.82316C105.29 5.65941 105.579 5.59458 105.861 5.64259C107.075 5.69732 108.332 5.64259 109.716 5.64259C109.781 5.97785 109.823 6.31712 109.843 6.65811C109.843 10.8175 109.843 14.9769 109.843 19.1363C109.843 19.939 109.619 20.2552 108.793 20.2005C107.895 20.1822 106.936 20.2248 105.843 20.2248Z" fill="#045103"/>
<path d="M39.4768 5.66079C40.6908 5.66079 41.7712 5.59389 42.8516 5.69119C43.2829 5.78115 43.6619 6.0365 43.9077 6.40267C45.3341 8.51886 46.7059 10.6594 48.0959 12.7999C48.2476 13.037 48.4175 13.2559 48.7696 13.7485V5.73376H52.8302V20.2187C51.6163 20.2187 50.4023 20.2673 49.237 20.1822C48.9335 20.1822 48.5754 19.7869 48.3751 19.489C46.7969 17.1356 45.2492 14.7519 43.5557 12.1918C43.492 12.5193 43.4474 12.8503 43.4222 13.183C43.4222 15.1836 43.3857 17.1903 43.4222 19.1971C43.4222 20.0119 43.149 20.2977 42.3478 20.2552C41.407 20.2004 40.4662 20.2552 39.4708 20.2552L39.4768 5.66079Z" fill="#045103"/>
<path d="M25.5833 13.0066C25.5833 15.7065 25.5833 18.4065 25.5833 21.1065C25.5857 21.6911 25.4723 22.2704 25.2497 22.8109C25.0272 23.3514 24.6998 23.8423 24.2866 24.2551C23.8734 24.668 23.3825 24.9946 22.8424 25.2161C22.3023 25.4376 21.7238 25.5496 21.1402 25.5456C15.7867 25.5456 10.4332 25.5456 5.0797 25.5456C3.89693 25.5618 2.75601 25.1075 1.90717 24.2821C1.05833 23.4568 0.570862 22.3279 0.551688 21.1429C0.49099 15.7146 0.49099 10.2803 0.551688 4.8398C0.574029 3.65487 1.06456 2.52719 1.91569 1.70412C2.76682 0.881051 3.90907 0.429789 5.09185 0.449323C10.4089 0.449323 15.726 0.449323 21.0431 0.449323C21.6447 0.434268 22.2431 0.541988 22.8019 0.765936C23.3607 0.989885 23.8681 1.32537 24.2934 1.752C24.7187 2.17863 25.0529 2.68746 25.2756 3.24757C25.4984 3.80767 25.6051 4.40734 25.5893 5.01007V13.0066H25.5833ZM23.9323 13.0066C23.9323 10.4526 23.9323 7.89854 23.9323 5.3506C23.9323 3.24658 22.779 2.13984 20.6668 2.13984H5.49246C3.35591 2.13984 2.2148 3.29523 2.20873 5.46614C2.20873 10.4972 2.20873 15.5282 2.20873 20.5592C2.20873 22.724 3.36197 23.8794 5.49851 23.8794H20.6728C22.7851 23.8794 23.9141 22.7666 23.9323 20.6625C23.9505 18.1024 23.9323 15.5545 23.9323 13.0005V13.0066Z" fill="#045103"/>
<path d="M111.597 5.70337H120.908V8.74387C119.439 8.74387 118.025 8.81076 116.617 8.74387C115.494 8.67698 115.615 9.35197 115.615 10.0634C115.615 10.7749 115.506 11.456 116.623 11.3769C117.74 11.2979 119.002 11.3769 120.332 11.3769C120.372 12.1715 120.36 12.9678 120.295 13.7607C120.259 13.9857 119.785 14.308 119.494 14.3201C118.28 14.381 117.03 14.3201 115.713 14.3201V16.9958H120.981C120.981 17.9809 121.024 18.8201 120.981 19.6897C120.981 19.8842 120.581 20.2005 120.374 20.2065C117.685 20.243 114.99 20.2065 112.301 20.2065C111.555 20.2065 111.646 19.6836 111.646 19.2214V5.70337H111.597Z" fill="#045103"/>
<path d="M28.7394 20.1579V5.73981H37.9594V8.74991C36.6544 8.74991 35.3251 8.74991 34.0019 8.74991C33.5588 8.74991 32.788 8.84112 32.7515 9.02963C32.6301 9.70322 32.6301 10.3932 32.7515 11.0668C32.7515 11.1945 33.3039 11.3161 33.6013 11.3222C34.8152 11.3526 36.0595 11.3222 37.3463 11.3222V14.2897C36.102 14.2897 34.8699 14.3627 33.6498 14.2897C32.5269 14.2045 32.6119 14.8978 32.6362 15.6032C32.6605 16.3086 32.3813 17.1234 33.6256 17.0505C35.0398 16.9714 36.4601 17.0505 37.9654 17.0505V20.17L28.7394 20.1579Z" fill="#045103"/>
<path d="M60.551 8.74991H54.6694V5.70941H65.0972C65.0972 7.12628 65.4128 8.48843 64.3203 9.80193C62.6875 11.7539 61.2854 13.8823 59.7498 15.9376C59.5434 16.2174 59.3613 16.5153 59.0396 16.9836H65.0547V20.1092H54.548C54.4994 18.6315 54.2749 17.2146 55.416 15.8525C57.0305 13.9309 58.4144 11.8147 59.8894 9.77151C60.0715 9.52827 60.2232 9.24855 60.551 8.74991Z" fill="#045103"/>
<path d="M71.1062 17.0504H77.1152V20.1335H66.7966C66.6206 18.4977 66.566 17.0322 67.7374 15.6153C69.4734 13.5235 70.9726 11.237 72.7328 8.8046H66.8027V5.7641H77.1577C77.1577 7.14448 77.5219 8.5127 76.4536 9.8262C74.8451 11.7964 73.4187 13.9005 71.8891 15.9559C71.6585 16.2173 71.4764 16.5153 71.1062 17.0504Z" fill="#045103"/>
<path d="M86.9967 20.1457H83.1303C83.0842 19.8338 83.0659 19.5184 83.0756 19.2032C83.4459 16.6127 82.5658 14.3688 81.2912 12.1797C80.1865 10.2945 79.2639 8.31212 78.2563 6.36621C78.1653 6.18378 78.1045 5.97704 77.9832 5.66083C79.3853 5.66083 80.6903 5.61826 81.9892 5.69731C82.2745 5.69731 82.6386 6.10473 82.7904 6.40878C83.5309 7.89862 84.2046 9.44928 85.0362 11.2188C85.7828 9.60738 86.4747 8.26957 87.0149 6.87094C87.1188 6.45716 87.3782 6.0996 87.739 5.87296C88.0999 5.64632 88.5342 5.56813 88.9512 5.65474C89.9223 5.74596 90.9117 5.65474 92.1013 5.65474L89.8616 10.033C89.1636 11.3952 88.502 12.7756 87.7372 14.1012C87.1582 15.0713 86.8932 16.1971 86.9785 17.3242C87.0453 18.2302 86.9967 19.1424 86.9967 20.1457Z" fill="#045103"/>
<path d="M5.802 5.70941C9.66842 5.70941 13.3042 5.70941 16.94 5.70941C17.1078 5.7232 17.2707 5.77329 17.4174 5.85622C17.5641 5.93916 17.6911 6.05297 17.7897 6.18982C18.6031 7.51547 19.3557 8.8837 20.254 10.4465C19.2144 10.5185 18.1706 10.5002 17.1342 10.3918C16.7579 10.3188 16.5636 9.5222 16.1873 9.17559C15.8777 8.82697 15.4652 8.58627 15.0098 8.48843C13.638 8.4033 12.2602 8.48843 10.7124 8.48843C11.1798 9.55869 11.544 10.5012 11.9992 11.3951C12.1085 11.608 12.5212 11.7357 12.8065 11.76C13.4499 11.8147 14.0993 11.76 14.8277 11.76V14.314C13.8687 14.4478 12.6911 14.2654 12.1206 14.7762C11.4104 15.3843 11.198 16.6005 10.6881 17.7498C12.3816 17.7498 13.8929 17.7863 15.3982 17.7133C15.5807 17.6644 15.7492 17.5735 15.8904 17.4479C16.0315 17.3222 16.1415 17.1653 16.2116 16.9896C16.3489 16.5173 16.6651 16.1174 17.0926 15.8754C17.5202 15.6334 18.0252 15.5685 18.4999 15.6944C19.0942 15.7293 19.6901 15.7293 20.2844 15.6944C19.3436 17.3302 18.512 18.8018 17.644 20.2491C17.5562 20.3328 17.4522 20.3976 17.3384 20.4394C17.2246 20.4813 17.1035 20.4993 16.9825 20.4923C13.3406 20.4923 9.65022 20.4923 5.80808 20.4923C6.65177 18.741 7.31337 17.0383 8.23597 15.5059C9.26175 13.8397 9.32851 12.3985 8.26631 10.708C7.35544 9.08757 6.53281 7.41893 5.802 5.70941Z" fill="#045103"/>
</svg>
