<svg width="581" height="547" viewBox="0 0 581 547" fill="none" xmlns="http://www.w3.org/2000/svg">
<path d="M36.6428 497.531H2.45032C2.13546 497.549 1.82015 497.503 1.52374 497.395C1.22733 497.288 0.956073 497.12 0.726619 496.904C0.497166 496.687 0.314353 496.427 0.189403 496.137C0.0644528 495.847 0 495.535 0 495.22C0 494.904 0.0644528 494.592 0.189403 494.303C0.314353 494.013 0.497166 493.752 0.726619 493.536C0.956073 493.319 1.22733 493.152 1.52374 493.044C1.82015 492.937 2.13546 492.89 2.45032 492.909H36.6428C37.2323 492.943 37.7863 493.202 38.1914 493.632C38.5966 494.061 38.8223 494.629 38.8223 495.22C38.8223 495.81 38.5966 496.379 38.1914 496.808C37.7863 497.238 37.2323 497.496 36.6428 497.531ZM249.424 497.531H215.232C214.642 497.496 214.088 497.238 213.683 496.808C213.278 496.379 213.052 495.81 213.052 495.22C213.052 494.629 213.278 494.061 213.683 493.632C214.088 493.202 214.642 492.943 215.232 492.909H249.424C250.013 492.943 250.568 493.202 250.973 493.632C251.378 494.061 251.603 494.629 251.603 495.22C251.603 495.81 251.378 496.379 250.973 496.808C250.568 497.238 250.013 497.496 249.424 497.531ZM195.769 497.531H58.9991C58.6842 497.549 58.3689 497.503 58.0725 497.395C57.7761 497.288 57.5048 497.12 57.2754 496.904C57.0459 496.687 56.8631 496.427 56.7382 496.137C56.6132 495.847 56.5488 495.535 56.5488 495.22C56.5488 494.904 56.6132 494.592 56.7382 494.303C56.8631 494.013 57.0459 493.752 57.2754 493.536C57.5048 493.319 57.7761 493.152 58.0725 493.044C58.3689 492.937 58.6842 492.89 58.9991 492.909H195.769C196.358 492.943 196.912 493.202 197.318 493.632C197.723 494.061 197.948 494.629 197.948 495.22C197.948 495.81 197.723 496.379 197.318 496.808C196.912 497.238 196.358 497.496 195.769 497.531Z" fill="white"/>
<path d="M557.386 497.531H227.29C226.7 497.496 226.146 497.238 225.741 496.808C225.336 496.379 225.11 495.81 225.11 495.22C225.11 494.629 225.336 494.061 225.741 493.632C226.146 493.202 226.7 492.943 227.29 492.909H557.386C557.701 492.89 558.016 492.937 558.313 493.044C558.609 493.152 558.88 493.319 559.11 493.536C559.339 493.752 559.522 494.013 559.647 494.303C559.772 494.592 559.836 494.904 559.836 495.22C559.836 495.535 559.772 495.847 559.647 496.137C559.522 496.427 559.339 496.687 559.11 496.904C558.88 497.12 558.609 497.288 558.313 497.395C558.016 497.503 557.701 497.549 557.386 497.531Z" fill="white"/>
<path d="M202.872 87.0231C226.266 87.0231 245.23 68.0588 245.23 44.6651C245.23 21.2714 226.266 2.30701 202.872 2.30701C179.478 2.30701 160.514 21.2714 160.514 44.6651C160.514 68.0588 179.478 87.0231 202.872 87.0231Z" fill="#FBD851"/>
<path d="M198.076 9.006C198.583 10.7739 196.665 12.8747 193.795 13.6992C190.925 14.5237 188.182 13.7627 187.675 11.9948C187.167 10.2269 189.078 8.11808 191.956 7.2936C194.833 6.46911 197.569 7.2381 198.076 9.006Z" fill="white"/>
<path d="M230.445 12.51C229.839 20.3044 227.087 27.7789 222.495 34.1061C217.903 40.4332 211.65 45.3661 204.428 48.3585C197.205 51.3509 189.295 52.2861 181.574 51.0606C173.853 49.835 166.621 46.4965 160.681 41.4147C160.601 42.4849 160.562 43.571 160.562 44.6651C160.561 51.7688 162.346 58.7588 165.754 64.9919C169.162 71.2249 174.082 76.5007 180.063 80.334C186.044 84.1672 192.893 86.4347 199.979 86.9278C207.066 87.4209 214.163 86.1237 220.617 83.1558C227.071 80.1878 232.675 75.6442 236.913 69.9432C241.151 64.2422 243.888 57.5669 244.871 50.5314C245.853 43.4959 245.051 36.3263 242.537 29.6821C240.023 23.038 235.878 17.1329 230.485 12.51H230.445Z" fill="#F9B839"/>
<path d="M202.872 89.3301C194.038 89.3301 185.403 86.7105 178.058 81.8027C170.712 76.8948 164.988 69.9191 161.607 61.7576C158.226 53.5962 157.342 44.6155 159.065 35.9513C160.789 27.2872 165.043 19.3286 171.289 13.0821C177.536 6.83559 185.494 2.58166 194.158 0.858246C202.823 -0.865164 211.803 0.0193526 219.965 3.39994C228.126 6.78053 235.102 12.5054 240.01 19.8505C244.918 27.1956 247.537 35.8311 247.537 44.6651C247.523 56.5064 242.812 67.8586 234.439 76.2318C226.066 84.6049 214.714 89.3154 202.872 89.3301ZM202.872 4.61398C194.951 4.61398 187.207 6.96293 180.621 11.3638C174.035 15.7647 168.901 22.0198 165.87 29.3382C162.838 36.6565 162.045 44.7095 163.591 52.4786C165.136 60.2478 168.951 67.3842 174.552 72.9854C180.153 78.5867 187.289 82.4012 195.059 83.9466C202.828 85.4919 210.881 84.6988 218.199 81.6674C225.517 78.636 231.773 73.5026 236.173 66.9162C240.574 60.3299 242.923 52.5864 242.923 44.6651C242.913 34.0461 238.69 23.865 231.181 16.3563C223.672 8.8475 213.491 4.62448 202.872 4.61398Z" fill="#0E2C28"/>
<path d="M202.872 84.6131C194.973 84.6037 187.254 82.2528 180.691 77.8575C174.128 73.4622 169.015 67.2199 165.999 59.9196C162.983 52.6192 162.198 44.5885 163.745 36.8425C165.292 29.0965 169.1 21.9829 174.689 16.4008C180.278 10.8187 187.396 7.01876 195.144 5.48121C202.892 3.94366 210.921 4.73753 218.218 7.76249C225.515 10.7875 231.751 15.9077 236.139 22.4761C240.526 29.0445 242.868 36.7661 242.868 44.6651C242.855 55.2643 238.636 65.4251 231.137 72.9155C223.637 80.4058 213.471 84.6131 202.872 84.6131ZM202.872 6.12821C195.252 6.12821 187.803 8.38789 181.467 12.6215C175.131 16.8551 170.192 22.8725 167.276 29.9128C164.36 36.953 163.597 44.6999 165.084 52.1738C166.57 59.6476 170.24 66.5128 175.628 71.9012C181.016 77.2896 187.882 80.9591 195.356 82.4458C202.829 83.9324 210.576 83.1694 217.617 80.2532C224.657 77.3371 230.674 72.3987 234.908 66.0627C239.141 59.7266 241.401 52.2774 241.401 44.6571C241.389 34.4432 237.325 24.6514 230.102 17.4298C222.879 10.2082 213.086 6.14662 202.872 6.13613V6.12821Z" fill="white"/>
<path d="M213.564 70.4745C227.819 64.5699 234.589 48.2274 228.684 33.9724C222.78 19.7175 206.437 12.9482 192.182 18.8528C177.927 24.7574 171.158 41.0999 177.062 55.3548C182.967 69.6098 199.31 76.3791 213.564 70.4745Z" fill="#F9B839"/>
<path d="M189.252 37.8234C202.936 30.1176 217.99 28.9839 228.598 33.7644C225.933 27.4905 221.067 22.407 214.916 19.4712C208.764 16.5354 201.752 15.9498 195.198 17.8247C188.645 19.6995 183.003 23.9055 179.335 29.6507C175.667 35.3958 174.226 42.2837 175.284 49.0174C179.288 44.5385 184.008 40.7557 189.252 37.8234Z" fill="#FBD851"/>
<path d="M179.612 42.1519H179.557C179.44 42.1449 179.326 42.1148 179.221 42.0636C179.116 42.0123 179.022 41.9408 178.944 41.8531C178.867 41.7655 178.808 41.6634 178.77 41.5528C178.732 41.4422 178.717 41.3252 178.724 41.2085C178.835 39.606 179.176 38.0279 179.739 36.5232C179.824 36.3032 179.992 36.1253 180.207 36.0275C180.422 35.9297 180.666 35.9198 180.888 36C180.998 36.0413 181.098 36.1039 181.184 36.1841C181.269 36.2644 181.337 36.3607 181.385 36.4675C181.433 36.5744 181.459 36.6896 181.463 36.8067C181.466 36.9237 181.446 37.0402 181.404 37.1495C180.898 38.49 180.594 39.8979 180.5 41.3274C180.482 41.5511 180.381 41.7599 180.217 41.9126C180.052 42.0652 179.836 42.1507 179.612 42.1519ZM181.721 35.3103C181.547 35.3106 181.376 35.2611 181.229 35.1676C181.032 35.0367 180.895 34.8332 180.848 34.6015C180.8 34.3698 180.846 34.1287 180.976 33.9308L182.926 30.9817C182.99 30.8844 183.074 30.8007 183.17 30.7355C183.267 30.6702 183.376 30.6247 183.491 30.6015C183.605 30.5783 183.723 30.5779 183.838 30.6003C183.952 30.6227 184.061 30.6674 184.159 30.732C184.256 30.7965 184.34 30.8796 184.405 30.9765C184.47 31.0734 184.516 31.1822 184.539 31.2967C184.562 31.4111 184.562 31.529 184.54 31.6437C184.518 31.7583 184.473 31.8674 184.408 31.9648L182.458 34.9139C182.378 35.0365 182.269 35.1371 182.14 35.2063C182.011 35.2756 181.867 35.3113 181.721 35.3103Z" fill="white"/>
<path d="M197.053 30.3396C201.567 30.3396 205.227 27.9722 205.227 25.0518C205.227 22.1314 201.567 19.764 197.053 19.764C192.539 19.764 188.88 22.1314 188.88 25.0518C188.88 27.9722 192.539 30.3396 197.053 30.3396Z" fill="white"/>
<path d="M202.872 74.0216C197.071 74.0216 191.4 72.3012 186.576 69.0781C181.752 65.855 177.992 61.2738 175.772 55.914C173.552 50.5541 172.971 44.6563 174.103 38.9663C175.235 33.2763 178.029 28.0497 182.131 23.9475C186.233 19.8452 191.46 17.0515 197.15 15.9197C202.84 14.7879 208.738 15.3688 214.097 17.5889C219.457 19.809 224.038 23.5687 227.262 28.3924C230.485 33.2162 232.205 38.8874 232.205 44.6888C232.188 52.4632 229.092 59.9144 223.595 65.4117C218.098 70.909 210.647 74.0048 202.872 74.0216ZM202.872 18.1467C197.627 18.1467 192.5 19.7019 188.139 22.6158C183.779 25.5297 180.38 29.6713 178.372 34.5169C176.365 39.3625 175.84 44.6945 176.863 49.8385C177.887 54.9826 180.412 59.7077 184.121 63.4164C187.83 67.125 192.555 69.6507 197.699 70.6739C202.843 71.6971 208.175 71.1719 213.02 69.1648C217.866 67.1577 222.008 63.7588 224.921 59.3979C227.835 55.0369 229.391 49.9099 229.391 44.665C229.384 37.6339 226.588 30.8925 221.617 25.9207C216.645 20.9489 209.903 18.153 202.872 18.1467Z" fill="#2C130E"/>
<path d="M202.872 71.2706C197.608 71.2706 192.462 69.7096 188.086 66.7849C183.709 63.8602 180.298 59.7033 178.284 54.8398C176.27 49.9764 175.743 44.6249 176.771 39.4622C177.798 34.2994 180.334 29.5574 184.056 25.8357C187.779 22.1141 192.522 19.58 197.685 18.554C202.848 17.528 208.199 18.0562 213.062 20.0717C217.925 22.0873 222.081 25.4996 225.004 29.8772C227.928 34.2548 229.487 39.4011 229.486 44.6651C229.477 51.7201 226.67 58.4837 221.681 63.4716C216.692 68.4595 209.927 71.2644 202.872 71.2706ZM202.872 19.4785C197.891 19.4785 193.021 20.9557 188.879 23.7232C184.737 26.4908 181.509 30.4244 179.603 35.0266C177.697 39.6288 177.198 44.693 178.17 49.5787C179.141 54.4644 181.54 58.9522 185.063 62.4746C188.585 65.997 193.073 68.3958 197.959 69.3676C202.844 70.3394 207.908 69.8407 212.511 67.9344C217.113 66.0281 221.046 62.7998 223.814 58.6579C226.582 54.516 228.059 49.6465 228.059 44.6651C228.05 37.9878 225.394 31.5863 220.672 26.8648C215.951 22.1432 209.549 19.4869 202.872 19.4785Z" fill="white"/>
<path d="M173.896 40.6218H173.738L167.823 39.5754C167.591 39.5354 167.384 39.4048 167.248 39.2123C167.112 39.0198 167.058 38.7811 167.098 38.5487C167.138 38.3164 167.269 38.1095 167.461 37.9734C167.654 37.8374 167.892 37.7834 168.125 37.8233L174.047 38.8698C174.274 38.8987 174.481 39.0143 174.625 39.1925C174.769 39.3707 174.839 39.5977 174.82 39.826C174.8 40.0543 174.693 40.2662 174.521 40.4175C174.349 40.5688 174.125 40.6477 173.896 40.6377V40.6218ZM190.751 79.0477C190.645 79.0486 190.54 79.0298 190.441 78.9922C190.221 78.9117 190.042 78.7474 189.942 78.5349C189.842 78.3225 189.831 78.0794 189.91 77.8586L191.971 72.2061C192.011 72.0962 192.073 71.9954 192.152 71.9092C192.231 71.8231 192.326 71.7534 192.432 71.7041C192.538 71.6547 192.653 71.6268 192.77 71.6218C192.887 71.6168 193.003 71.6348 193.113 71.6749C193.223 71.715 193.324 71.7763 193.41 71.8554C193.496 71.9344 193.566 72.0297 193.615 72.1357C193.664 72.2417 193.692 72.3564 193.697 72.4732C193.702 72.59 193.684 72.7067 193.644 72.8165L191.583 78.4611C191.523 78.6337 191.411 78.7833 191.261 78.8885C191.112 78.9938 190.933 79.0495 190.751 79.0477ZM233.584 63.4617C233.428 63.4618 233.275 63.4207 233.14 63.3428L227.932 60.3303C227.831 60.272 227.742 60.1943 227.671 60.1018C227.6 60.0093 227.548 59.9038 227.518 59.7911C227.488 59.6785 227.48 59.561 227.495 59.4454C227.511 59.3298 227.548 59.2183 227.607 59.1173C227.665 59.0163 227.743 58.9278 227.835 58.8568C227.928 58.7858 228.033 58.7338 228.146 58.7036C228.259 58.6734 228.376 58.6657 228.492 58.6809C228.607 58.6962 228.719 58.734 228.82 58.7923L234.028 61.8048C234.198 61.9026 234.33 62.0534 234.405 62.234C234.479 62.4146 234.493 62.6148 234.442 62.8036C234.391 62.9924 234.28 63.1593 234.125 63.2783C233.97 63.3973 233.78 63.4618 233.584 63.4617ZM221.804 23.1728C221.595 23.1761 221.392 23.1028 221.233 22.9667C221.142 22.8925 221.067 22.8009 221.013 22.6974C220.958 22.5938 220.924 22.4804 220.914 22.3638C220.904 22.2471 220.917 22.1295 220.952 22.018C220.988 21.9064 221.046 21.8031 221.122 21.7141L224.983 17.1081C225.135 16.9288 225.352 16.8167 225.586 16.7959C225.821 16.7751 226.054 16.8474 226.235 16.9971C226.325 17.072 226.399 17.1638 226.453 17.2673C226.507 17.3708 226.54 17.484 226.551 17.6004C226.561 17.7167 226.548 17.834 226.513 17.9454C226.478 18.0568 226.421 18.1602 226.346 18.2497L222.485 22.8557C222.402 22.9557 222.298 23.0359 222.18 23.0908C222.062 23.1456 221.934 23.1736 221.804 23.1728ZM183.949 23.1728C183.818 23.1742 183.69 23.1464 183.572 23.0915C183.454 23.0367 183.35 22.9561 183.267 22.8557L179.446 18.2259C179.362 18.1382 179.297 18.0343 179.255 17.9205C179.213 17.8067 179.194 17.6856 179.201 17.5644C179.207 17.4433 179.239 17.3248 179.293 17.2162C179.347 17.1076 179.423 17.0113 179.515 16.9332C179.608 16.855 179.716 16.7967 179.832 16.7619C179.948 16.727 180.071 16.7163 180.191 16.7305C180.312 16.7447 180.428 16.7834 180.533 16.8442C180.638 16.9051 180.729 16.9868 180.801 17.0843L184.67 21.6903C184.75 21.7827 184.811 21.8909 184.847 22.0079C184.883 22.1249 184.894 22.2481 184.88 22.3697C184.866 22.4914 184.826 22.6087 184.764 22.7142C184.702 22.8197 184.619 22.9111 184.519 22.9826C184.358 23.113 184.156 23.1806 183.949 23.1728ZM172.168 63.4617C171.972 63.4618 171.782 63.3973 171.627 63.2783C171.472 63.1593 171.361 62.9924 171.31 62.8036C171.26 62.6148 171.273 62.4146 171.347 62.234C171.422 62.0534 171.555 61.9026 171.724 61.8048L176.932 58.7923C177.033 58.734 177.145 58.6962 177.261 58.6809C177.376 58.6657 177.494 58.6734 177.606 58.7036C177.719 58.7338 177.824 58.7858 177.917 58.8568C178.009 58.9278 178.087 59.0163 178.145 59.1173C178.204 59.2183 178.242 59.3298 178.257 59.4454C178.272 59.561 178.264 59.6785 178.234 59.7911C178.204 59.9038 178.152 60.0093 178.081 60.1018C178.01 60.1943 177.921 60.272 177.82 60.3303L172.612 63.3428C172.477 63.4207 172.324 63.4618 172.168 63.4617ZM215.002 79.0477C214.819 79.0495 214.64 78.9938 214.491 78.8885C214.341 78.7833 214.229 78.6337 214.169 78.4611L212.108 72.8165C212.027 72.5947 212.037 72.3498 212.137 72.1357C212.237 71.9216 212.417 71.7559 212.639 71.6749C212.861 71.594 213.106 71.6044 213.32 71.7041C213.534 71.8037 213.7 71.9842 213.781 72.2061L215.834 77.8586C215.875 77.9677 215.894 78.0841 215.89 78.2008C215.886 78.3175 215.858 78.4321 215.808 78.5378C215.759 78.6435 215.688 78.7382 215.602 78.8163C215.515 78.8943 215.413 78.9542 215.303 78.9922C215.207 79.0301 215.105 79.049 215.002 79.0477ZM231.872 40.6218C231.643 40.6318 231.419 40.5529 231.247 40.4017C231.075 40.2504 230.968 40.0385 230.948 39.8102C230.929 39.5819 230.999 39.3549 231.143 39.1767C231.287 38.9985 231.494 38.8828 231.721 38.854L237.635 37.8075C237.868 37.7665 238.107 37.8195 238.3 37.9548C238.493 38.09 238.625 38.2966 238.666 38.5289C238.707 38.7613 238.654 39.0004 238.519 39.1936C238.383 39.3869 238.177 39.5185 237.945 39.5595L232.03 40.606L231.872 40.6218ZM202.872 16.2836C202.755 16.2836 202.64 16.2606 202.532 16.216C202.425 16.1714 202.327 16.106 202.244 16.0235C202.162 15.9411 202.096 15.8432 202.052 15.7355C202.007 15.6278 201.984 15.5123 201.984 15.3957V9.38645C202.005 9.16442 202.108 8.95819 202.273 8.80809C202.438 8.65798 202.653 8.5748 202.876 8.5748C203.099 8.5748 203.314 8.65798 203.479 8.80809C203.644 8.95819 203.747 9.16442 203.768 9.38645V15.3957C203.766 15.6319 203.671 15.8577 203.503 16.024C203.335 16.1903 203.108 16.2836 202.872 16.2836Z" fill="#2C130E"/>
<path d="M287.113 159.118C308.545 159.118 325.919 141.744 325.919 120.312C325.919 98.8796 308.545 81.5054 287.113 81.5054C265.68 81.5054 248.306 98.8796 248.306 120.312C248.306 141.744 265.68 159.118 287.113 159.118Z" fill="#FBD851"/>
<path d="M282.713 87.6414C283.18 89.227 281.428 91.1852 278.796 91.9462C276.164 92.7073 273.651 92.0017 273.184 90.3607C272.716 88.7196 274.476 86.817 277.108 86.0559C279.74 85.2948 282.253 86.0163 282.713 87.6414Z" fill="white"/>
<path d="M312.378 90.8523C311.828 98.0008 309.307 104.857 305.097 110.66C300.887 116.463 295.151 120.987 288.526 123.728C281.902 126.47 274.647 127.323 267.567 126.192C260.487 125.062 253.858 121.992 248.417 117.323C248.344 118.312 248.307 119.304 248.306 120.296C248.293 126.817 249.921 133.236 253.041 138.962C256.16 144.689 260.672 149.537 266.158 153.061C271.645 156.586 277.93 158.672 284.435 159.128C290.94 159.584 297.455 158.395 303.38 155.671C309.305 152.947 314.448 148.775 318.337 143.541C322.225 138.306 324.733 132.176 325.629 125.717C326.526 119.258 325.782 112.678 323.466 106.582C321.15 100.486 317.337 95.071 312.378 90.8364V90.8523Z" fill="#F9B839"/>
<path d="M287.113 161.433C278.98 161.433 271.029 159.021 264.267 154.503C257.504 149.984 252.234 143.562 249.121 136.048C246.009 128.534 245.195 120.266 246.781 112.289C248.368 104.313 252.285 96.9856 258.035 91.2346C263.786 85.4837 271.113 81.5673 279.09 79.9806C287.067 78.3939 295.335 79.2083 302.849 82.3207C310.363 85.433 316.785 90.7037 321.304 97.466C325.822 104.228 328.234 112.179 328.234 120.312C328.223 131.215 323.888 141.668 316.178 149.377C308.469 157.087 298.015 161.423 287.113 161.433ZM287.113 83.8124C279.9 83.8124 272.849 85.9512 266.852 89.9583C260.855 93.9654 256.181 99.6609 253.421 106.324C250.661 112.988 249.938 120.321 251.346 127.395C252.753 134.469 256.226 140.967 261.326 146.067C266.426 151.167 272.924 154.64 279.998 156.047C287.072 157.454 294.405 156.732 301.068 153.972C307.732 151.212 313.427 146.538 317.434 140.54C321.442 134.543 323.58 127.493 323.58 120.28C323.559 110.615 319.711 101.351 312.876 94.5166C306.042 87.6822 296.778 83.8333 287.113 83.8124Z" fill="#0E2C28"/>
<path d="M287.112 156.962C279.861 156.962 272.772 154.811 266.742 150.783C260.712 146.754 256.013 141.027 253.238 134.327C250.462 127.628 249.736 120.255 251.151 113.143C252.566 106.03 256.058 99.497 261.186 94.3692C266.314 89.2414 272.847 85.7493 279.959 84.3345C287.072 82.9198 294.444 83.6459 301.144 86.421C307.844 89.1962 313.57 93.8958 317.599 99.9254C321.628 105.955 323.778 113.044 323.778 120.296C323.77 130.018 319.904 139.339 313.03 146.213C306.156 153.088 296.834 156.953 287.112 156.962ZM287.112 85.057C280.141 85.057 273.326 87.1244 267.53 90.9977C261.733 94.871 257.215 100.376 254.548 106.817C251.88 113.258 251.183 120.346 252.543 127.183C253.904 134.021 257.262 140.301 262.192 145.23C267.122 150.159 273.403 153.515 280.241 154.874C287.079 156.234 294.166 155.534 300.606 152.865C307.047 150.196 312.551 145.678 316.423 139.88C320.295 134.083 322.361 127.267 322.359 120.296C322.345 110.955 318.626 102 312.018 95.3973C305.411 88.7942 296.454 85.0813 287.112 85.0729V85.057Z" fill="white"/>
<path d="M289.62 145.816C303.689 144.424 313.966 131.89 312.574 117.821C311.182 103.752 298.649 93.4751 284.58 94.867C270.51 96.2589 260.234 108.793 261.625 122.862C263.017 136.931 275.551 147.208 289.62 145.816Z" fill="#F9B839"/>
<path d="M274.634 114.049C287.168 106.985 300.962 105.947 310.682 110.331C308.24 104.584 303.782 99.9281 298.147 97.239C292.511 94.5499 286.088 94.0132 280.084 95.7298C274.081 97.4465 268.912 101.298 265.55 106.56C262.188 111.822 260.866 118.131 261.831 124.299C265.501 120.197 269.828 116.733 274.634 114.049Z" fill="#FBD851"/>
<path d="M265.803 118.116H265.739C265.511 118.092 265.301 117.98 265.153 117.804C265.005 117.628 264.931 117.402 264.947 117.172C265.042 115.694 265.358 114.238 265.882 112.852C265.923 112.742 265.984 112.642 266.064 112.557C266.143 112.472 266.239 112.403 266.345 112.355C266.451 112.308 266.566 112.281 266.682 112.278C266.799 112.275 266.915 112.295 267.024 112.336C267.243 112.42 267.421 112.587 267.519 112.8C267.617 113.014 267.627 113.257 267.547 113.478C267.098 114.703 266.83 115.988 266.754 117.291C266.747 117.408 266.717 117.523 266.665 117.628C266.613 117.733 266.541 117.827 266.452 117.904C266.363 117.981 266.26 118.039 266.149 118.075C266.037 118.112 265.92 118.125 265.803 118.116ZM267.729 111.821C267.554 111.821 267.383 111.769 267.238 111.67C267.14 111.606 267.056 111.524 266.991 111.427C266.926 111.33 266.881 111.222 266.858 111.107C266.835 110.993 266.835 110.875 266.858 110.761C266.881 110.647 266.927 110.538 266.992 110.442L268.776 107.738C268.905 107.542 269.107 107.405 269.338 107.357C269.568 107.31 269.808 107.355 270.004 107.485C270.201 107.616 270.339 107.819 270.386 108.051C270.434 108.282 270.388 108.523 270.258 108.721L268.467 111.425C268.386 111.546 268.276 111.646 268.148 111.715C268.019 111.784 267.875 111.821 267.729 111.821ZM289.277 102.347C289.277 105.027 285.923 107.199 281.785 107.199C277.647 107.199 274.293 105.027 274.293 102.347C274.293 99.6678 277.647 97.4956 281.785 97.4956C285.923 97.4956 289.277 99.6678 289.277 102.347Z" fill="white"/>
<path d="M287.113 147.338C281.767 147.338 276.542 145.753 272.098 142.783C267.654 139.813 264.19 135.592 262.144 130.654C260.099 125.716 259.563 120.282 260.606 115.039C261.649 109.797 264.223 104.981 268.003 101.202C271.782 97.4221 276.598 94.8481 281.84 93.8053C287.083 92.7626 292.517 93.2977 297.455 95.3433C302.393 97.3888 306.614 100.853 309.584 105.297C312.553 109.741 314.138 114.967 314.138 120.312C314.132 127.478 311.283 134.348 306.216 139.415C301.149 144.482 294.278 147.331 287.113 147.338ZM287.113 96.14C282.33 96.14 277.655 97.5584 273.678 100.216C269.702 102.873 266.603 106.65 264.773 111.068C262.943 115.487 262.465 120.349 263.398 125.04C264.332 129.73 266.635 134.039 270.018 137.42C273.4 140.801 277.709 143.104 282.4 144.036C287.091 144.968 291.953 144.488 296.371 142.657C300.789 140.825 304.565 137.725 307.221 133.747C309.877 129.77 311.294 125.094 311.292 120.312C311.284 113.902 308.733 107.758 304.201 103.226C299.668 98.6948 293.522 96.1463 287.113 96.14Z" fill="#2C130E"/>
<path d="M287.113 144.753C282.279 144.753 277.553 143.32 273.534 140.634C269.514 137.948 266.382 134.131 264.532 129.665C262.682 125.199 262.198 120.285 263.141 115.544C264.084 110.802 266.412 106.447 269.83 103.029C273.248 99.611 277.603 97.2832 282.344 96.3402C287.086 95.3971 292 95.8811 296.466 97.731C300.932 99.5809 304.749 102.714 307.435 106.733C310.12 110.752 311.554 115.478 311.554 120.312C311.548 126.792 308.971 133.005 304.388 137.587C299.806 142.17 293.593 144.747 287.113 144.753ZM287.113 97.2975C282.566 97.2975 278.121 98.6459 274.34 101.172C270.559 103.698 267.612 107.289 265.872 111.49C264.132 115.691 263.677 120.314 264.564 124.773C265.451 129.233 267.641 133.33 270.856 136.545C274.071 139.76 278.168 141.95 282.627 142.837C287.087 143.724 291.71 143.269 295.911 141.529C300.112 139.788 303.702 136.842 306.229 133.061C308.755 129.28 310.103 124.835 310.103 120.288C310.091 114.194 307.664 108.354 303.355 104.045C299.047 99.7363 293.206 97.3101 287.113 97.2975Z" fill="white"/>
<path d="M260.547 116.681H260.388L254.966 115.737C254.851 115.717 254.741 115.674 254.642 115.612C254.544 115.549 254.458 115.467 254.391 115.372C254.324 115.276 254.277 115.168 254.252 115.054C254.226 114.94 254.224 114.822 254.244 114.707C254.264 114.592 254.307 114.482 254.37 114.383C254.433 114.285 254.514 114.2 254.61 114.133C254.706 114.066 254.814 114.018 254.928 113.993C255.042 113.968 255.16 113.965 255.275 113.985L260.697 114.945C260.913 114.986 261.106 115.105 261.239 115.281C261.371 115.456 261.434 115.674 261.416 115.893C261.397 116.111 261.298 116.316 261.137 116.466C260.977 116.616 260.766 116.701 260.547 116.705V116.681ZM276.006 151.896C275.9 151.897 275.795 151.878 275.697 151.84C275.476 151.76 275.297 151.596 275.197 151.383C275.098 151.171 275.086 150.928 275.166 150.707L277.052 145.53C277.132 145.308 277.297 145.127 277.51 145.027C277.724 144.926 277.968 144.915 278.19 144.995C278.412 145.075 278.593 145.239 278.693 145.453C278.794 145.666 278.805 145.911 278.725 146.132L276.838 151.309C276.779 151.482 276.666 151.632 276.517 151.737C276.367 151.842 276.189 151.898 276.006 151.896ZM315.248 137.61C315.093 137.609 314.94 137.568 314.804 137.491L310.048 134.74C309.844 134.623 309.695 134.429 309.634 134.201C309.573 133.974 309.605 133.731 309.723 133.527C309.84 133.323 310.034 133.175 310.262 133.114C310.489 133.053 310.732 133.085 310.936 133.202L315.692 135.953C315.862 136.051 315.994 136.202 316.069 136.382C316.144 136.563 316.157 136.763 316.106 136.952C316.055 137.141 315.944 137.308 315.789 137.427C315.634 137.546 315.444 137.61 315.248 137.61ZM304.459 100.675C304.25 100.678 304.047 100.605 303.888 100.469C303.797 100.394 303.722 100.303 303.668 100.199C303.613 100.096 303.579 99.9823 303.569 99.8656C303.559 99.7489 303.572 99.6314 303.607 99.5198C303.643 99.4083 303.701 99.305 303.777 99.216L307.321 94.9984C307.393 94.9009 307.484 94.8192 307.589 94.7583C307.694 94.6975 307.81 94.6588 307.931 94.6446C308.051 94.6304 308.173 94.6411 308.29 94.676C308.406 94.7108 308.514 94.7691 308.606 94.8473C308.699 94.9254 308.775 95.0217 308.829 95.1303C308.883 95.2389 308.914 95.3574 308.921 95.4785C308.928 95.5996 308.909 95.7208 308.867 95.8346C308.825 95.9484 308.76 96.0523 308.676 96.14L305.14 100.358C305.058 100.458 304.953 100.539 304.835 100.593C304.717 100.648 304.589 100.676 304.459 100.675ZM269.775 100.675C269.645 100.676 269.516 100.648 269.398 100.593C269.28 100.539 269.176 100.458 269.093 100.358L265.549 96.14C265.399 95.9585 265.327 95.7253 265.348 95.491C265.369 95.2566 265.481 95.0398 265.66 94.8874C265.749 94.8113 265.852 94.7537 265.964 94.718C266.076 94.6823 266.193 94.6693 266.31 94.6796C266.426 94.69 266.54 94.7235 266.643 94.7782C266.747 94.833 266.839 94.9078 266.913 94.9984L270.456 99.216C270.532 99.3054 270.588 99.4088 270.623 99.5203C270.658 99.6317 270.671 99.7489 270.661 99.8653C270.651 99.9817 270.617 100.095 270.563 100.198C270.509 100.302 270.435 100.394 270.345 100.469C270.186 100.603 269.983 100.677 269.775 100.675ZM258.977 137.61C258.782 137.61 258.592 137.546 258.436 137.427C258.281 137.308 258.17 137.141 258.119 136.952C258.069 136.763 258.082 136.563 258.157 136.382C258.231 136.202 258.364 136.051 258.533 135.953L263.29 133.202C263.392 133.143 263.506 133.104 263.623 133.089C263.74 133.073 263.86 133.081 263.974 133.111C264.089 133.142 264.196 133.195 264.29 133.267C264.384 133.339 264.463 133.429 264.523 133.531C264.582 133.634 264.62 133.747 264.636 133.865C264.652 133.982 264.644 134.101 264.613 134.216C264.583 134.33 264.53 134.438 264.458 134.532C264.386 134.626 264.296 134.705 264.194 134.764L259.437 137.515C259.295 137.587 259.136 137.62 258.977 137.61ZM298.227 151.896C298.045 151.898 297.866 151.842 297.717 151.737C297.567 151.632 297.455 151.482 297.395 151.309L295.508 146.132C295.428 145.911 295.44 145.666 295.54 145.453C295.641 145.239 295.822 145.075 296.043 144.995C296.265 144.915 296.51 144.926 296.723 145.027C296.936 145.127 297.101 145.308 297.181 145.53L299.06 150.707C299.101 150.816 299.12 150.932 299.116 151.049C299.111 151.166 299.084 151.28 299.034 151.386C298.985 151.492 298.914 151.586 298.828 151.665C298.741 151.743 298.639 151.802 298.529 151.84C298.433 151.878 298.33 151.897 298.227 151.896ZM313.687 116.681C313.466 116.679 313.255 116.595 313.093 116.446C312.931 116.296 312.83 116.092 312.811 115.873C312.791 115.653 312.853 115.434 312.986 115.258C313.118 115.083 313.312 114.962 313.528 114.921L318.959 113.962C319.191 113.921 319.43 113.974 319.623 114.109C319.817 114.244 319.948 114.451 319.989 114.683C320.03 114.915 319.977 115.154 319.842 115.348C319.707 115.541 319.5 115.673 319.268 115.714L313.837 116.673L313.687 116.681ZM287.113 94.388C286.877 94.388 286.651 94.2944 286.485 94.1279C286.318 93.9614 286.225 93.7355 286.225 93.5001V87.9903C286.225 87.7548 286.318 87.5289 286.485 87.3624C286.651 87.1959 286.877 87.1024 287.113 87.1024C287.348 87.1024 287.574 87.1959 287.741 87.3624C287.907 87.5289 288.001 87.7548 288.001 87.9903V93.5397C287.99 93.7682 287.892 93.984 287.727 94.1421C287.562 94.3001 287.341 94.3882 287.113 94.388Z" fill="#2C130E"/>
<path d="M361.995 41.7387C365.491 26.9264 356.318 12.0846 341.505 8.58857C326.693 5.09256 311.851 14.2662 308.355 29.0785C304.859 43.8908 314.033 58.7326 328.845 62.2286C343.657 65.7246 358.499 56.551 361.995 41.7387Z" fill="#FBD851"/>
<path d="M332.063 12.2167C332.396 13.3662 331.151 14.7298 329.28 15.2689C327.409 15.8079 325.626 15.2689 325.316 14.159C325.007 13.0491 326.236 11.6379 328.107 11.1068C329.978 10.5756 331.73 11.0909 332.063 12.2167Z" fill="white"/>
<path d="M353.127 14.4999C352.732 19.5737 350.939 24.4391 347.948 28.5568C344.958 32.6745 340.885 35.8839 336.183 37.8293C331.48 39.7748 326.331 40.3803 321.305 39.5789C316.279 38.7774 311.573 36.6003 307.709 33.2887C307.661 33.9864 307.63 34.684 307.63 35.3975C307.626 40.0192 308.786 44.5675 311.001 48.6239C313.216 52.6802 316.415 56.1143 320.305 58.6102C324.195 61.106 328.65 62.5834 333.261 62.9064C337.871 63.2294 342.489 62.3877 346.689 60.4586C350.888 58.5295 354.536 55.5751 357.295 51.8673C360.054 48.1594 361.836 43.8172 362.477 39.2401C363.118 34.6631 362.598 29.9983 360.964 25.675C359.33 21.3517 356.635 17.5088 353.127 14.4999Z" fill="#F9B839"/>
<path d="M335.187 65.2772C329.28 65.2772 323.506 63.5258 318.595 60.2443C313.684 56.9628 309.856 52.2987 307.596 46.8418C305.336 41.3848 304.744 35.3802 305.897 29.5872C307.049 23.7942 309.893 18.4729 314.07 14.2964C318.246 10.1198 323.567 7.27558 329.36 6.12328C335.154 4.97097 341.158 5.56238 346.615 7.8227C352.072 10.083 356.736 13.9108 360.018 18.8219C363.299 23.7329 365.051 29.5068 365.051 35.4133C365.042 43.3312 361.893 50.9223 356.294 56.521C350.696 62.1198 343.104 65.2688 335.187 65.2772ZM335.187 10.1713C330.195 10.1729 325.315 11.6547 321.165 14.4292C317.015 17.2038 313.781 21.1466 311.872 25.7591C309.962 30.3717 309.464 35.4467 310.439 40.3427C311.413 45.2386 313.818 49.7356 317.349 53.2649C320.879 56.7943 325.377 59.1976 330.273 60.1709C335.169 61.1442 340.244 60.6439 344.856 58.7332C349.468 56.8224 353.41 53.5871 356.183 49.4362C358.956 45.2854 360.437 40.4054 360.437 35.4133C360.43 28.7193 357.768 22.3014 353.034 17.5687C348.299 12.836 341.881 10.1755 335.187 10.1713Z" fill="#0E2C28"/>
<path d="M335.186 61.6543C329.997 61.6543 324.923 60.1153 320.608 57.2319C316.293 54.3485 312.929 50.2503 310.943 45.4554C308.957 40.6605 308.437 35.3843 309.45 30.2941C310.462 25.2038 312.962 20.5281 316.631 16.8583C320.301 13.1884 324.977 10.6892 330.067 9.67671C335.157 8.6642 340.434 9.18386 345.228 11.17C350.023 13.1561 354.122 16.5194 357.005 20.8347C359.888 25.15 361.427 30.2234 361.427 35.4134C361.419 42.3703 358.652 49.0399 353.732 53.9593C348.813 58.8786 342.143 61.6459 335.186 61.6543ZM335.186 10.5995C330.279 10.6011 325.482 12.0577 321.403 14.7852C317.323 17.5128 314.144 21.3887 312.267 25.923C310.39 30.4573 309.9 35.4463 310.858 40.2592C311.817 45.0721 314.181 49.4928 317.651 52.9623C321.122 56.4318 325.543 58.7943 330.356 59.7511C335.17 60.7079 340.158 60.216 344.692 58.3377C349.226 56.4594 353.101 53.2789 355.827 49.1984C358.553 45.118 360.008 40.3208 360.008 35.4134C360.002 28.8329 357.385 22.5239 352.731 17.8715C348.077 13.2191 341.767 10.6037 335.186 10.5995Z" fill="white"/>
<path d="M344.742 50.8634C353.282 45.5848 355.926 34.3827 350.648 25.8427C345.369 17.3027 334.167 14.6588 325.627 19.9373C317.087 25.2158 314.443 36.418 319.722 44.958C325 53.4979 336.202 56.1419 344.742 50.8634Z" fill="#F9B839"/>
<path d="M326.323 30.9659C335.226 25.9476 345.025 25.2103 351.922 28.3259C350.28 24.4786 347.36 21.3156 343.657 19.3711C339.953 17.4266 335.692 16.8195 331.592 17.6524C327.493 18.4854 323.806 20.7072 321.155 23.943C318.504 27.1788 317.05 31.2302 317.04 35.4134C317.037 36.3612 317.111 37.3078 317.262 38.2436C319.859 35.3331 322.921 32.8738 326.323 30.9659Z" fill="#FBD851"/>
<path d="M320.052 34.0815H319.997C319.761 34.0653 319.54 33.956 319.384 33.7777C319.228 33.5994 319.149 33.3666 319.164 33.1302C319.232 32.0451 319.462 30.9763 319.846 29.9591C319.929 29.7383 320.097 29.5596 320.312 29.4622C320.526 29.3648 320.771 29.3568 320.992 29.4398C321.213 29.5229 321.391 29.6902 321.489 29.9051C321.586 30.1199 321.594 30.3646 321.511 30.5854C321.195 31.4279 321.003 32.3118 320.94 33.2095C320.936 33.4422 320.841 33.664 320.675 33.8271C320.509 33.9902 320.285 34.0816 320.052 34.0815Z" fill="white"/>
<path d="M321.424 29.6419C321.249 29.6422 321.077 29.5897 320.932 29.4913C320.736 29.3619 320.599 29.1598 320.551 28.9294C320.504 28.699 320.55 28.4591 320.679 28.2625L321.947 26.344C322.078 26.147 322.282 26.0098 322.513 25.9622C322.745 25.9147 322.986 25.9607 323.184 26.0903C323.281 26.1543 323.365 26.237 323.43 26.3336C323.496 26.4303 323.541 26.5389 323.564 26.6533C323.587 26.7676 323.587 26.8853 323.563 26.9996C323.54 27.1139 323.495 27.2225 323.43 27.3191L322.145 29.2455C322.066 29.3649 321.959 29.4633 321.833 29.5324C321.708 29.6014 321.567 29.639 321.424 29.6419Z" fill="white"/>
<path d="M331.405 26.0982C334.343 26.0982 336.725 24.5578 336.725 22.6575C336.725 20.7573 334.343 19.2169 331.405 19.2169C328.467 19.2169 326.085 20.7573 326.085 22.6575C326.085 24.5578 328.467 26.0982 331.405 26.0982Z" fill="white"/>
<path d="M335.187 55.0108C331.311 55.0108 327.522 53.8615 324.299 51.7081C321.076 49.5547 318.564 46.494 317.081 42.913C315.598 39.332 315.21 35.3917 315.966 31.5901C316.722 27.7886 318.588 24.2967 321.329 21.5559C324.07 18.8152 327.562 16.9487 331.363 16.1925C335.165 15.4363 339.105 15.8244 342.686 17.3077C346.267 18.791 349.328 21.3029 351.481 24.5256C353.635 27.7484 354.784 31.5374 354.784 35.4134C354.778 40.609 352.711 45.5901 349.037 49.2639C345.363 52.9378 340.382 55.0045 335.187 55.0108ZM335.187 18.662C331.873 18.662 328.635 19.6445 325.88 21.4851C323.125 23.3258 320.978 25.942 319.71 29.0029C318.442 32.0638 318.111 35.432 318.757 38.6814C319.403 41.9309 320.999 44.9157 323.342 47.2584C325.684 49.6011 328.669 51.1965 331.919 51.8429C335.168 52.4892 338.536 52.1575 341.597 50.8896C344.658 49.6218 347.274 47.4747 349.115 44.72C350.956 41.9652 351.938 38.7265 351.938 35.4134C351.932 30.9726 350.165 26.7155 347.025 23.5753C343.885 20.4352 339.627 18.6683 335.187 18.662Z" fill="#2C130E"/>
<path d="M335.187 52.9733C331.714 52.9733 328.319 51.9435 325.431 50.014C322.543 48.0844 320.292 45.3419 318.963 42.1333C317.634 38.9246 317.286 35.3939 317.964 31.9876C318.642 28.5812 320.314 25.4524 322.77 22.9965C325.226 20.5407 328.355 18.8683 331.761 18.1907C335.167 17.5132 338.698 17.8609 341.907 19.19C345.115 20.5191 347.858 22.7698 349.787 25.6575C351.717 28.5453 352.747 31.9403 352.747 35.4133C352.74 40.0686 350.888 44.5314 347.596 47.8232C344.305 51.115 339.842 52.9671 335.187 52.9733ZM335.187 19.2803C331.994 19.2803 328.873 20.2272 326.218 22.0011C323.564 23.7751 321.495 26.2964 320.274 29.2462C319.052 32.1961 318.733 35.4419 319.356 38.5731C319.98 41.7044 321.518 44.5804 323.776 46.8374C326.034 49.0945 328.911 50.6311 332.043 51.253C335.174 51.8749 338.42 51.5542 341.369 50.3313C344.318 49.1084 346.839 47.0383 348.611 44.3829C350.384 41.7275 351.329 38.6061 351.328 35.4133C351.323 31.1345 349.621 27.0323 346.595 24.0074C343.569 20.9826 339.465 19.2824 335.187 19.2803Z" fill="white"/>
<path d="M316.326 33.0905H316.168L312.315 32.4087C312.2 32.3884 312.09 32.3456 311.992 32.2828C311.893 32.2201 311.808 32.1385 311.741 32.0428C311.674 31.9471 311.626 31.8391 311.601 31.7251C311.576 31.611 311.573 31.4931 311.594 31.3781C311.614 31.263 311.657 31.1531 311.719 31.0546C311.782 30.9561 311.864 30.8709 311.959 30.8039C312.055 30.7369 312.163 30.6894 312.277 30.6642C312.391 30.6389 312.509 30.6364 312.624 30.6567L316.477 31.3384C316.693 31.3796 316.886 31.4993 317.018 31.6743C317.151 31.8494 317.214 32.0675 317.195 32.2864C317.177 32.5052 317.077 32.7094 316.917 32.8594C316.756 33.0094 316.546 33.0945 316.326 33.0984V33.0905ZM327.298 58.0946C327.195 58.0959 327.093 58.0771 326.997 58.0392C326.887 58.0011 326.785 57.9413 326.698 57.8632C326.612 57.7851 326.541 57.6904 326.492 57.5847C326.442 57.479 326.414 57.3644 326.41 57.2477C326.406 57.131 326.425 57.0147 326.466 56.9055L327.798 53.227C327.879 53.0052 328.045 52.8246 328.259 52.725C328.473 52.6254 328.718 52.6149 328.94 52.6958C329.161 52.7768 329.342 52.9425 329.442 53.1566C329.541 53.3707 329.552 53.6156 329.471 53.8374L328.131 57.508C328.071 57.6807 327.959 57.8302 327.809 57.9355C327.66 58.0407 327.481 58.0964 327.298 58.0946ZM355.165 47.955C355.009 47.954 354.856 47.913 354.721 47.8361L351.335 45.878C351.132 45.7602 350.983 45.5663 350.922 45.3388C350.861 45.1113 350.893 44.869 351.01 44.665C351.128 44.4611 351.322 44.3122 351.55 44.2513C351.777 44.1903 352.019 44.2222 352.223 44.34L355.609 46.2981C355.778 46.3959 355.91 46.5467 355.985 46.7273C356.06 46.9079 356.073 47.1081 356.022 47.2969C355.972 47.4857 355.86 47.6526 355.705 47.7716C355.55 47.8906 355.36 47.9551 355.165 47.955ZM347.514 21.7458C347.306 21.7437 347.105 21.671 346.943 21.5397C346.764 21.3874 346.652 21.1706 346.631 20.9362C346.611 20.7018 346.683 20.4687 346.832 20.2871L349.354 17.2904C349.427 17.2001 349.518 17.1254 349.621 17.0708C349.724 17.0161 349.836 16.9826 349.952 16.9723C350.068 16.962 350.185 16.975 350.296 17.0105C350.407 17.0461 350.51 17.1035 350.598 17.1795C350.689 17.2537 350.764 17.3453 350.818 17.4488C350.873 17.5523 350.907 17.6658 350.917 17.7824C350.927 17.8991 350.914 18.0166 350.879 18.1282C350.843 18.2397 350.785 18.343 350.709 18.432L348.18 21.397C348.101 21.4999 348.001 21.5844 347.886 21.6447C347.771 21.7049 347.644 21.7394 347.514 21.7458ZM322.875 21.7458C322.745 21.7456 322.617 21.717 322.499 21.6623C322.381 21.6075 322.277 21.5278 322.193 21.4287L319.68 18.432C319.605 18.3425 319.548 18.2391 319.513 18.1277C319.478 18.0163 319.466 17.8991 319.476 17.7828C319.486 17.6664 319.519 17.5533 319.573 17.4498C319.627 17.3463 319.701 17.2544 319.791 17.1795C319.88 17.1045 319.984 17.0479 320.095 17.0129C320.207 16.9779 320.324 16.9652 320.44 16.9755C320.556 16.9858 320.67 17.019 320.773 17.073C320.877 17.127 320.968 17.2009 321.043 17.2904L323.557 20.2871C323.632 20.3766 323.688 20.48 323.723 20.5914C323.759 20.7029 323.771 20.8201 323.761 20.9365C323.751 21.0528 323.718 21.166 323.663 21.2695C323.609 21.373 323.535 21.4649 323.446 21.5397C323.284 21.671 323.083 21.7437 322.875 21.7458ZM315.209 47.955C315.013 47.9551 314.823 47.8906 314.668 47.7716C314.513 47.6526 314.401 47.4857 314.351 47.2969C314.3 47.1081 314.313 46.9079 314.388 46.7273C314.463 46.5467 314.595 46.3959 314.765 46.2981L318.158 44.34C318.362 44.2222 318.604 44.1903 318.832 44.2513C319.059 44.3122 319.253 44.4611 319.371 44.665C319.488 44.869 319.52 45.1113 319.459 45.3388C319.398 45.5663 319.25 45.7602 319.046 45.878L315.653 47.8361C315.518 47.914 315.364 47.9551 315.209 47.955ZM343.075 58.0946C342.899 58.0862 342.73 58.0259 342.589 57.9215C342.448 57.8171 342.341 57.6732 342.282 57.508L340.942 53.8374C340.861 53.6156 340.872 53.3707 340.971 53.1566C341.071 52.9425 341.251 52.7768 341.473 52.6958C341.695 52.6149 341.94 52.6254 342.154 52.725C342.368 52.8246 342.534 53.0052 342.615 53.227L343.955 56.9055C344.034 57.1263 344.022 57.3695 343.923 57.5819C343.823 57.7943 343.644 57.9587 343.424 58.0392C343.312 58.0819 343.194 58.1008 343.075 58.0946ZM354.055 33.0905C353.834 33.0884 353.623 33.0046 353.461 32.8552C353.299 32.7059 353.198 32.5017 353.179 32.2823C353.159 32.0629 353.221 31.844 353.354 31.6681C353.487 31.4922 353.68 31.3719 353.896 31.3305L357.749 30.6487C357.981 30.6077 358.22 30.6607 358.414 30.796C358.607 30.9313 358.739 31.1378 358.78 31.3702C358.821 31.6025 358.768 31.8416 358.632 32.0349C358.497 32.2281 358.291 32.3598 358.058 32.4008L354.205 33.0826L354.055 33.0905ZM335.187 17.2667C334.951 17.2667 334.725 17.1731 334.559 17.0066C334.392 16.8401 334.299 16.6142 334.299 16.3787V12.4624C334.299 12.2269 334.392 12.0011 334.559 11.8346C334.725 11.6681 334.951 11.5745 335.187 11.5745C335.422 11.5745 335.648 11.6681 335.814 11.8346C335.981 12.0011 336.075 12.2269 336.075 12.4624V16.3787C336.075 16.6142 335.981 16.8401 335.814 17.0066C335.648 17.1731 335.422 17.2667 335.187 17.2667ZM289.277 249.717C288.9 249.717 288.538 249.567 288.271 249.302C288.003 249.036 287.852 248.675 287.85 248.298V171.042C287.877 170.682 288.038 170.347 288.302 170.102C288.566 169.857 288.913 169.721 289.273 169.721C289.633 169.721 289.98 169.857 290.244 170.102C290.508 170.347 290.669 170.682 290.696 171.042V248.321C290.69 248.694 290.537 249.048 290.272 249.309C290.007 249.57 289.649 249.717 289.277 249.717ZM336.717 192.042C336.34 192.042 335.979 191.893 335.713 191.627C335.447 191.36 335.298 190.999 335.298 190.623V72.5708C335.324 72.2117 335.486 71.876 335.75 71.6311C336.014 71.3862 336.361 71.25 336.721 71.25C337.081 71.25 337.427 71.3862 337.691 71.6311C337.955 71.876 338.117 72.2117 338.144 72.5708V190.623C338.144 190.81 338.107 190.995 338.035 191.168C337.963 191.341 337.858 191.497 337.725 191.629C337.593 191.761 337.435 191.866 337.262 191.936C337.089 192.007 336.904 192.043 336.717 192.042Z" fill="#205B53"/>
<path d="M503.342 62.6928L440.602 74.6637C433.467 76.0352 431.128 84.8826 436.329 91.1218L443.559 99.8423L287.961 220.907L195.658 124.585C192.111 122.327 187.913 121.315 183.727 121.709C179.541 122.102 175.605 123.878 172.54 126.757L64.1283 228.669C62.2875 230.362 60.8007 232.403 59.7541 234.675C58.7075 236.947 58.1218 239.403 58.0309 241.903C57.94 244.402 58.3457 246.895 59.2246 249.237C60.1034 251.578 61.4379 253.722 63.1509 255.545C64.8638 257.367 66.9212 258.832 69.204 259.854C71.4867 260.876 73.9495 261.436 76.4499 261.5C78.9502 261.564 81.4384 261.131 83.7705 260.227C86.1026 259.323 88.2322 257.966 90.0362 256.233L187.738 164.39L278.891 260.023C282.184 262.12 286.044 263.147 289.944 262.962C293.843 262.778 297.589 261.391 300.669 258.992L467.794 128.874L477.244 140.218C482.516 146.561 491.784 145.768 494.289 138.744L516.114 77.7001C518.873 69.9784 511.365 61.1627 503.342 62.6928Z" fill="#FCDC6D"/>
<path d="M480.645 81.22C474.787 82.4013 469.705 81.7274 469.301 79.7137C468.896 77.7001 473.312 75.1077 479.179 73.9265C485.045 72.7452 490.119 73.4191 490.523 75.4328C490.928 77.4464 486.512 80.0626 480.645 81.22ZM144.492 172.722C130.008 185.867 117.371 195.546 116.269 194.333C115.167 193.12 126.028 181.49 140.52 168.346C155.012 155.202 167.641 145.53 168.743 146.735C169.845 147.94 158.984 159.578 144.492 172.722ZM389.206 159.261C366.66 176.702 347.562 189.791 346.563 188.499C345.564 187.206 363.037 172.025 385.568 154.584C408.098 137.142 427.212 124.054 428.211 125.346C429.21 126.638 411.729 141.82 389.206 159.261Z" fill="white"/>
<path d="M62.3287 230.619C59.2788 234.351 57.7685 239.106 58.1059 243.913C58.4434 248.721 60.6033 253.219 64.1445 256.488C67.6858 259.757 72.3414 261.551 77.1607 261.504C81.9799 261.456 86.5994 259.571 90.0759 256.233L147.949 201.809C123.333 216.935 96.1723 227.234 67.1567 230.103L62.3287 230.619ZM487.281 129.405C483.388 131.871 474.533 130.198 470.442 132.061L477.173 140.131L477.244 140.218C482.516 146.561 491.784 145.768 494.289 138.744L505.784 106.589C499.244 113.93 496.112 123.824 487.281 129.405ZM257.011 237.032L278.891 260.023C282.184 262.12 286.045 263.147 289.944 262.962C293.843 262.778 297.589 261.391 300.669 258.992L365.439 208.58C361.412 210.229 354.871 212.995 346.967 216.832C333.205 223.515 329.161 226.694 317.73 231.895C306.829 236.85 301.216 239.26 293.724 240.798C286.661 242.193 274.024 243.375 257.011 237.032Z" fill="#FAD00A"/>
<path d="M289.039 265.239C285.003 265.243 281.051 264.093 277.647 261.925C277.489 261.829 277.345 261.712 277.219 261.577L187.635 167.648L91.614 257.914C87.6881 261.622 82.4905 263.685 77.0903 263.677C74.1925 263.674 71.326 263.078 68.6664 261.928C66.0068 260.777 63.6101 259.096 61.6232 256.986C57.7682 252.885 55.7002 247.421 55.8742 241.795C56.0481 236.169 58.4498 230.843 62.5508 226.988L170.963 125.076C174.397 121.844 178.811 119.849 183.507 119.408C188.203 118.967 192.911 120.106 196.887 122.643C197.045 122.739 197.189 122.856 197.315 122.991L288.175 217.807L440.269 99.4459L434.561 92.6042C433.022 90.8317 431.969 88.6907 431.503 86.39C431.038 84.0892 431.176 81.7071 431.905 79.4758C432.527 77.6643 433.623 76.0524 435.078 74.8074C436.534 73.5625 438.296 72.73 440.182 72.3963L502.899 60.4175C507.473 59.5454 512.182 61.3292 515.488 65.1741C517.085 66.9485 518.185 69.1128 518.678 71.4485C519.171 73.7843 519.038 76.2087 518.294 78.4769L496.461 139.521C495.837 141.359 494.726 142.994 493.246 144.25C491.766 145.507 489.973 146.338 488.058 146.656C485.709 147.006 483.31 146.733 481.1 145.863C478.89 144.994 476.948 143.558 475.468 141.701L467.446 132.084L302.088 260.816C298.351 263.7 293.76 265.256 289.039 265.239ZM280.358 258.176C283.241 259.939 286.593 260.784 289.967 260.597C293.342 260.41 296.58 259.201 299.25 257.129L466.375 127.058C466.846 126.696 467.439 126.529 468.029 126.592C468.62 126.656 469.163 126.945 469.546 127.399L479.012 138.728C479.971 139.96 481.237 140.918 482.682 141.508C484.127 142.098 485.702 142.298 487.249 142.089C488.361 141.915 489.403 141.437 490.26 140.708C491.118 139.979 491.758 139.028 492.109 137.959L513.942 76.9152C514.411 75.4183 514.478 73.8244 514.135 72.2936C513.793 70.7628 513.054 69.3491 511.992 68.1946C509.78 65.6022 506.704 64.3893 503.778 64.9522L441.062 76.931C439.974 77.1241 438.958 77.6066 438.121 78.3278C437.284 79.049 436.657 79.9823 436.305 81.0297C435.845 82.5041 435.775 84.0724 436.1 85.5824C436.425 87.0923 437.135 88.4925 438.16 89.6471L445.335 98.2963C445.533 98.5349 445.682 98.8107 445.771 99.1075C445.861 99.4044 445.891 99.7162 445.858 100.025C445.828 100.335 445.734 100.636 445.582 100.908C445.431 101.181 445.225 101.42 444.978 101.61L289.38 222.762C288.928 223.114 288.363 223.286 287.791 223.245C287.22 223.204 286.685 222.953 286.288 222.54L194.183 126.392C191.079 124.482 187.432 123.648 183.807 124.019C180.181 124.39 176.779 125.946 174.126 128.446L65.706 230.357C63.2808 232.636 61.5964 235.591 60.8716 238.839C60.1469 242.088 60.4151 245.479 61.6415 248.572C62.8679 251.666 64.9959 254.32 67.7493 256.189C70.5027 258.059 73.7544 259.057 77.0824 259.056C81.3049 259.059 85.369 257.448 88.4429 254.553L186.153 162.709C186.597 162.291 187.189 162.066 187.8 162.082C188.41 162.099 188.989 162.355 189.411 162.797L280.358 258.176Z" fill="#0E2C28"/>
<path d="M518.865 492.211H60.1804L96.0535 457.012H482.992L518.865 492.211Z" fill="#DFAB26"/>
<path d="M518.865 498.236H60.1803C58.988 498.232 57.8239 497.874 56.8352 497.208C55.8465 496.541 55.0777 495.597 54.6261 494.493C54.1746 493.39 54.0605 492.177 54.2985 491.009C54.5364 489.841 55.1156 488.769 55.9627 487.93L91.8359 452.731C92.9629 451.628 94.4768 451.011 96.0534 451.011H482.992C484.568 451.011 486.082 451.628 487.209 452.731L523.083 487.93C523.93 488.769 524.509 489.841 524.747 491.009C524.985 492.177 524.871 493.39 524.419 494.493C523.968 495.597 523.199 496.541 522.21 497.208C521.221 497.874 520.057 498.232 518.865 498.236ZM74.9101 486.194H504.119L480.526 463.037H98.511L74.9101 486.194Z" fill="white"/>
<path d="M333.53 334.956C332.515 340.957 324.595 368.158 328.519 374.127C332.444 380.097 361.364 382.713 363.56 393.947C365.756 405.18 329.748 399.115 329.748 399.115C329.748 399.115 300.796 392.979 299.623 379.233C298.449 365.486 310.579 334.044 311.276 332.617C311.974 331.19 333.53 334.956 333.53 334.956Z" fill="#F7A08B"/>
<path d="M348.545 403.103C347.06 403.103 345.474 403.061 343.788 402.976C338.949 402.701 334.127 402.172 329.344 401.391H329.249C324.085 400.219 319.043 398.568 314.186 396.46C303.555 391.774 297.878 386.05 297.324 379.447C296.126 365.177 308.319 333.466 309.215 331.61C310.285 329.422 313.647 329.676 322.978 330.968C328.424 331.721 333.855 332.657 333.91 332.665C334.512 332.769 335.048 333.109 335.401 333.608C335.753 334.108 335.893 334.726 335.789 335.329C335.559 336.7 334.996 338.999 334.322 341.917C333.117 347.014 331.46 354.006 330.501 360.222C329.066 369.529 329.978 372.113 330.43 372.843C331.556 374.555 337.684 376.593 342.599 378.226C352.739 381.603 364.234 385.424 365.811 393.518C366.042 394.537 366.012 395.597 365.724 396.6C365.435 397.603 364.898 398.518 364.163 399.258C361.673 401.843 356.536 403.103 348.545 403.103ZM330.184 396.88C340.855 398.679 357.4 399.607 360.873 396.087C361.089 395.882 361.243 395.62 361.318 395.331C361.392 395.042 361.383 394.738 361.293 394.454C360.23 389.015 349.655 385.496 341.156 382.665C334.14 380.335 328.591 378.487 326.585 375.435C323.239 370.346 326.22 356.202 329.843 340.902C330.2 339.403 330.525 338.024 330.787 336.875C323.588 335.685 315.867 334.663 313.068 334.663H312.981C310.737 340.299 300.947 367.238 301.945 379.114C302.77 388.92 322.566 395.255 330.184 396.88Z" fill="#0E2C28"/>
<path d="M330.636 343.455C329.613 350.962 320.845 385.163 325.967 392.432C331.088 399.702 367.191 401.803 370.41 415.74C373.628 429.677 328.488 423.549 328.488 423.549C328.488 423.549 292.186 417.064 290.197 399.995C288.207 382.927 302.025 343.256 302.833 341.465C303.642 339.673 330.636 343.455 330.636 343.455Z" fill="#F7A08B"/>
<path d="M348.656 427.204H346.19C340.175 427.065 334.171 426.615 328.202 425.856H328.107C326.522 425.578 290.054 418.856 287.921 400.297C285.868 382.681 299.726 342.828 300.756 340.545C301.549 338.809 303.507 338.587 307.63 338.745C310.008 338.841 313.266 339.102 317.294 339.538C324.096 340.252 330.89 341.203 330.953 341.211C331.559 341.296 332.107 341.617 332.477 342.104C332.847 342.591 333.009 343.205 332.927 343.811C332.689 345.508 332.134 348.394 331.342 352.04C330.042 358.454 328.258 367.23 327.314 375.031C325.927 386.447 327.045 390.03 327.838 391.148C329.423 393.4 336.907 395.627 343.511 397.585C356.124 401.335 370.426 405.584 372.637 415.272C372.944 416.443 372.95 417.672 372.655 418.846C372.359 420.02 371.773 421.1 370.949 421.987C367.738 425.475 360.429 427.204 348.656 427.204ZM328.876 421.266C341.434 422.97 363.005 423.802 367.564 418.816C367.886 418.483 368.111 418.069 368.216 417.618C368.321 417.167 368.301 416.696 368.158 416.255C366.573 409.2 353.056 405.156 342.219 401.985C333.498 399.393 326.585 397.34 324.08 393.78C319.846 387.763 322.97 370.155 326.839 351.089C327.291 348.869 327.679 346.943 327.964 345.437C318.293 344.144 307.764 343.058 304.625 343.328C303.587 346.19 300.534 355.156 297.688 365.747C293.518 381.246 291.727 393.003 292.511 399.742C293.978 412.307 319.212 419.529 328.876 421.266Z" fill="#0E2C28"/>
<path d="M450.425 261.608C450.425 261.608 330.589 256.693 314.86 266.516C299.131 276.338 255.925 340.188 260.832 361.799C263.932 375.443 265.985 388.984 275.483 398.6C278.329 401.478 289.388 412.743 301.414 410.65C311.935 408.819 312.053 398.711 325.626 389.182C338.865 379.883 353.436 379.201 364.472 378.678C384.133 377.75 386.995 383.593 406.489 384.156C414.575 384.394 434.775 384.988 453.073 374.571C471.925 363.829 494.63 324.476 494.63 324.476L450.425 261.608Z" fill="#FABFAE"/>
<path d="M314.876 266.492C306.647 271.637 290.886 291.575 278.408 312.52C289.729 298.98 299.9 284.321 315.447 276.378C327.497 269.687 341.529 269.56 354.903 268.831C370.529 267.974 386.218 267.443 401.804 266.072C413.886 265.009 425.975 263.226 438.057 262.163C442.307 261.886 446.508 261.933 450.694 262.005L450.393 261.585C450.393 261.585 330.589 256.669 314.876 266.492Z" fill="#FDDFD4"/>
<path d="M369.498 339.641C342.988 315.256 303.127 311.252 271.574 324.84C263.908 339.705 259.009 353.689 260.848 361.776C263.948 375.419 266.001 388.96 275.499 398.576C278.345 401.454 289.404 412.719 301.43 410.627C311.95 408.795 312.069 398.687 325.642 389.158C338.881 379.859 353.452 379.177 364.488 378.654C380.771 377.861 385.528 381.762 397.784 383.411C396.992 381.246 396.127 379.09 395.129 376.934C388.691 363.084 380.51 350.304 369.498 339.641Z" fill="#F7A08B"/>
<path d="M298.362 413.203C290.633 413.203 282.427 408.859 273.913 400.241H273.873C264.947 391.211 262.235 378.836 259.603 366.81C259.278 365.319 258.953 363.821 258.612 362.323C257.36 356.773 258.795 348.734 262.878 338.349C266.31 329.629 271.598 319.322 278.17 308.549C290.656 288.119 305.584 269.623 313.663 264.573C317.627 262.1 327.077 260.379 342.544 259.317C354.491 258.524 369.974 258.08 388.525 258.08C420.133 258.08 450.203 259.301 450.504 259.317C450.859 259.329 451.206 259.423 451.519 259.593C451.831 259.762 452.1 260.001 452.304 260.292L496.556 323.12C496.811 323.479 496.958 323.904 496.977 324.344C496.997 324.784 496.889 325.221 496.667 325.601C495.732 327.234 473.439 365.629 454.254 376.553C435.402 387.287 414.377 386.677 406.457 386.447C399.626 386.272 392.843 385.247 386.265 383.395C380.383 381.896 374.833 380.477 364.615 380.961C353.516 381.484 339.698 382.134 327.005 391.053C321.139 395.167 317.944 399.361 315.114 403.063C311.562 407.725 308.502 411.784 301.858 412.902C300.704 413.102 299.534 413.203 298.362 413.203ZM388.533 262.663C333.561 262.663 319.561 266.294 316.097 268.45C308.676 273.096 294.057 291.353 282.094 310.919C268.205 333.648 261.102 352.468 263.068 361.26C263.417 362.775 263.742 364.281 264.075 365.779C266.675 377.671 269.125 388.873 277.108 396.951H277.155C283.117 402.992 292.099 409.858 301.002 408.312C305.862 407.471 308.058 404.586 311.38 400.225C314.249 396.452 317.833 391.758 324.278 387.232C338.072 377.544 353.246 376.83 364.321 376.307C375.23 375.792 381.112 377.29 387.312 378.876C393.561 380.642 400.006 381.619 406.497 381.785C414.774 382.031 434.141 382.578 451.875 372.494C468.104 363.258 487.78 331.27 491.824 324.515L449.14 263.804C443.44 263.63 416.581 262.663 388.533 262.663Z" fill="#0E2C28"/>
<mask id="mask0_981_5160" style="mask-type:luminance" maskUnits="userSpaceOnUse" x="113" y="324" width="254" height="163">
<path d="M113.669 324.285H366.47V486.432H113.669V324.285Z" fill="white"/>
</mask>
<g mask="url(#mask0_981_5160)">
<path d="M120.943 438.548L157.554 508.105C160.438 513.583 167.216 515.687 172.695 512.803L343.062 423.131C348.541 420.247 350.644 413.468 347.761 407.99L311.149 338.433C308.266 332.954 301.487 330.851 296.009 333.734L125.641 423.407C120.163 426.291 118.059 433.069 120.943 438.548Z" fill="#8AB88A"/>
<path d="M271.812 370.56C304.165 375.261 325.118 398.061 339.832 424.786L344.058 422.566C345.229 421.953 346.267 421.116 347.115 420.102C347.962 419.088 348.601 417.917 348.996 416.656C349.39 415.395 349.532 414.068 349.414 412.752C349.296 411.436 348.92 410.156 348.307 408.986L310.571 337.382C309.956 336.214 309.116 335.178 308.101 334.334C307.086 333.491 305.914 332.855 304.653 332.464C303.392 332.073 302.066 331.935 300.751 332.056C299.437 332.178 298.159 332.557 296.991 333.172L232.776 366.992C245.848 367.395 258.884 368.586 271.812 370.56Z" fill="#62A669"/>
<path d="M166.975 516.803C165.728 516.8 164.488 516.61 163.297 516.24C161.745 515.763 160.303 514.983 159.056 513.945C157.808 512.906 156.778 511.631 156.027 510.191L118.331 438.588C116.805 435.687 116.493 432.299 117.464 429.169C118.435 426.038 120.608 423.421 123.507 421.892L295.921 331.127C297.357 330.368 298.93 329.9 300.548 329.749C302.166 329.599 303.798 329.769 305.35 330.25C306.902 330.731 308.344 331.513 309.594 332.552C310.844 333.59 311.876 334.865 312.632 336.304L350.329 407.915C351.853 410.817 352.162 414.205 351.188 417.335C350.214 420.464 348.037 423.079 345.136 424.603L172.715 515.376C170.946 516.311 168.976 516.8 166.975 516.803ZM301.668 334.322C300.413 334.322 299.177 334.63 298.069 335.218L125.656 425.983C123.842 426.94 122.482 428.578 121.874 430.537C121.266 432.496 121.46 434.615 122.413 436.431L160.11 508.043C161.069 509.857 162.708 511.217 164.668 511.825C166.628 512.433 168.749 512.239 170.567 511.285L342.98 420.52C344.794 419.561 346.154 417.922 346.762 415.962C347.37 414.002 347.176 411.881 346.222 410.064L308.526 338.46C307.868 337.212 306.881 336.166 305.673 335.437C304.464 334.708 303.08 334.322 301.668 334.322Z" fill="#0E2C28"/>
<path d="M144.46 447.538C144.12 447.721 143.779 447.879 143.43 448.038L161.664 482.682C161.989 482.484 162.314 482.294 162.655 482.119C164.701 481.042 166.939 480.378 169.242 480.166C171.545 479.954 173.866 480.198 176.075 480.883C178.284 481.569 180.335 482.683 182.114 484.161C183.892 485.639 185.361 487.454 186.438 489.5C186.604 489.809 186.755 490.126 186.898 490.435L315.367 422.804C315.182 422.513 315.008 422.212 314.844 421.9C312.676 417.765 312.236 412.939 313.621 408.481C315.006 404.022 318.103 400.295 322.233 398.117C322.838 397.804 323.46 397.524 324.096 397.276L305.783 362.481C305.218 362.866 304.633 363.221 304.03 363.544C299.99 365.672 295.281 366.147 290.897 364.869C286.513 363.591 282.796 360.66 280.533 356.694L152.103 424.31C154.086 428.418 154.397 433.134 152.972 437.467C151.546 441.8 148.495 445.41 144.46 447.538Z" fill="#BCD3B9"/>
<path d="M262.576 370.044C266.398 371.63 270.457 373.659 273.778 374.302C292.868 377.655 307.202 387.612 319.379 399.987C320.273 399.268 321.234 398.636 322.249 398.101C322.854 397.788 323.476 397.508 324.112 397.26L305.799 362.465C305.234 362.85 304.649 363.205 304.046 363.528C300.006 365.656 295.297 366.131 290.913 364.853C286.529 363.575 282.812 360.644 280.549 356.678L257.51 368.808C259.222 369.12 260.913 369.533 262.576 370.044Z" fill="#A8C7A5"/>
<path d="M170.234 446.658C171.834 445.818 173.647 445.47 175.445 445.66C177.242 445.85 178.943 446.569 180.332 447.725C181.721 448.881 182.736 450.424 183.249 452.157C183.762 453.89 183.75 455.736 183.213 457.462C182.677 459.188 181.641 460.717 180.237 461.854C178.832 462.992 177.122 463.687 175.322 463.853C173.522 464.018 171.713 463.647 170.125 462.785C168.536 461.923 167.239 460.609 166.397 459.01C165.268 456.863 165.039 454.356 165.758 452.04C166.478 449.724 168.087 447.788 170.234 446.658Z" fill="#66A86D"/>
<path d="M261.475 431.718C266.128 416.722 257.744 400.794 242.749 396.14C227.753 391.487 211.825 399.871 207.171 414.866C202.518 429.862 210.902 445.79 225.897 450.444C240.893 455.097 256.821 446.713 261.475 431.718Z" fill="#66A86D"/>
<path d="M300.668 396.041C301.327 391.036 297.804 386.444 292.799 385.785C287.794 385.127 283.202 388.65 282.543 393.655C281.884 398.66 285.407 403.252 290.412 403.91C295.417 404.569 300.009 401.046 300.668 396.041Z" fill="#66A86D"/>
<path d="M241.988 444.074C241.74 443.981 241.514 443.839 241.325 443.654C241.135 443.47 240.986 443.249 240.886 443.004L239.744 440.847C235.516 442.634 232.11 443.368 229.525 443.051C228.971 442.988 228.638 442.845 228.527 442.623C228.446 442.405 228.424 442.17 228.463 441.941L228.677 438.715C228.677 438.334 228.82 438.096 228.971 438.017C229.205 437.926 229.459 437.896 229.708 437.93C231.426 437.936 233.138 437.729 234.805 437.311C236.516 436.904 238.17 436.286 239.729 435.472C241.948 434.299 243.354 433.078 243.946 431.81C244.235 431.154 244.361 430.437 244.313 429.722C244.265 429.007 244.044 428.314 243.669 427.703C243.264 426.824 242.57 426.111 241.703 425.681C240.811 425.319 239.849 425.161 238.888 425.222C237.786 425.222 236.05 425.444 233.672 425.785C230.619 426.292 227.501 426.26 224.46 425.689C223.191 425.427 221.999 424.876 220.978 424.078C219.956 423.281 219.132 422.259 218.569 421.091C217.947 420.046 217.547 418.883 217.395 417.676C217.242 416.469 217.339 415.243 217.681 414.075C218.395 411.861 219.999 409.858 222.494 408.066L221.257 405.688C221.111 405.462 221.013 405.21 220.966 404.946C220.92 404.682 220.927 404.411 220.987 404.15C221.203 403.637 221.609 403.227 222.121 403.008L224.19 401.922C224.659 401.618 225.229 401.512 225.776 401.629C226.025 401.728 226.252 401.876 226.444 402.064C226.636 402.252 226.788 402.476 226.893 402.723L228.051 404.927C229.526 404.211 231.084 403.678 232.689 403.341C234.018 403.094 235.378 403.067 236.716 403.262C237.239 403.341 237.564 403.492 237.675 403.714C237.789 403.913 237.828 404.146 237.786 404.372L237.564 407.487C237.525 407.868 237.429 408.098 237.271 408.177C237.052 408.252 236.818 408.274 236.589 408.24C235.259 408.12 233.917 408.233 232.625 408.573C231.058 408.965 229.545 409.551 228.122 410.317C226.148 411.348 224.856 412.482 224.246 413.703C223.635 414.923 223.738 416.335 224.579 417.928C224.944 418.724 225.563 419.376 226.339 419.783C227.083 420.125 227.898 420.288 228.717 420.259C229.629 420.259 230.96 420.124 232.728 419.91L235.107 419.625C237.411 419.319 239.738 419.226 242.059 419.347C243.638 419.442 245.166 419.939 246.499 420.79C247.889 421.794 249.006 423.13 249.749 424.675C250.333 425.708 250.7 426.851 250.826 428.031C250.953 429.212 250.837 430.406 250.486 431.54C249.773 433.834 248.076 435.924 245.397 437.811L246.538 439.967C246.697 440.199 246.804 440.461 246.855 440.737C246.905 441.013 246.898 441.296 246.832 441.569C246.6 442.081 246.18 442.484 245.658 442.694L243.597 443.781C243.12 444.085 242.542 444.19 241.988 444.074Z" fill="#BCD3B9"/>
<path d="M269.491 334.038L134.682 474.714C130.841 478.722 130.976 485.085 134.985 488.927L193.408 544.914C197.417 548.755 203.78 548.619 207.621 544.611L342.43 403.936C346.271 399.927 346.135 393.564 342.127 389.723L283.704 333.736C279.695 329.894 273.332 330.03 269.491 334.038Z" fill="#8AB88A"/>
<path d="M257.439 377.473C289.618 371.685 316.715 386.685 339.095 407.376L342.401 403.936C344.244 402.01 345.248 399.431 345.191 396.766C345.135 394.101 344.023 391.567 342.1 389.721L283.704 333.751C282.751 332.836 281.628 332.119 280.397 331.639C279.167 331.159 277.854 330.926 276.534 330.954C275.214 330.982 273.912 331.27 272.703 331.802C271.494 332.333 270.402 333.098 269.489 334.052L219.259 386.471C231.793 382.704 244.543 379.7 257.439 377.473Z" fill="#62A669"/>
<path d="M200.359 550.013C197.174 550.016 194.111 548.786 191.813 546.58L133.385 490.594C131.019 488.325 129.65 485.209 129.58 481.931C129.51 478.653 130.745 475.481 133.013 473.113L267.824 332.435C270.094 330.084 273.201 328.726 276.468 328.656C279.735 328.586 282.897 329.811 285.266 332.062L343.693 388.056C346.048 390.324 347.409 393.432 347.479 396.7C347.548 399.968 346.321 403.131 344.066 405.497L209.286 546.215C208.133 547.42 206.747 548.377 205.212 549.03C203.678 549.683 202.027 550.017 200.359 550.013ZM276.751 333.252C275.707 333.25 274.674 333.46 273.713 333.869C272.753 334.277 271.885 334.877 271.162 335.63L136.39 476.308C134.971 477.792 134.199 479.777 134.242 481.83C134.285 483.882 135.14 485.834 136.62 487.256L195.048 543.242C195.781 543.945 196.646 544.497 197.593 544.866C198.539 545.236 199.549 545.415 200.565 545.393C201.581 545.372 202.583 545.151 203.513 544.742C204.444 544.334 205.285 543.746 205.988 543.012L340.76 402.334C341.463 401.601 342.015 400.736 342.384 399.789C342.753 398.842 342.932 397.832 342.911 396.816C342.89 395.8 342.668 394.799 342.26 393.868C341.851 392.938 341.264 392.097 340.53 391.394L282.102 335.4C280.663 334.019 278.746 333.249 276.751 333.252Z" fill="#0E2C28"/>
<path d="M161.006 490.816C160.744 491.085 160.467 491.347 160.213 491.609L188.483 518.698C188.729 518.404 188.975 518.127 189.276 517.85C190.877 516.179 192.791 514.84 194.909 513.909C197.027 512.978 199.308 512.474 201.621 512.424C203.934 512.375 206.234 512.782 208.39 513.622C210.546 514.461 212.515 515.717 214.185 517.318C214.439 517.556 214.677 517.81 214.915 518.064L315.359 413.243C315.098 413.021 314.836 412.783 314.567 412.545C312.895 410.945 311.555 409.031 310.624 406.913C309.692 404.795 309.187 402.514 309.138 400.201C309.089 397.887 309.496 395.587 310.336 393.431C311.177 391.275 312.434 389.306 314.035 387.636C314.51 387.144 315.01 386.679 315.534 386.241L287.113 359.041C285.648 360.987 283.795 362.608 281.671 363.8C279.547 364.992 277.198 365.729 274.773 365.964C272.349 366.2 269.902 365.929 267.588 365.168C265.274 364.407 263.143 363.174 261.332 361.546L160.911 466.335C164.095 469.608 165.885 473.99 165.903 478.556C165.92 483.123 164.165 487.518 161.006 490.816Z" fill="#BCD3B9"/>
<path d="M248.52 379.906C252.635 380.192 257.138 380.842 260.491 380.398C279.653 377.536 296.412 382.443 311.879 390.324C312.499 389.362 313.211 388.462 314.004 387.636C314.478 387.144 314.978 386.679 315.502 386.241L287.113 359.041C285.648 360.987 283.795 362.608 281.671 363.8C279.547 364.992 277.198 365.729 274.773 365.964C272.349 366.2 269.902 365.929 267.588 365.168C265.274 364.407 263.143 363.174 261.332 361.546L243.32 380.342C245.043 380.093 246.78 379.947 248.52 379.906Z" fill="#A8C7A5"/>
<path d="M185.177 481.818C186.428 480.516 188.037 479.613 189.801 479.225C191.564 478.837 193.403 478.98 195.085 479.637C196.767 480.294 198.217 481.434 199.251 482.915C200.285 484.395 200.857 486.149 200.895 487.954C200.932 489.759 200.434 491.535 199.463 493.057C198.491 494.58 197.09 495.78 195.437 496.506C193.784 497.232 191.953 497.452 190.174 497.138C188.396 496.823 186.751 495.989 185.447 494.74C183.698 493.062 182.687 490.758 182.637 488.335C182.586 485.912 183.5 483.567 185.177 481.818Z" fill="#66A86D"/>
<path d="M244.835 465.693C259.751 460.983 268.024 445.073 263.314 430.157C258.603 415.241 242.693 406.968 227.777 411.678C212.862 416.388 204.588 432.299 209.299 447.214C214.009 462.13 229.919 470.404 244.835 465.693Z" fill="#66A86D"/>
<path d="M288.543 400.099C292.692 397.223 293.724 391.528 290.848 387.379C287.972 383.23 282.277 382.199 278.128 385.075C273.979 387.951 272.948 393.646 275.824 397.794C278.7 401.943 284.395 402.975 288.543 400.099Z" fill="#66A86D"/>
<path d="M252.421 456.631C252.158 456.622 251.9 456.558 251.663 456.445C251.426 456.332 251.214 456.171 251.041 455.973L249.281 454.285C245.841 457.308 242.841 459.084 240.283 459.612C239.736 459.723 239.372 459.692 239.197 459.517C239.051 459.336 238.955 459.12 238.92 458.891L238.127 455.72C238.04 455.347 238.064 455.093 238.183 454.967C238.375 454.808 238.604 454.699 238.849 454.649C240.482 454.113 242.043 453.375 243.494 452.453C244.989 451.524 246.362 450.413 247.585 449.148C249.313 447.332 250.265 445.731 250.423 444.343C250.487 443.627 250.376 442.906 250.1 442.242C249.824 441.577 249.39 440.99 248.838 440.53C248.174 439.827 247.29 439.371 246.332 439.238C245.372 439.175 244.41 439.33 243.518 439.69C242.487 440.078 240.894 440.8 238.761 441.87C236.024 443.334 233.051 444.306 229.977 444.74C228.69 444.894 227.385 444.749 226.163 444.317C224.941 443.886 223.834 443.178 222.93 442.25C222.014 441.458 221.271 440.486 220.745 439.395C220.218 438.305 219.921 437.118 219.869 435.908C219.869 433.583 220.757 431.178 222.533 428.694L220.615 426.855C220.407 426.687 220.234 426.479 220.108 426.243C219.981 426.008 219.903 425.749 219.877 425.483C219.919 424.93 220.175 424.415 220.591 424.048L222.176 422.36C222.523 421.919 223.031 421.634 223.588 421.567C224.124 421.602 224.626 421.847 224.983 422.249L226.782 423.969C227.962 422.836 229.278 421.853 230.699 421.044C231.876 420.381 233.158 419.923 234.488 419.688C235.012 419.601 235.36 419.64 235.543 419.815C235.714 419.969 235.824 420.18 235.852 420.409L236.645 423.422C236.732 423.802 236.708 424.048 236.589 424.175C236.405 424.321 236.187 424.417 235.955 424.453C234.647 424.767 233.403 425.303 232.276 426.038C230.916 426.908 229.668 427.941 228.558 429.114C227.02 430.7 226.18 432.206 225.958 433.554C225.736 434.901 226.307 436.209 227.615 437.462C228.215 438.097 229.005 438.52 229.866 438.667C230.691 438.756 231.526 438.648 232.3 438.35C233.156 438.049 234.388 437.52 235.995 436.764L238.143 435.742C240.232 434.72 242.41 433.895 244.652 433.276C246.183 432.884 247.789 432.884 249.321 433.276C250.959 433.789 252.442 434.705 253.634 435.94C254.513 436.735 255.222 437.701 255.715 438.78C256.208 439.858 256.477 441.025 256.504 442.211C256.551 444.589 255.608 447.126 253.666 449.774L255.426 451.455C255.839 451.786 256.104 452.268 256.163 452.794C256.094 453.357 255.81 453.872 255.37 454.229L253.784 455.918C253.43 456.312 252.946 456.565 252.421 456.631Z" fill="#BCD3B9"/>
<path d="M168.513 535.353L238.555 571.026C244.072 573.836 250.822 571.641 253.632 566.125L341.007 394.568C343.816 389.051 341.622 382.301 336.105 379.491L266.062 343.818C260.546 341.008 253.796 343.203 250.986 348.72L163.611 520.277C160.801 525.793 162.996 532.543 168.513 535.353Z" fill="#8AB88A"/>
<path d="M252.524 392.757C281.658 377.925 311.935 384.449 339.373 397.792L341.537 393.534C342.735 391.163 342.945 388.413 342.12 385.887C341.296 383.361 339.504 381.265 337.137 380.057L265.066 343.264C262.695 342.063 259.946 341.851 257.419 342.674C254.893 343.498 252.796 345.289 251.588 347.656L218.633 412.355C229.523 405.144 240.841 398.599 252.524 392.757Z" fill="#62A669"/>
<path d="M244.128 574.961C242.199 574.953 240.298 574.491 238.579 573.613L166.436 536.884C164.986 536.149 163.695 535.134 162.637 533.898C161.58 532.662 160.778 531.229 160.276 529.682C159.774 528.135 159.583 526.504 159.714 524.883C159.845 523.262 160.294 521.683 161.037 520.236L249.464 346.618C250.202 345.169 251.218 343.881 252.454 342.825C253.69 341.769 255.122 340.968 256.668 340.466C258.214 339.963 259.844 339.771 261.464 339.899C263.085 340.027 264.664 340.473 266.112 341.211L338.255 377.94C339.702 378.679 340.99 379.695 342.045 380.932C343.1 382.168 343.901 383.6 344.402 385.146C344.904 386.692 345.095 388.322 344.967 389.942C344.839 391.562 344.392 393.141 343.654 394.589L255.227 568.207C254.185 570.251 252.595 571.965 250.635 573.158C248.676 574.35 246.423 574.975 244.128 574.961ZM260.483 344.509C259.053 344.507 257.651 344.901 256.431 345.647C255.211 346.393 254.221 347.461 253.57 348.734L165.176 522.36C164.253 524.183 164.088 526.296 164.716 528.239C165.344 530.183 166.715 531.8 168.529 532.738L240.672 569.467C242.501 570.397 244.625 570.563 246.577 569.928C248.528 569.294 250.148 567.91 251.081 566.082L339.507 392.464C340.415 390.636 340.566 388.524 339.926 386.585C339.286 384.647 337.908 383.039 336.09 382.11L263.948 345.389C262.878 344.827 261.691 344.526 260.483 344.509Z" fill="#0E2C28"/>
<path d="M192.923 529.123C192.749 529.464 192.566 529.789 192.376 530.114L227.258 547.888C227.401 547.539 227.559 547.198 227.734 546.857C228.783 544.795 230.229 542.96 231.988 541.456C233.747 539.953 235.785 538.811 237.985 538.095C240.186 537.38 242.506 537.105 244.813 537.286C247.12 537.467 249.368 538.101 251.43 539.152C251.739 539.31 252.048 539.477 252.342 539.651L318.229 410.286C317.912 410.143 317.603 410 317.286 409.842C313.124 407.719 309.975 404.031 308.532 399.587C307.088 395.144 307.468 390.309 309.588 386.146C309.895 385.536 310.24 384.946 310.619 384.378L275.586 366.54C275.354 367.177 275.09 367.802 274.793 368.411C272.715 372.474 269.141 375.571 264.824 377.05C260.507 378.529 255.785 378.274 251.652 376.339L185.788 505.72C189.777 507.937 192.75 511.615 194.081 515.981C195.412 520.346 194.997 525.058 192.923 529.123Z" fill="#BCD3B9"/>
<path d="M244.683 397.665C248.711 396.745 253.206 396.079 256.29 394.676C273.81 386.399 291.267 386.265 308.359 389.341C308.673 388.245 309.092 387.183 309.612 386.169C309.919 385.56 310.263 384.969 310.642 384.402L275.61 366.564C275.378 367.201 275.114 367.826 274.817 368.435C272.739 372.498 269.164 375.595 264.848 377.073C260.531 378.552 255.808 378.298 251.676 376.363L239.832 399.552C241.411 398.83 243.031 398.2 244.683 397.665Z" fill="#A8C7A5"/>
<path d="M280.575 460.266C282.162 444.645 270.785 430.696 255.164 429.109C239.544 427.523 225.595 438.899 224.008 454.52C222.421 470.14 233.798 484.09 249.418 485.676C265.039 487.263 278.988 475.886 280.575 460.266Z" fill="#66A86D"/>
<path d="M286.105 407.728C290.528 405.296 292.143 399.738 289.711 395.315C287.279 390.891 281.721 389.276 277.297 391.708C272.874 394.14 271.259 399.698 273.691 404.122C276.123 408.546 281.681 410.16 286.105 407.728Z" fill="#66A86D"/>
<path d="M270.615 470.006C270.36 470.073 270.095 470.088 269.834 470.048C269.574 470.009 269.324 469.916 269.101 469.776L266.929 468.666C264.513 472.55 262.154 475.116 259.849 476.364C259.358 476.633 259.001 476.705 258.787 476.594C258.595 476.459 258.44 476.28 258.335 476.07L256.63 473.28C256.44 472.947 256.385 472.709 256.464 472.55C256.603 472.339 256.794 472.166 257.019 472.051C259.864 470.032 262.183 467.359 263.781 464.258C264.923 462.022 265.367 460.217 265.113 458.843C264.967 458.146 264.655 457.493 264.204 456.942C263.753 456.39 263.175 455.954 262.521 455.672C261.682 455.187 260.704 455.003 259.746 455.149C258.806 455.366 257.927 455.794 257.177 456.402C256.305 457.067 254.989 458.217 253.214 459.866C251.015 462.045 248.449 463.819 245.635 465.106C244.448 465.625 243.158 465.864 241.864 465.803C240.57 465.743 239.308 465.385 238.175 464.757C237.065 464.26 236.07 463.54 235.252 462.641C234.433 461.742 233.809 460.684 233.418 459.533C232.72 457.313 232.874 454.753 233.878 451.851L231.499 450.654C230.998 450.448 230.599 450.052 230.39 449.552C230.269 449.008 230.369 448.437 230.667 447.966L231.721 445.889C231.828 445.63 231.986 445.395 232.185 445.198C232.383 445.001 232.619 444.845 232.879 444.74C233.139 444.679 233.409 444.67 233.673 444.713C233.937 444.757 234.19 444.852 234.417 444.993L236.637 446.119C237.434 444.684 238.406 443.352 239.53 442.155C240.474 441.191 241.57 440.388 242.773 439.777C242.923 439.672 243.095 439.601 243.276 439.569C243.457 439.538 243.642 439.547 243.819 439.595C244.026 439.693 244.192 439.862 244.287 440.07L245.873 442.734C246.063 443.075 246.11 443.313 246.031 443.471C245.897 443.663 245.717 443.818 245.508 443.923C244.344 444.595 243.306 445.464 242.44 446.492C241.39 447.718 240.492 449.068 239.768 450.511C238.761 452.501 238.357 454.166 238.563 455.522C238.769 456.877 239.665 457.955 241.274 458.772C242.032 459.209 242.912 459.387 243.78 459.279C244.595 459.13 245.363 458.784 246.015 458.272C246.745 457.733 247.775 456.869 249.091 455.68L250.859 454.095C252.572 452.512 254.43 451.095 256.408 449.861C257.751 449.027 259.285 448.549 260.864 448.474C262.58 448.49 264.265 448.937 265.763 449.774C266.835 450.281 267.792 451.002 268.576 451.892C269.36 452.783 269.954 453.823 270.322 454.951C271.046 457.229 270.879 459.903 269.822 462.974L271.994 464.084C272.484 464.281 272.877 464.662 273.089 465.146C273.19 465.694 273.079 466.261 272.779 466.731L271.717 468.808C271.522 469.337 271.126 469.767 270.615 470.006Z" fill="#BCD3B9"/>
</g>
<path d="M355.442 324.047C355.442 324.047 268.11 382.967 268.966 399.226C269.822 415.486 285.139 429.986 315.93 400.257C346.721 370.528 374.215 394.557 426.181 383.41C478.148 372.264 483.261 337.509 483.261 337.509L462.269 255.694L444.185 260.594" fill="#FABFAE"/>
<path d="M326.799 355.79C337.628 348.402 347.713 340.212 353.5 328.622C354.11 327.481 354.356 326.181 354.205 324.896C343.511 332.189 268.181 384.116 268.982 399.226C269.22 403.714 270.813 407.511 272.7 411.499C275.871 397.126 287.763 384.695 298.656 375.403C306.98 368.284 317.183 362.354 326.799 355.79Z" fill="#FDDFD4"/>
<path d="M462.245 255.694L445.359 260.268C446.993 266.088 447.302 272.199 446.263 278.154C441.997 298.06 448.395 316.207 446.263 335.376C444.13 354.545 428.821 369.846 408.947 373.429C383.578 377.591 357.955 375.998 335.258 387.818C359.43 379.137 385.203 392.226 426.197 383.434C478.172 372.288 483.277 337.532 483.277 337.532L462.245 255.694Z" fill="#F7A08B"/>
<path d="M285.218 419.775C282.952 419.794 280.703 419.382 278.59 418.562C271.725 415.851 267.158 408.494 266.699 399.345C266.548 396.499 267.816 391.283 280.548 378.955C287.747 371.987 297.831 363.496 310.508 353.705C332.047 337.057 353.975 322.28 354.189 322.129C354.441 321.959 354.723 321.841 355.021 321.78C355.318 321.72 355.624 321.718 355.922 321.776C356.22 321.834 356.503 321.95 356.756 322.117C357.009 322.284 357.227 322.5 357.396 322.751C357.566 323.003 357.684 323.285 357.745 323.582C357.806 323.88 357.807 324.186 357.749 324.484C357.691 324.781 357.576 325.065 357.408 325.318C357.241 325.571 357.025 325.788 356.774 325.958C356.56 326.109 334.735 340.854 313.322 357.376C274.983 386.954 271.17 396.412 271.305 399.1C271.606 404.839 274.127 411.832 280.295 414.257C281.866 414.868 283.54 415.172 285.226 415.153C293.003 415.153 303.119 409.453 314.36 398.6C323.081 390.165 332.142 385.337 342.813 383.403C352.382 381.674 362.062 382.396 373.264 383.236C388.104 384.354 404.919 385.614 425.73 381.151C440.079 378.075 459.819 371.059 472.218 355.1C478.679 346.8 480.518 339.396 480.891 337.588L460.604 258.54L444.748 262.821C444.169 262.945 443.564 262.841 443.059 262.533C442.553 262.224 442.185 261.733 442.031 261.161C441.877 260.589 441.947 259.979 442.229 259.458C442.51 258.937 442.98 258.543 443.543 258.358L461.619 253.467C461.914 253.388 462.223 253.368 462.526 253.409C462.829 253.449 463.122 253.549 463.386 253.703C463.651 253.857 463.882 254.062 464.067 254.306C464.252 254.55 464.387 254.827 464.465 255.123L485.457 336.922C485.537 337.219 485.553 337.53 485.505 337.834C485.449 338.206 484.062 347.236 475.992 357.653C471.066 363.954 465.042 369.312 458.21 373.469C449.37 378.947 438.747 383.038 426.633 385.638C405.181 390.236 388.009 388.952 372.859 387.81C361.967 387.018 352.564 386.288 343.574 387.921C333.847 389.681 325.562 394.121 317.508 401.89C303.166 415.811 292.599 419.775 285.218 419.775Z" fill="#0E2C28"/>
<path d="M528.789 337.571L475.407 355.194L444.169 260.573L497.551 242.95L528.789 337.571Z" fill="white"/>
<path d="M470.093 291.234C480.764 281.919 493.195 275.197 506.363 269.687L497.547 242.962L444.162 260.594L460.017 308.541C461.967 301.818 464.702 295.523 470.093 291.234Z" fill="#D1E5F6"/>
<path d="M475.405 357.534C475.045 357.532 474.69 357.448 474.366 357.289C473.821 357.011 473.408 356.53 473.217 355.949L441.974 261.315C441.791 260.739 441.842 260.114 442.116 259.575C442.391 259.037 442.866 258.628 443.44 258.437L496.818 240.814C497.106 240.717 497.41 240.679 497.713 240.7C498.015 240.722 498.311 240.803 498.582 240.939C498.853 241.076 499.095 241.264 499.293 241.494C499.491 241.725 499.641 241.992 499.735 242.28L530.979 336.906C531.074 337.194 531.112 337.498 531.09 337.8C531.068 338.103 530.986 338.398 530.85 338.669C530.714 338.94 530.526 339.181 530.296 339.38C530.066 339.578 529.8 339.729 529.512 339.824L476.134 357.447C475.897 357.515 475.651 357.544 475.405 357.534ZM447.079 262.06L476.88 352.294L525.889 336.129L496.073 245.888L447.079 262.06Z" fill="#0E2C28"/>
<path d="M489.746 338.508C486.918 338.508 484.194 337.443 482.115 335.526C480.037 333.608 478.757 330.977 478.531 328.158C478.304 325.339 479.148 322.539 480.894 320.314C482.64 318.089 485.159 316.603 487.951 316.152C490.743 315.702 493.602 316.319 495.96 317.882C498.317 319.444 499.999 321.837 500.671 324.584C501.344 327.331 500.956 330.231 499.587 332.705C498.218 335.18 495.967 337.047 493.282 337.937C492.142 338.316 490.948 338.509 489.746 338.508ZM489.746 320.646C489.04 320.645 488.339 320.757 487.669 320.979C486.844 321.252 486.08 321.685 485.421 322.252C484.763 322.82 484.223 323.512 483.832 324.289C483.441 325.066 483.207 325.912 483.143 326.779C483.079 327.646 483.187 328.518 483.46 329.343C483.846 330.498 484.544 331.524 485.476 332.308C486.408 333.092 487.538 333.604 488.742 333.787C489.946 333.97 491.178 333.817 492.301 333.345C493.424 332.874 494.395 332.101 495.107 331.113C495.819 330.125 496.245 328.96 496.338 327.746C496.43 326.531 496.186 325.315 495.632 324.23C495.078 323.146 494.235 322.235 493.197 321.598C492.158 320.962 490.964 320.624 489.746 320.623V320.646Z" fill="#0E2C28"/>
<path d="M485.901 241.234L520.348 344.572L578.418 325.324L543.972 221.985L485.901 241.234Z" fill="#122E4E"/>
<path d="M578.418 325.324L520.34 344.572L495.597 270.329C515.189 264.452 534.911 259.124 554.762 254.346L578.418 325.324Z" fill="#364461"/>
<path d="M520.34 346.879C519.854 346.879 519.382 346.725 518.989 346.44C518.596 346.156 518.303 345.755 518.151 345.294L483.705 241.963C483.616 241.673 483.584 241.369 483.613 241.067C483.641 240.765 483.729 240.471 483.872 240.203C484.148 239.656 484.63 239.24 485.212 239.046L543.282 219.797C543.863 219.604 544.496 219.649 545.043 219.923C545.59 220.196 546.006 220.676 546.2 221.256L580.591 324.586C580.784 325.169 580.738 325.804 580.463 326.353C580.188 326.901 579.706 327.318 579.124 327.512L521.053 346.76C520.823 346.837 520.582 346.877 520.34 346.879ZM488.819 242.701L521.814 341.679L575.501 323.889L542.537 224.903L488.819 242.701Z" fill="#0E2C28"/>
<path d="M98.1464 294.929C132.596 294.929 160.522 267.002 160.522 232.553C160.522 198.104 132.596 170.177 98.1464 170.177C63.6973 170.177 35.7708 198.104 35.7708 232.553C35.7708 267.002 63.6973 294.929 98.1464 294.929Z" fill="#ACE3AB"/>
<path d="M138.364 184.883C139.769 194.598 139.068 204.502 136.309 213.922C133.55 223.343 128.797 232.059 122.372 239.481C115.948 246.903 108.002 252.856 99.0742 256.936C90.1463 261.017 80.4453 263.129 70.6292 263.131C60.1322 263.137 49.7758 260.717 40.3689 256.059C43.9377 264.821 49.4529 272.657 56.4971 278.972C63.5414 285.288 71.93 289.919 81.0282 292.514C90.1264 295.109 99.6957 295.6 109.012 293.951C118.328 292.301 127.147 288.554 134.801 282.993C142.455 277.432 148.744 270.202 153.191 261.852C157.638 253.501 160.128 244.248 160.471 234.794C160.815 225.339 159.003 215.93 155.173 207.279C151.342 198.628 145.595 190.961 138.364 184.86V184.883Z" fill="#386737"/>
<path d="M98.1463 297.236C85.3519 297.242 72.8431 293.454 62.2019 286.35C51.5607 279.247 43.2652 269.147 38.3647 257.328C33.4642 245.509 32.1787 232.503 34.6709 219.954C37.1631 207.404 43.3211 195.876 52.3658 186.827C61.4106 177.778 72.9359 171.614 85.4839 169.116C98.032 166.617 111.039 167.896 122.86 172.791C134.681 177.686 144.785 185.976 151.894 196.614C159.003 207.252 162.797 219.759 162.797 232.553C162.778 249.697 155.962 266.133 143.842 278.259C131.723 290.384 115.29 297.208 98.1463 297.236ZM98.1463 172.492C86.2674 172.492 74.6553 176.015 64.7783 182.614C54.9014 189.214 47.2032 198.594 42.6574 209.569C38.1115 220.544 36.9221 232.62 39.2396 244.27C41.557 255.921 47.2773 266.623 55.6769 275.022C64.0766 283.422 74.7784 289.142 86.429 291.46C98.0797 293.777 110.156 292.588 121.131 288.042C132.105 283.496 141.485 275.798 148.085 265.921C154.685 256.044 158.207 244.432 158.207 232.553C158.188 216.63 151.854 201.364 140.595 190.105C129.335 178.845 114.07 172.511 98.1463 172.492Z" fill="#0E2C28"/>
<path d="M59.3558 205.868C56.9774 209.999 53.3941 212.393 51.3725 211.227C49.3509 210.062 49.6363 205.765 52.0226 201.627C54.4088 197.489 57.9843 195.094 60.0058 196.268C62.0274 197.441 61.742 201.73 59.3558 205.868ZM53.4496 226.457C52.2763 232.466 48.9466 236.882 45.9975 236.311C43.0483 235.74 41.6055 230.397 42.7709 224.419C43.9363 218.442 47.2738 213.994 50.223 214.565C53.1721 215.136 54.615 220.439 53.4496 226.457Z" fill="white"/>
<path d="M278.5 129V112.578C278.5 112.229 278.616 111.89 278.829 111.614C279.043 111.338 279.342 111.14 279.68 111.053C280.018 110.965 280.375 110.992 280.696 111.13C281.017 111.268 281.283 111.508 281.452 111.813L290.548 128.187C290.717 128.492 290.983 128.732 291.304 128.87C291.625 129.008 291.982 129.035 292.32 128.947C292.658 128.86 292.957 128.662 293.171 128.386C293.384 128.11 293.5 127.771 293.5 127.422V111M275.5 117H296.5M275.5 123H296.5" stroke="#2C130E" stroke-width="3" stroke-linecap="round" stroke-linejoin="round"/>
<path d="M329.458 41.75V28.5212C329.458 28.24 329.552 27.9668 329.724 27.7444C329.896 27.5221 330.137 27.3631 330.409 27.2926C330.681 27.2221 330.969 27.2439 331.227 27.3548C331.486 27.4656 331.7 27.6591 331.836 27.9049L339.164 41.0951C339.3 41.3409 339.514 41.5344 339.773 41.6452C340.031 41.7561 340.319 41.7779 340.591 41.7074C340.863 41.6369 341.104 41.4779 341.276 41.2556C341.448 41.0332 341.542 40.76 341.542 40.4788V27.25M327.042 32.0833H343.958M327.042 36.9167H343.958" stroke="#205B53" stroke-width="2.41667" stroke-linecap="round" stroke-linejoin="round"/>
</svg>
