<svg width="133" height="143" viewBox="0 0 133 143" fill="none" xmlns="http://www.w3.org/2000/svg">
<path d="M10.2553 -3.58857C10.4685 -3.7196 10.7201 -3.77405 10.9684 -3.74292C11.2167 -3.71179 11.4469 -3.59693 11.6212 -3.41732C43.1586 28.4777 119.893 45.2124 163.564 53.6621C220.953 64.7653 378.219 78.5433 409.452 127.599C409.535 127.734 409.576 127.89 409.57 128.048C409.564 128.206 409.511 128.358 409.419 128.486C409.34 128.595 409.238 128.683 409.119 128.746C409.001 128.808 408.87 128.842 408.736 128.844C408.602 128.847 408.469 128.819 408.348 128.762C408.227 128.705 408.121 128.62 408.038 128.515C383.254 98.0502 275.658 83.308 234.612 73.1276C175.728 61.8966 115.241 53.0203 59.7405 29.3087C42.1729 21.4372 22.9586 12.7351 9.99712 -1.93448C9.89186 -2.05453 9.81425 -2.19623 9.76975 -2.34957C9.72525 -2.5029 9.71495 -2.66413 9.73957 -2.82188C9.7642 -2.97963 9.82315 -3.13005 9.91227 -3.26253C10.0014 -3.395 10.1185 -3.5063 10.2553 -3.58857Z" fill="#98B897"/>
<path d="M25.8153 26.1282C54.1574 42.115 84.6321 54.8664 116.557 61.1521C116.622 61.1712 116.679 61.2131 116.715 61.2703C116.752 61.3275 116.767 61.3961 116.757 61.4634C116.748 61.5307 116.714 61.5922 116.662 61.6366C116.611 61.6811 116.545 61.7054 116.477 61.7051C83.3726 59.1707 51.7412 46.9711 25.5081 26.6204C25.4758 26.6002 25.4478 26.5739 25.4257 26.5429C25.4035 26.5119 25.3877 26.4768 25.3791 26.4397C25.3705 26.4026 25.3693 26.3642 25.3756 26.3266C25.3819 26.289 25.3955 26.2531 25.4156 26.2207C25.4358 26.1884 25.4621 26.1604 25.4931 26.1383C25.5241 26.1161 25.5592 26.1003 25.5963 26.0917C25.6334 26.0831 25.6718 26.0819 25.7094 26.0882C25.747 26.0944 25.7829 26.1081 25.8153 26.1282Z" fill="#98B897"/>
<path d="M125.124 60.5754C128.291 60.6249 131.433 61.1389 134.451 62.1011C134.715 62.1861 134.938 62.3654 135.078 62.6046C135.219 62.8438 135.266 63.1263 135.211 63.3981C135.156 63.67 135.003 63.9121 134.781 64.0783C134.56 64.2446 134.284 64.3233 134.008 64.2995C130.885 64.0678 127.788 63.5638 124.753 62.7934C124.48 62.723 124.242 62.5527 124.088 62.3159C123.934 62.0791 123.875 61.7931 123.921 61.5145C123.968 61.2359 124.117 60.9849 124.34 60.811C124.562 60.6371 124.842 60.5531 125.124 60.5754Z" fill="#98B897"/>
</svg>
