<svg width="560" height="312" viewBox="0 0 560 312" fill="none" xmlns="http://www.w3.org/2000/svg">
<rect width="560" height="312" fill="#18BFFF"/>
<path d="M200.19 131.997C200.19 129.406 200.858 127.118 202.194 125.135C203.53 123.151 205.372 121.612 207.721 120.519C210.109 119.386 212.862 118.819 215.979 118.819C218.975 118.819 221.566 119.345 223.753 120.398C225.979 121.45 227.7 122.948 228.914 124.892C230.169 126.835 230.837 129.143 230.918 131.815H223.145C223.064 129.912 222.376 128.434 221.081 127.381C219.785 126.288 218.044 125.742 215.858 125.742C213.469 125.742 211.546 126.288 210.089 127.381C208.672 128.434 207.963 129.892 207.963 131.754C207.963 133.333 208.389 134.588 209.239 135.519C210.129 136.41 211.506 137.078 213.368 137.523L220.352 139.102C224.157 139.912 226.991 141.308 228.854 143.292C230.716 145.235 231.647 147.867 231.647 151.187C231.647 153.899 230.979 156.288 229.643 158.352C228.307 160.417 226.404 162.016 223.935 163.15C221.506 164.243 218.651 164.789 215.372 164.789C212.255 164.789 209.522 164.263 207.174 163.211C204.826 162.117 202.984 160.599 201.648 158.656C200.352 156.713 199.664 154.425 199.583 151.794H207.356C207.397 153.656 208.125 155.134 209.542 156.227C211 157.28 212.963 157.806 215.433 157.806C218.024 157.806 220.068 157.28 221.566 156.227C223.105 155.134 223.874 153.697 223.874 151.915C223.874 150.377 223.469 149.162 222.659 148.272C221.85 147.34 220.534 146.693 218.712 146.328L211.668 144.749C207.903 143.94 205.049 142.482 203.105 140.377C201.162 138.231 200.19 135.438 200.19 131.997ZM256.108 164.729C251.776 164.729 248.011 163.798 244.813 161.935C241.655 160.032 239.185 157.381 237.404 153.98C235.663 150.539 234.793 146.49 234.793 141.835C234.793 137.219 235.683 133.191 237.465 129.75C239.286 126.309 241.837 123.637 245.116 121.734C248.395 119.831 252.181 118.88 256.472 118.88C259.994 118.88 263.152 119.527 265.946 120.823C268.739 122.118 271.047 123.94 272.869 126.288C274.69 128.596 275.844 131.349 276.33 134.547H268.132C267.363 131.956 265.925 129.952 263.82 128.535C261.755 127.078 259.225 126.349 256.229 126.349C253.557 126.349 251.209 126.977 249.185 128.232C247.201 129.487 245.663 131.268 244.57 133.576C243.477 135.883 242.93 138.636 242.93 141.835C242.93 144.911 243.477 147.624 244.57 149.972C245.663 152.28 247.201 154.081 249.185 155.377C251.209 156.632 253.557 157.259 256.229 157.259C259.266 157.259 261.857 156.531 264.002 155.073C266.189 153.616 267.646 151.652 268.375 149.183H276.451C275.885 152.259 274.65 154.972 272.747 157.32C270.885 159.668 268.516 161.49 265.642 162.785C262.808 164.081 259.63 164.729 256.108 164.729ZM289.616 164H282.086V119.608H289.616L303.948 154.952L318.28 119.608H325.931V164H318.401V150.336C318.401 148.11 318.401 146.247 318.401 144.749C318.401 143.211 318.421 141.916 318.462 140.863C318.502 139.81 318.543 138.879 318.583 138.069C318.624 137.26 318.705 136.45 318.826 135.64L307.531 164H300.365L289.131 135.701C289.333 137.037 289.455 138.737 289.495 140.802C289.576 142.867 289.616 145.296 289.616 148.089V164ZM342.193 119.608V164H334.42V119.608H342.193ZM335.756 164V156.834H360.715V164H335.756Z" fill="white"/>
<path d="M200.82 192H198.516V174.648H200.82L206.796 189.24L212.772 174.648H215.124V192H212.82V185.136C212.82 184.32 212.82 183.624 212.82 183.048C212.82 182.472 212.828 181.976 212.844 181.56C212.86 181.144 212.876 180.776 212.892 180.456C212.908 180.12 212.932 179.8 212.964 179.496L207.9 192H205.692L200.652 179.544C200.716 179.96 200.756 180.6 200.772 181.464C200.804 182.328 200.82 183.368 200.82 184.584V192ZM221.684 192.288C220.436 192.288 219.452 191.96 218.732 191.304C218.028 190.648 217.676 189.792 217.676 188.736C217.676 187.664 218.06 186.808 218.828 186.168C219.596 185.512 220.668 185.128 222.044 185.016L225.74 184.728V184.392C225.74 183.736 225.62 183.216 225.38 182.832C225.14 182.432 224.812 182.152 224.396 181.992C223.98 181.816 223.508 181.728 222.98 181.728C222.036 181.728 221.3 181.928 220.772 182.328C220.26 182.712 220.004 183.264 220.004 183.984H218.036C218.036 183.168 218.244 182.456 218.66 181.848C219.076 181.24 219.66 180.768 220.412 180.432C221.18 180.096 222.068 179.928 223.076 179.928C224.052 179.928 224.9 180.104 225.62 180.456C226.356 180.792 226.924 181.312 227.324 182.016C227.74 182.704 227.948 183.576 227.948 184.632V192H226.028L225.788 190.104C225.484 190.776 224.956 191.312 224.204 191.712C223.468 192.096 222.628 192.288 221.684 192.288ZM222.332 190.536C223.404 190.536 224.244 190.216 224.852 189.576C225.46 188.92 225.764 188.04 225.764 186.936V186.312L222.764 186.552C221.772 186.648 221.052 186.88 220.604 187.248C220.172 187.616 219.956 188.088 219.956 188.664C219.956 189.288 220.164 189.76 220.58 190.08C221.012 190.384 221.596 190.536 222.332 190.536ZM232.801 192H230.545V180.264H232.585L232.825 182.064C233.193 181.392 233.721 180.872 234.409 180.504C235.113 180.12 235.881 179.928 236.713 179.928C238.249 179.928 239.385 180.368 240.121 181.248C240.857 182.128 241.225 183.32 241.225 184.824V192H238.969V185.328C238.969 184.144 238.713 183.296 238.201 182.784C237.689 182.256 237.001 181.992 236.137 181.992C235.081 181.992 234.257 182.336 233.665 183.024C233.089 183.712 232.801 184.632 232.801 185.784V192ZM247.253 192.288C246.005 192.288 245.021 191.96 244.301 191.304C243.597 190.648 243.245 189.792 243.245 188.736C243.245 187.664 243.629 186.808 244.397 186.168C245.165 185.512 246.237 185.128 247.613 185.016L251.309 184.728V184.392C251.309 183.736 251.189 183.216 250.949 182.832C250.709 182.432 250.381 182.152 249.965 181.992C249.549 181.816 249.077 181.728 248.549 181.728C247.605 181.728 246.869 181.928 246.341 182.328C245.829 182.712 245.573 183.264 245.573 183.984H243.605C243.605 183.168 243.813 182.456 244.229 181.848C244.645 181.24 245.229 180.768 245.981 180.432C246.749 180.096 247.637 179.928 248.645 179.928C249.621 179.928 250.469 180.104 251.189 180.456C251.925 180.792 252.493 181.312 252.893 182.016C253.309 182.704 253.517 183.576 253.517 184.632V192H251.597L251.357 190.104C251.053 190.776 250.525 191.312 249.773 191.712C249.037 192.096 248.197 192.288 247.253 192.288ZM247.901 190.536C248.973 190.536 249.813 190.216 250.421 189.576C251.029 188.92 251.333 188.04 251.333 186.936V186.312L248.333 186.552C247.341 186.648 246.621 186.88 246.173 187.248C245.741 187.616 245.525 188.088 245.525 188.664C245.525 189.288 245.733 189.76 246.149 190.08C246.581 190.384 247.165 190.536 247.901 190.536ZM255.37 185.832C255.37 184.728 255.594 183.736 256.042 182.856C256.49 181.96 257.13 181.248 257.962 180.72C258.794 180.192 259.778 179.928 260.914 179.928C261.97 179.928 262.874 180.184 263.626 180.696C264.378 181.192 264.914 181.888 265.234 182.784L264.946 183.096L265.186 180.264H267.202V191.52C267.202 192.752 266.962 193.816 266.482 194.712C266.002 195.624 265.322 196.328 264.442 196.824C263.562 197.32 262.522 197.568 261.322 197.568C259.722 197.568 258.41 197.144 257.386 196.296C256.362 195.448 255.738 194.28 255.514 192.792H257.77C257.914 193.656 258.298 194.328 258.922 194.808C259.546 195.288 260.346 195.528 261.322 195.528C262.426 195.528 263.306 195.192 263.962 194.52C264.634 193.864 264.97 192.976 264.97 191.856V188.544L265.258 188.856C264.954 189.736 264.402 190.432 263.602 190.944C262.802 191.44 261.874 191.688 260.818 191.688C259.698 191.688 258.73 191.432 257.914 190.92C257.098 190.392 256.466 189.688 256.018 188.808C255.586 187.928 255.37 186.936 255.37 185.832ZM257.626 185.784C257.626 186.52 257.77 187.184 258.058 187.776C258.362 188.368 258.778 188.84 259.306 189.192C259.85 189.544 260.482 189.72 261.202 189.72C261.97 189.72 262.626 189.552 263.17 189.216C263.714 188.88 264.13 188.416 264.418 187.824C264.722 187.232 264.874 186.552 264.874 185.784C264.874 185.016 264.73 184.344 264.442 183.768C264.154 183.192 263.738 182.736 263.194 182.4C262.65 182.064 261.994 181.896 261.226 181.896C260.474 181.896 259.826 182.072 259.282 182.424C258.754 182.776 258.346 183.248 258.058 183.84C257.77 184.416 257.626 185.064 257.626 185.784ZM274.994 192.288C273.858 192.288 272.85 192.032 271.97 191.52C271.09 190.992 270.402 190.272 269.906 189.36C269.41 188.432 269.162 187.36 269.162 186.144C269.162 184.912 269.402 183.832 269.882 182.904C270.378 181.976 271.05 181.248 271.898 180.72C272.762 180.192 273.762 179.928 274.898 179.928C276.018 179.928 276.986 180.168 277.802 180.648C278.634 181.128 279.274 181.8 279.722 182.664C280.186 183.528 280.418 184.544 280.418 185.712V186.552L270.362 186.576L270.41 185.064H278.162C278.162 184.088 277.866 183.304 277.274 182.712C276.682 182.12 275.89 181.824 274.898 181.824C274.146 181.824 273.498 181.992 272.954 182.328C272.426 182.648 272.018 183.128 271.73 183.768C271.458 184.392 271.322 185.144 271.322 186.024C271.322 187.432 271.642 188.52 272.282 189.288C272.922 190.04 273.842 190.416 275.042 190.416C275.922 190.416 276.642 190.24 277.202 189.888C277.762 189.536 278.138 189.024 278.33 188.352H280.442C280.154 189.6 279.538 190.568 278.594 191.256C277.65 191.944 276.45 192.288 274.994 192.288ZM289.129 180.168V182.232H288.121C287.049 182.232 286.201 182.544 285.577 183.168C284.969 183.776 284.665 184.648 284.665 185.784V192H282.409V180.288H284.521L284.713 182.64H284.497C284.657 181.872 285.041 181.248 285.649 180.768C286.257 180.272 287.017 180.024 287.929 180.024C288.137 180.024 288.329 180.04 288.505 180.072C288.697 180.088 288.905 180.12 289.129 180.168ZM289.757 188.592H291.917C291.917 189.184 292.133 189.656 292.565 190.008C292.997 190.344 293.581 190.512 294.317 190.512C295.117 190.512 295.733 190.36 296.165 190.056C296.597 189.736 296.813 189.312 296.813 188.784C296.813 188.4 296.693 188.08 296.453 187.824C296.229 187.568 295.813 187.36 295.205 187.2L293.141 186.72C292.101 186.464 291.325 186.072 290.813 185.544C290.317 185.016 290.069 184.32 290.069 183.456C290.069 182.736 290.253 182.112 290.621 181.584C291.005 181.056 291.525 180.648 292.181 180.36C292.853 180.072 293.621 179.928 294.485 179.928C295.349 179.928 296.093 180.08 296.717 180.384C297.357 180.688 297.853 181.112 298.205 181.656C298.573 182.2 298.765 182.848 298.781 183.6H296.621C296.605 182.992 296.405 182.52 296.021 182.184C295.637 181.848 295.101 181.68 294.413 181.68C293.709 181.68 293.165 181.832 292.781 182.136C292.397 182.44 292.205 182.856 292.205 183.384C292.205 184.168 292.781 184.704 293.933 184.992L295.997 185.496C296.989 185.72 297.733 186.088 298.229 186.6C298.725 187.096 298.973 187.776 298.973 188.64C298.973 189.376 298.773 190.024 298.373 190.584C297.973 191.128 297.421 191.552 296.717 191.856C296.029 192.144 295.213 192.288 294.269 192.288C292.893 192.288 291.797 191.952 290.981 191.28C290.165 190.608 289.757 189.712 289.757 188.592ZM309.718 174.648V192H307.366V174.648H309.718ZM307.774 192V189.816H317.35V192H307.774ZM318.993 192V180.264H321.249V192H318.993ZM320.097 177.48C319.697 177.48 319.345 177.336 319.041 177.048C318.753 176.744 318.609 176.392 318.609 175.992C318.609 175.576 318.753 175.224 319.041 174.936C319.345 174.648 319.697 174.504 320.097 174.504C320.513 174.504 320.865 174.648 321.153 174.936C321.441 175.224 321.585 175.576 321.585 175.992C321.585 176.392 321.441 176.744 321.153 177.048C320.865 177.336 320.513 177.48 320.097 177.48ZM326.252 192H323.996V180.264H326.012L326.324 182.424L326.036 182.232C326.276 181.576 326.716 181.032 327.356 180.6C328.012 180.152 328.804 179.928 329.732 179.928C330.772 179.928 331.636 180.208 332.324 180.768C333.012 181.328 333.46 182.072 333.668 183H333.26C333.42 182.072 333.86 181.328 334.58 180.768C335.3 180.208 336.188 179.928 337.244 179.928C338.588 179.928 339.644 180.32 340.412 181.104C341.18 181.888 341.564 182.96 341.564 184.32V192H339.356V184.872C339.356 183.944 339.116 183.232 338.636 182.736C338.172 182.224 337.54 181.968 336.74 181.968C336.18 181.968 335.684 182.096 335.252 182.352C334.836 182.592 334.508 182.944 334.268 183.408C334.028 183.872 333.908 184.416 333.908 185.04V192H331.676V184.848C331.676 183.92 331.444 183.216 330.98 182.736C330.516 182.24 329.884 181.992 329.084 181.992C328.524 181.992 328.028 182.12 327.596 182.376C327.18 182.616 326.852 182.968 326.612 183.432C326.372 183.88 326.252 184.416 326.252 185.04V192ZM344.163 192V180.264H346.419V192H344.163ZM345.267 177.48C344.867 177.48 344.515 177.336 344.211 177.048C343.923 176.744 343.779 176.392 343.779 175.992C343.779 175.576 343.923 175.224 344.211 174.936C344.515 174.648 344.867 174.504 345.267 174.504C345.683 174.504 346.035 174.648 346.323 174.936C346.611 175.224 346.755 175.576 346.755 175.992C346.755 176.392 346.611 176.744 346.323 177.048C346.035 177.336 345.683 177.48 345.267 177.48ZM347.918 180.264H354.782V182.16H347.918V180.264ZM352.478 192H350.222V176.592H352.478V192ZM361.226 192.288C360.09 192.288 359.082 192.032 358.202 191.52C357.322 190.992 356.634 190.272 356.138 189.36C355.642 188.432 355.394 187.36 355.394 186.144C355.394 184.912 355.634 183.832 356.114 182.904C356.61 181.976 357.282 181.248 358.13 180.72C358.994 180.192 359.994 179.928 361.13 179.928C362.25 179.928 363.218 180.168 364.034 180.648C364.866 181.128 365.506 181.8 365.954 182.664C366.418 183.528 366.65 184.544 366.65 185.712V186.552L356.594 186.576L356.642 185.064H364.394C364.394 184.088 364.098 183.304 363.506 182.712C362.914 182.12 362.122 181.824 361.13 181.824C360.378 181.824 359.73 181.992 359.186 182.328C358.658 182.648 358.25 183.128 357.962 183.768C357.69 184.392 357.554 185.144 357.554 186.024C357.554 187.432 357.874 188.52 358.514 189.288C359.154 190.04 360.074 190.416 361.274 190.416C362.154 190.416 362.874 190.24 363.434 189.888C363.994 189.536 364.37 189.024 364.562 188.352H366.674C366.386 189.6 365.77 190.568 364.826 191.256C363.882 191.944 362.682 192.288 361.226 192.288ZM373.346 192.288C372.21 192.288 371.234 192.032 370.418 191.52C369.602 190.992 368.97 190.264 368.522 189.336C368.09 188.408 367.874 187.352 367.874 186.168C367.874 184.968 368.098 183.904 368.546 182.976C368.994 182.032 369.634 181.288 370.466 180.744C371.298 180.2 372.29 179.928 373.442 179.928C374.354 179.928 375.162 180.12 375.866 180.504C376.586 180.872 377.146 181.424 377.546 182.16V174.336H379.778V192H377.762L377.57 189.864C377.186 190.648 376.618 191.248 375.866 191.664C375.13 192.08 374.29 192.288 373.346 192.288ZM373.802 190.248C374.57 190.248 375.226 190.072 375.77 189.72C376.33 189.368 376.762 188.88 377.066 188.256C377.37 187.632 377.522 186.912 377.522 186.096C377.522 185.28 377.37 184.568 377.066 183.96C376.762 183.336 376.33 182.848 375.77 182.496C375.226 182.144 374.57 181.968 373.802 181.968C373.034 181.968 372.378 182.152 371.834 182.52C371.29 182.872 370.874 183.36 370.586 183.984C370.298 184.592 370.154 185.296 370.154 186.096C370.154 186.912 370.298 187.632 370.586 188.256C370.874 188.88 371.29 189.368 371.834 189.72C372.378 190.072 373.034 190.248 373.802 190.248Z" fill="white"/>
</svg>
