<svg width="132" height="67" viewBox="0 0 132 67" fill="none" xmlns="http://www.w3.org/2000/svg">
<path d="M3.12483 13.84C3.12483 11.7956 3.6519 9.99081 4.70602 8.4256C5.76015 6.86038 7.21356 5.64654 9.06627 4.78407C10.9509 3.88966 13.1231 3.44246 15.5827 3.44246C17.9465 3.44246 19.9908 3.85772 21.7158 4.68824C23.4726 5.51877 24.8302 6.70066 25.7885 8.23394C26.7788 9.76721 27.3058 11.588 27.3697 13.6962H21.2366C21.1727 12.1949 20.6297 11.029 19.6075 10.1984C18.5853 9.33598 17.2118 8.90474 15.4869 8.90474C13.6022 8.90474 12.0849 9.33598 10.9349 10.1984C9.81693 11.029 9.25793 12.1789 9.25793 13.6483C9.25793 14.8941 9.59333 15.8843 10.2641 16.619C10.9669 17.3218 12.053 17.8488 13.5223 18.2002L19.0325 19.446C22.0352 20.0849 24.2712 21.1869 25.7406 22.7521C27.21 24.2854 27.9447 26.3617 27.9447 28.981C27.9447 31.1212 27.4176 33.0059 26.3635 34.635C25.3094 36.2641 23.8081 37.5258 21.8595 38.4203C19.9429 39.2827 17.6909 39.714 15.1035 39.714C12.6439 39.714 10.4877 39.2987 8.63504 38.4682C6.78233 37.6057 5.32891 36.4078 4.27479 34.8746C3.25261 33.3413 2.70957 31.5365 2.64569 29.4602H8.77878C8.81072 30.9296 9.3857 32.0955 10.5037 32.958C11.6537 33.7885 13.2029 34.2038 15.1514 34.2038C17.1958 34.2038 18.8089 33.7885 19.9908 32.958C21.2047 32.0955 21.8116 30.9615 21.8116 29.556C21.8116 28.3422 21.4922 27.3839 20.8533 26.6811C20.2144 25.9464 19.1763 25.4353 17.7388 25.1479L12.1807 23.9021C9.21001 23.2632 6.95802 22.1133 5.42474 20.4522C3.89147 18.7592 3.12483 16.5551 3.12483 13.84ZM38.3804 39.0911H32.439V4.06535H38.3804L49.6883 31.9518L60.9962 4.06535H67.0334V39.0911H61.092V28.3102C61.092 26.5534 61.092 25.084 61.092 23.9021C61.092 22.6882 61.108 21.6661 61.1399 20.8355C61.1719 20.005 61.2038 19.2703 61.2357 18.6314C61.2677 17.9926 61.3316 17.3537 61.4274 16.7149L52.5153 39.0911H46.8613L37.9971 16.7628C38.1568 17.8169 38.2526 19.1585 38.2846 20.7876C38.3484 22.4167 38.3804 24.3333 38.3804 26.5374V39.0911ZM88.5371 39.666C85.1191 39.666 82.1484 38.9313 79.6249 37.462C77.1333 35.9606 75.1848 33.8684 73.7793 31.1851C72.4058 28.47 71.719 25.2756 71.719 21.6022C71.719 17.9606 72.4217 14.7823 73.8272 12.0671C75.2647 9.35195 77.2771 7.2437 79.8645 5.74237C82.4519 4.24104 85.4386 3.49037 88.8246 3.49037C91.6036 3.49037 94.0952 4.00146 96.2993 5.02365C98.5033 6.04583 100.324 7.48327 101.762 9.33598C103.199 11.1567 104.109 13.3289 104.493 15.8524H98.0242C97.4173 13.808 96.2833 12.2268 94.6222 11.1088C92.9931 9.95887 90.9967 9.38389 88.6329 9.38389C86.5246 9.38389 84.6719 9.87901 83.0748 10.8693C81.5096 11.8595 80.2957 13.265 79.4333 15.0858C78.5708 16.9065 78.1396 19.0787 78.1396 21.6022C78.1396 24.0298 78.5708 26.17 79.4333 28.0227C80.2957 29.8435 81.5096 31.265 83.0748 32.2872C84.6719 33.2774 86.5246 33.7725 88.6329 33.7725C91.0286 33.7725 93.073 33.1975 94.766 32.0476C96.4909 30.8976 97.6409 29.3484 98.2159 27.3999H104.589C104.141 29.8275 103.167 31.9677 101.666 33.8204C100.196 35.6731 98.3277 37.1106 96.0597 38.1328C93.8237 39.155 91.3161 39.666 88.5371 39.666ZM115.168 4.06535V39.0911H109.034V4.06535H115.168ZM110.089 39.0911V33.4371H129.782V39.0911H110.089Z" fill="#808383"/>
<path d="M3.6595 48.2179V61.9089H1.80373V48.2179H3.6595ZM2.12565 61.9089V60.1857H9.68127V61.9089H2.12565ZM10.9777 61.9089V52.649H12.7577V61.9089H10.9777ZM11.8487 50.4524C11.5331 50.4524 11.2554 50.3388 11.0155 50.1116C10.7883 49.8717 10.6747 49.594 10.6747 49.2784C10.6747 48.9501 10.7883 48.6724 11.0155 48.4452C11.2554 48.2179 11.5331 48.1043 11.8487 48.1043C12.177 48.1043 12.4547 48.2179 12.6819 48.4452C12.9092 48.6724 13.0228 48.9501 13.0228 49.2784C13.0228 49.594 12.9092 49.8717 12.6819 50.1116C12.4547 50.3388 12.177 50.4524 11.8487 50.4524ZM16.7053 61.9089H14.9253V52.649H16.516L16.7621 54.3533L16.5349 54.2018C16.7243 53.6842 17.0714 53.255 17.5764 52.9142C18.094 52.5607 18.7189 52.3839 19.4511 52.3839C20.2717 52.3839 20.9534 52.6049 21.4962 53.0467C22.0391 53.4886 22.3926 54.0756 22.5567 54.8078H22.2348C22.361 54.0756 22.7082 53.4886 23.2763 53.0467C23.8444 52.6049 24.545 52.3839 25.3782 52.3839C26.4386 52.3839 27.2718 52.6932 27.8778 53.3118C28.4838 53.9304 28.7867 54.7762 28.7867 55.8493V61.9089H27.0446V56.2848C27.0446 55.5526 26.8552 54.9908 26.4765 54.5995C26.1104 54.1955 25.6117 53.9935 24.9805 53.9935C24.5387 53.9935 24.1473 54.0945 23.8065 54.2965C23.4782 54.4859 23.2195 54.7636 23.0301 55.1297C22.8407 55.4958 22.746 55.925 22.746 56.4174V61.9089H20.985V56.2659C20.985 55.5337 20.8019 54.9782 20.4358 54.5995C20.0697 54.2081 19.571 54.0125 18.9398 54.0125C18.498 54.0125 18.1066 54.1135 17.7658 54.3154C17.4375 54.5048 17.1787 54.7825 16.9894 55.1486C16.8 55.5021 16.7053 55.925 16.7053 56.4174V61.9089ZM30.8376 61.9089V52.649H32.6177V61.9089H30.8376ZM31.7087 50.4524C31.3931 50.4524 31.1154 50.3388 30.8755 50.1116C30.6483 49.8717 30.5347 49.594 30.5347 49.2784C30.5347 48.9501 30.6483 48.6724 30.8755 48.4452C31.1154 48.2179 31.3931 48.1043 31.7087 48.1043C32.037 48.1043 32.3147 48.2179 32.5419 48.4452C32.7692 48.6724 32.8828 48.9501 32.8828 49.2784C32.8828 49.594 32.7692 49.8717 32.5419 50.1116C32.3147 50.3388 32.037 50.4524 31.7087 50.4524ZM33.8006 52.649H39.2164V54.145H33.8006V52.649ZM37.3985 61.9089H35.6185V49.7518H37.3985V61.9089ZM44.3004 62.1362C43.4041 62.1362 42.6087 61.9342 41.9144 61.5302C41.2201 61.1136 40.6772 60.5455 40.2859 59.8259C39.8945 59.0937 39.6988 58.2479 39.6988 57.2885C39.6988 56.3164 39.8882 55.4643 40.2669 54.732C40.6583 53.9998 41.1885 53.4254 41.8576 53.0088C42.5393 52.5922 43.3283 52.3839 44.2246 52.3839C45.1083 52.3839 45.8721 52.5733 46.5159 52.952C47.1724 53.3308 47.6774 53.861 48.0309 54.5427C48.397 55.2244 48.58 56.026 48.58 56.9476V57.6104L40.6457 57.6293L40.6835 56.4363H46.8C46.8 55.6662 46.5664 55.0477 46.0993 54.5806C45.6322 54.1135 45.0073 53.8799 44.2246 53.8799C43.6313 53.8799 43.12 54.0125 42.6908 54.2776C42.2742 54.5301 41.9523 54.9088 41.725 55.4138C41.5104 55.9061 41.4031 56.4994 41.4031 57.1938C41.4031 58.3047 41.6556 59.1632 42.1606 59.7691C42.6655 60.3625 43.3914 60.6591 44.3383 60.6591C45.0326 60.6591 45.6007 60.5203 46.0425 60.2425C46.4844 59.9648 46.7811 59.5608 46.9325 59.0306H48.5989C48.3717 60.0153 47.8857 60.7791 47.1408 61.3219C46.396 61.8648 45.4492 62.1362 44.3004 62.1362ZM53.8631 62.1362C52.9668 62.1362 52.1967 61.9342 51.5529 61.5302C50.909 61.1136 50.4104 60.5392 50.0569 59.807C49.716 59.0748 49.5456 58.2416 49.5456 57.3074C49.5456 56.3606 49.7224 55.5211 50.0758 54.7889C50.4293 54.044 50.9343 53.457 51.5907 53.0278C52.2472 52.5985 53.0299 52.3839 53.9389 52.3839C54.6584 52.3839 55.296 52.5354 55.8514 52.8384C56.4195 53.1288 56.8614 53.5643 57.177 54.145V47.9718H58.9381V61.9089H57.3474L57.1959 60.2236C56.8929 60.8422 56.4448 61.3156 55.8514 61.6438C55.2707 61.9721 54.6079 62.1362 53.8631 62.1362ZM54.2229 60.5266C54.8289 60.5266 55.3465 60.3877 55.7757 60.11C56.2175 59.8322 56.5584 59.4472 56.7982 58.9549C57.0381 58.4625 57.158 57.8944 57.158 57.2506C57.158 56.6067 57.0381 56.045 56.7982 55.5652C56.5584 55.0729 56.2175 54.6879 55.7757 54.4101C55.3465 54.1324 54.8289 53.9935 54.2229 53.9935C53.6169 53.9935 53.0993 54.1387 52.6701 54.4291C52.2409 54.7068 51.9127 55.0918 51.6854 55.5842C51.4582 56.0639 51.3446 56.6194 51.3446 57.2506C51.3446 57.8944 51.4582 58.4625 51.6854 58.9549C51.9127 59.4472 52.2409 59.8322 52.6701 60.11C53.0993 60.3877 53.6169 60.5266 54.2229 60.5266Z" fill="#808383"/>
</svg>
