<svg width="82" height="39" viewBox="0 0 82 39" fill="none" xmlns="http://www.w3.org/2000/svg">
<g clip-path="url(#clip0_439_2678)">
<path d="M69.7145 15.4962V0.183228H79.3332V15.4962H81.7418V25.6992H79.3332V35.9023H69.7145V25.6992H60.174L55.3726 20.5895V0.183228H64.8661V15.4962H69.7145Z" fill="#231F20"/>
<path d="M54.6538 24.3381C54.5722 27.6219 53.3454 30.757 51.2107 33.1369C49.0761 35.5167 46.1852 36.9722 43.0973 37.222C40.0095 37.4717 36.9441 36.4979 34.4939 34.4888C32.0438 32.4798 30.3831 29.5783 29.833 26.3456H38.7948C39.2145 26.9545 39.7744 27.4391 40.4209 27.7531C41.0675 28.0673 41.7791 28.2002 42.4879 28.1396C43.1967 28.0789 43.879 27.8265 44.4696 27.4065C45.0603 26.9864 45.5396 26.4129 45.8618 25.7404C46.184 25.0681 46.3384 24.3192 46.3101 23.5655C46.2818 22.8117 46.0719 22.0783 45.7004 21.4351C45.3288 20.7919 44.8081 20.2606 44.1878 19.8916C43.5676 19.5227 42.8686 19.3286 42.1575 19.3279C41.5025 19.3285 40.8569 19.4924 40.2728 19.8065C39.6887 20.1207 39.1823 20.5761 38.7948 21.1362H30.052V0H31.616H52.5737V8.47769H38.7636V11.6133C39.8671 11.2786 41.0097 11.1111 42.1575 11.1156C45.465 11.1199 48.6364 12.5134 50.9781 14.9912C53.3199 17.4691 54.6415 20.8296 54.6538 24.3381Z" fill="#231F20"/>
<path d="M0.742676 35.7855V0H22.3887L27.1901 5.10984V15.3793L24.7971 17.9343L27.1901 20.4726V30.6756L22.3887 35.7855H0.742676ZM10.3614 10.2695V12.8244H17.5715V10.2695H10.3614ZM10.3614 23.0275V25.5824H17.5715V23.0275H10.3614Z" fill="#231F20"/>
</g>
<defs>
<clipPath id="clip0_439_2678">
<rect width="81" height="38.0305" fill="white" transform="translate(0.742676)"/>
</clipPath>
</defs>
</svg>
