<svg width="113" height="48" viewBox="0 0 113 48" fill="none" xmlns="http://www.w3.org/2000/svg">
<g clip-path="url(#clip0_439_2790)">
<path d="M50.05 14.9724C51.1613 14.9724 51.4503 16.7908 51.4503 18.0534C51.4503 19.3846 51.0754 21.0374 50.7855 21.5645H53.9066C54.3351 20.6059 54.8801 18.2557 54.8801 16.3895C54.8741 12.3785 53.4194 8.29426 49.9302 8.29426C47.0539 8.29426 44.7787 10.4598 44.3902 15.5281C44.0688 19.7476 44.9037 23.2093 45.9435 26.5754C46.9408 29.8046 46.4502 31.7344 45.4189 31.7344C43.6156 31.7281 43.4796 27.1168 43.4796 24.1233H41.3821C41.124 25.1157 40.9165 26.1516 40.7623 27.2171C40.4903 28.6852 40.2352 31.6835 39.1673 31.6835C37.5885 31.6835 38.7652 26.5308 39.3765 23.5628C39.9997 20.5326 41.854 11.4406 42.1762 9.77351H36.1074C36.7281 11.8753 36.4398 14.4453 36.0147 15.4262C35.9348 13.888 35.2623 9.65409 31.4431 9.65409C26.4983 9.65409 23.5829 18.9053 22.4964 23.2698C19.371 35.8219 22.0525 44.3454 25.7569 44.3454C30.6652 44.3454 31.7977 36.7279 31.9057 35.9938C31.8682 36.4715 32.2696 44.3454 35.9204 44.3454C38.2278 44.3454 39.8747 41.8407 41.0718 37.5575C41.7945 41.6274 43.852 44.468 47.0267 44.468C51.6153 44.468 52.8047 38.2772 52.8047 34.8967C52.8047 24.5755 48.5477 24.1249 48.5477 18.1697C48.5562 16.9691 48.9329 14.9724 50.05 14.9724ZM34.1851 25.5643C33.1878 29.4654 31.5367 31.6787 29.8099 31.6787C27.3953 31.6787 26.5825 27.0706 27.7804 22.6966C28.765 19.1012 30.3829 16.5503 32.4226 16.5503C34.3101 16.5503 35.5327 20.3081 34.1851 25.5643ZM11.6774 31.693C7.87696 31.693 6.89156 22.9386 8.13287 17.227C9.34867 11.6349 11.4963 8.34203 14.1005 8.34203C18.088 8.34203 17.4384 17.3274 17.4325 17.3385H21.3137C21.8476 14.431 22.4385 0 15.3282 0C10.7141 0 5.80499 6.08098 2.78333 17.0535C-1.65818 33.1548 1.57433 47.7689 8.4704 47.7689C12.5939 47.7689 15.4796 44.6225 17.9537 37.1291C20.4278 29.6342 20.6378 24.0086 20.6378 23.8L16.9317 23.7809C16.9283 23.8255 15.9999 31.693 11.6774 31.693ZM107.426 31.693C105.81 31.693 107.243 26.5308 107.843 23.5548C108.488 20.3416 110.244 11.4311 110.566 9.77828H104.499C105.12 11.8801 104.832 14.4549 104.405 15.4341C104.327 13.8976 103.653 9.66364 99.8351 9.66364C94.8902 9.66364 91.9732 18.9149 90.8866 23.2778C87.7612 35.833 90.1741 44.3454 94.1472 44.3454C99.0563 44.3454 100.234 36.5065 100.296 35.9938C100.209 36.9062 100.809 44.3454 104.908 44.3454C111.733 44.3454 112.114 25.2347 112.114 25.2347L109.52 25.2028C109.283 26.8748 108.614 31.693 107.426 31.693ZM102.575 25.577C101.578 29.4813 99.9286 31.6914 98.2001 31.6914C95.7872 31.6914 94.9727 27.0833 96.1715 22.7093C97.1569 19.1155 98.7732 16.5631 100.812 16.5631C102.695 16.5631 103.925 20.3209 102.575 25.577ZM88.4524 9.76873C88.2382 10.7257 87.1814 15.3609 85.725 21.4291C84.3816 27.0244 83.0663 31.693 81.28 31.693C79.1596 31.693 79.4827 27.4591 80.7818 21.359C82.1813 14.8099 82.7756 11.6317 83.1565 9.76873H77.1574C77.0791 10.1573 74.7793 21.7492 74.5719 22.7937C74.3959 23.6758 73.5856 27.0228 73.3484 29.5833C73.1741 31.4717 72.6971 31.693 72.2822 31.693C70.4789 31.693 71.6607 27.0149 72.3622 23.5644C73.0066 20.3734 74.7649 11.4406 75.0871 9.77828H69.0217C69.6415 11.8801 69.3533 14.4549 68.9265 15.4341C68.8491 13.8976 68.174 9.66364 64.3574 9.66364C59.4117 9.66364 56.4955 18.9149 55.4089 23.2778C52.2827 35.833 54.6956 44.3454 58.6686 44.3454C63.5778 44.3454 64.6677 36.8091 64.8174 35.9938C64.7392 36.9094 65.2178 44.3454 69.3227 44.3454C71.5791 44.3454 73.4768 40.2851 73.8874 36.2168C74.0719 39.9045 76.1686 44.3693 78.8527 44.3693C84.0288 44.3693 85.8848 37.9555 89.0221 25.9146C91.9502 14.6794 93.0104 10.3579 93.1618 9.76555L88.4524 9.76873ZM67.0976 25.577C66.1003 29.4813 64.4501 31.6914 62.7216 31.6914C60.3096 31.6914 59.495 27.0833 60.693 22.7093C61.6784 19.1155 63.2946 16.5631 65.3343 16.5631C67.2124 16.5631 68.4461 20.3209 67.0976 25.577Z" fill="#FF147D"/>
</g>
<defs>
<clipPath id="clip0_439_2790">
<rect width="112.228" height="47.7689" fill="white" transform="translate(0.742676)"/>
</clipPath>
</defs>
</svg>
