<svg width="131" height="36" viewBox="0 0 131 36" fill="none" xmlns="http://www.w3.org/2000/svg">
<g clip-path="url(#clip0_141_3565)">
<path d="M16.4325 36C7.37118 36 -0.000488281 28.1025 -0.000488281 18.3962C-0.000488281 8.68979 7.37118 0.793381 16.4325 0.793381C18.6131 0.786145 20.773 1.24724 22.7843 2.1494C24.7957 3.05158 26.6179 4.3765 28.1431 6.0459L23.3167 11.1365C21.8248 9.51482 19.8752 8.46564 17.7699 8.15161C15.6647 7.83756 13.5217 8.2762 11.6729 9.39952C9.82412 10.5228 8.3729 12.2681 7.54424 14.3647C6.71557 16.4614 6.55575 18.7923 7.08955 20.9961C7.62333 23.2 8.82092 25.1535 10.4966 26.5542C12.1724 27.9548 14.2326 28.7241 16.358 28.743C18.4834 28.7618 20.5554 28.029 22.2524 26.6583C23.9496 25.2875 25.1771 23.3552 25.7449 21.1613L26.0184 19.9737C26.7075 17.2999 28.1997 14.9437 30.2645 13.2697C32.3292 11.5957 34.8514 10.6971 37.4409 10.7128C40.0303 10.7285 42.5427 11.6576 44.5897 13.3566C46.6366 15.0556 48.1038 17.4296 48.7647 20.1116C49.4253 22.7936 49.2428 25.634 48.245 28.1938C47.2474 30.7534 45.4901 32.8896 43.245 34.272C41 35.6542 38.3924 36.2058 35.8253 35.8411C33.2583 35.4764 30.875 34.216 29.0439 32.2546L33.8343 27.1265C34.6113 27.9578 35.6219 28.4924 36.7105 28.6477C37.7989 28.8031 38.905 28.5709 39.8581 27.9864C40.8112 27.4021 41.5583 26.4982 41.9845 25.4141C42.4109 24.3299 42.4924 23.1258 42.2167 21.9871C41.941 20.8485 41.3233 19.8385 40.459 19.113C39.5945 18.3874 38.5314 17.9865 37.4333 17.972C36.3352 17.9576 35.2632 18.3303 34.3825 19.0327C33.5016 19.7354 32.861 20.7286 32.5591 21.8597L32.2917 23.0317C31.3377 26.7547 29.2695 30.0395 26.4047 32.3822C23.5399 34.7247 20.0366 35.9958 16.4325 36Z" fill="#100A37"/>
<path d="M50.4761 1.78493H57.2492V35.9527H50.4761V1.78493Z" fill="#100A37"/>
<path d="M60.0005 1.78493H66.7736V35.9527H60.0005V1.78493Z" fill="#100A37"/>
<path d="M90.7709 26.1235H74.6031C75.5204 28.7443 77.7912 30.0552 80.8076 30.0552C82.8181 30.0552 84.6127 29.5396 86.2694 28.1825L89.329 31.5975C87.45 34.1246 84.2158 35.9499 80.065 35.9499C73.7732 35.9499 68.0923 31.3629 68.0923 23.3596C68.0923 15.1216 73.8164 10.6755 79.6721 10.6755C85.4395 10.6777 92.2126 14.984 90.7709 26.1235ZM74.4716 20.9282H84.8277C84.3473 18.1191 82.0314 16.7619 79.7596 16.7619C77.4878 16.7619 75.215 18.0255 74.4716 20.9282Z" fill="#100A37"/>
<path d="M92.2866 23.2685C92.2866 15.0307 98.3161 10.6782 104.39 10.6782C108.41 10.6782 111.949 12.6435 114.177 16.6688L109.284 20.0838C108.191 18.4919 106.574 17.2283 104.39 17.2283C101.462 17.2283 98.9713 19.5682 98.9713 23.2663C98.9713 27.0582 101.462 29.3981 104.39 29.3981C106.574 29.3981 108.195 28.1345 109.284 26.5426L114.177 29.9576C111.949 33.8893 108.41 35.9482 104.39 35.9482C98.3151 35.9526 92.2866 31.6002 92.2866 23.2685Z" fill="#100A37"/>
<path d="M130.402 11.1462V16.9022H125.638V26.8256C125.638 26.9523 125.645 27.0787 125.66 27.2046V35.9535H118.872V28.445C118.872 28.2985 118.864 28.1475 118.864 27.9966V16.9022H115.5V11.1462H118.864V2.25175H118.872V1.78356H125.66V11.1473L130.402 11.1462Z" fill="#100A37"/>
</g>
<defs>
<clipPath id="clip0_141_3565">
<rect width="131" height="36" fill="white"/>
</clipPath>
</defs>
</svg>
