<svg width="153" height="38" viewBox="0 0 153 38" fill="none" xmlns="http://www.w3.org/2000/svg">
<g clip-path="url(#clip0_439_2685)">
<path d="M0.744149 18.658C0.707093 21.3976 1.36986 24.0925 2.65927 26.5138C3.31525 27.7458 4.8667 28.3174 6.08184 27.5679C8.77713 25.9055 10.621 22.5391 10.621 18.658C10.621 14.7788 8.78377 11.4208 6.09843 9.75673C4.88527 9.00493 3.33259 9.57214 2.67353 10.8022C1.37718 13.2218 0.70932 15.9171 0.744149 18.658Z" fill="#477DB3"/>
<g style="mix-blend-mode:overlay" opacity="0.1">
<path d="M5.36616 12.3648C4.1683 11.0661 2.12686 11.7529 1.5881 13.4059C1.03567 15.1008 0.751953 16.8713 0.751953 18.6583C0.751953 20.4462 1.03598 22.2176 1.58902 23.9133C2.12769 25.5651 4.1676 26.2529 5.3656 24.9561C6.801 23.4021 7.70405 21.1599 7.70405 18.6583C7.70405 16.1589 6.79927 13.9184 5.36616 12.3648Z" fill="#477DB3"/>
</g>
<g style="mix-blend-mode:multiply" opacity="0.2">
<path d="M10.3982 16.352C10.0963 14.8184 9.0412 15.7768 9.20154 17.3298C9.24646 17.765 9.26961 18.2082 9.26961 18.6582C9.26961 19.0917 9.24818 19.5192 9.20653 19.9391C9.05232 21.4935 10.1116 22.4518 10.4074 20.9163C10.5472 20.1907 10.6211 19.4348 10.6211 18.6582C10.6211 17.8645 10.5439 17.0924 10.3982 16.352Z" fill="#477DB3"/>
</g>
<path d="M30.394 21.9341L30.0552 21.8597C29.113 21.6656 28.1315 21.7464 27.2378 22.0915C26.3442 22.4366 25.5795 23.0303 25.0428 23.7956C23.633 25.7984 21.5065 26.7105 19.0295 26.7105C18.041 26.7184 17.0584 26.5649 16.124 26.2563C15.0236 25.873 13.8135 25.8935 12.728 26.3136C11.6424 26.7339 10.7584 27.5238 10.247 28.531C9.95248 29.1103 9.79164 29.7435 9.77531 30.3873C9.75898 31.0313 9.88755 31.6711 10.1523 32.2634C10.4171 32.8557 10.8119 33.3868 11.31 33.8205C11.8081 34.2544 12.3979 34.5809 13.0394 34.7779C14.9784 35.3559 16.9984 35.6472 19.0295 35.6416C24.8714 35.6416 30.063 33.2442 33.245 29.2086C33.731 28.5896 34.0462 27.8635 34.1614 27.0973C34.2766 26.3313 34.1881 25.5497 33.904 24.8249C33.6199 24.1001 33.1494 23.4554 32.5361 22.9502C31.9226 22.4449 31.186 22.0955 30.394 21.9341Z" fill="#477DB3"/>
<path d="M10.2472 8.80745C10.7617 9.81648 11.6494 10.6073 12.7387 11.0267C13.8278 11.4462 15.0411 11.4646 16.1437 11.0784C17.0711 10.7687 18.0473 10.6138 19.0297 10.6205C21.4249 10.6205 23.4929 11.5065 24.8289 13.3902C25.3772 14.1906 26.1682 14.8115 27.0961 15.1702C28.0239 15.5288 29.0442 15.6079 30.0204 15.3968L30.4098 15.3039C31.1925 15.1254 31.916 14.7625 32.5145 14.2482C33.1129 13.734 33.5671 13.0848 33.8358 12.3597C34.1045 11.6347 34.1791 10.857 34.0528 10.0974C33.9265 9.33776 33.6034 8.62043 33.1128 8.01077C29.8802 4.03106 24.7081 1.68195 19.018 1.68195C16.9879 1.68539 14.9703 1.98673 13.0358 2.57543C12.3955 2.77348 11.807 3.10045 11.3101 3.53429C10.8132 3.96812 10.4193 4.49873 10.155 5.09038C9.89078 5.68202 9.76227 6.32092 9.77817 6.96405C9.79407 7.60717 9.95401 8.23957 10.2472 8.81861V8.80745Z" fill="#477DB3"/>
<g style="mix-blend-mode:multiply" opacity="0.5">
<g style="mix-blend-mode:multiply" opacity="0.5">
<path d="M30.3201 21.9343L30.0553 21.8785C29.115 21.6825 28.1349 21.7604 27.2414 22.1021C26.348 22.4439 25.5821 23.0338 25.0429 23.7957C23.633 25.7987 21.5065 26.7107 19.0295 26.7107C18.0411 26.7186 17.0584 26.565 16.1241 26.2566C15.2921 25.9704 14.3932 25.9112 13.5279 26.0854C12.6627 26.2597 11.8652 26.6605 11.2246 27.2431C12.7185 28.4802 14.5128 29.3399 16.4437 29.7436C18.3746 30.1474 20.3806 30.0824 22.2784 29.5544C24.1761 29.0264 25.9054 28.0525 27.3082 26.7214C28.7108 25.3903 29.7424 23.7445 30.3084 21.9343H30.3201Z" fill="#477DB3"/>
</g>
<g style="mix-blend-mode:multiply" opacity="0.5">
<path d="M11.252 10.118C11.8956 10.6934 12.693 11.0875 13.5563 11.2571C14.4194 11.4265 15.3148 11.3648 16.1437 11.0785C17.0711 10.7689 18.0473 10.614 19.0296 10.6206C21.4248 10.6206 23.4929 11.5066 24.8287 13.3904C25.3771 14.1907 26.1682 14.8117 27.096 15.1703C28.0239 15.5289 29.0441 15.6081 30.0203 15.3971L30.2852 15.3375C29.7034 13.5438 28.6634 11.9167 27.2593 10.6032C25.8552 9.28971 24.131 8.33112 22.2423 7.81394C20.3536 7.29675 18.3599 7.23726 16.4412 7.64082C14.5225 8.04438 12.7391 8.89829 11.252 10.1255V10.118Z" fill="#477DB3"/>
</g>
</g>
<g style="mix-blend-mode:overlay" opacity="0.3">
<g style="mix-blend-mode:overlay" opacity="0.3">
<path d="M18.9869 34.3832C15.795 34.3869 12.6718 33.4978 10.002 31.8256C10.2225 32.5141 10.6151 33.1409 11.1457 33.652C11.6763 34.163 12.329 34.543 13.0476 34.7592C14.9865 35.3372 17.0066 35.6285 19.0375 35.6229C24.8796 35.6229 30.0711 33.2253 33.253 29.1898C33.7091 28.6131 34.0136 27.9401 34.1411 27.2275C34.2685 26.5149 34.2151 25.7835 33.9852 25.0947C32.6903 27.8617 30.585 30.2114 27.9234 31.8596C25.2619 33.5079 22.1582 34.3843 18.9869 34.3832Z" fill="#477DB3"/>
</g>
<g style="mix-blend-mode:overlay" opacity="0.3">
<path d="M18.9869 2.97749C22.1333 2.97756 25.2136 3.84136 27.8613 5.46619C30.509 7.09102 32.613 9.40852 33.9228 12.1431C34.1525 11.4455 34.2016 10.705 34.066 9.98521C33.9302 9.26545 33.6139 8.58792 33.1439 8.01077C29.9114 4.03106 24.7392 1.68195 19.0492 1.68195C17.0086 1.68234 14.9803 1.9837 13.0358 2.57543C12.3102 2.79415 11.6521 3.18027 11.1196 3.69969C10.5871 4.21909 10.1965 4.85584 9.98242 5.5537C12.6548 3.86961 15.7861 2.97372 18.9869 2.97749Z" fill="#477DB3"/>
</g>
</g>
<path d="M56.7645 9.43469C57.2988 9.69005 57.607 10.0927 57.6892 10.6428C57.792 11.1928 57.6482 11.6938 57.2578 12.1455C56.9906 12.4991 56.6413 12.6955 56.2097 12.7348C55.7987 12.7742 55.3773 12.6955 54.9458 12.4991C54.4526 12.2831 53.9285 12.1161 53.3737 11.9982C52.8394 11.8803 52.2743 11.8214 51.6783 11.8214C50.5685 11.8214 49.5719 11.9884 48.6882 12.3223C47.825 12.6563 47.0853 13.1375 46.4687 13.7661C45.8522 14.3751 45.3796 15.1019 45.0508 15.9466C44.7425 16.7913 44.5884 17.7244 44.5884 18.7459C44.5884 19.9441 44.763 20.9852 45.1124 21.8693C45.4824 22.7532 45.9858 23.4898 46.6228 24.0792C47.2599 24.6685 48.01 25.1104 48.8731 25.4052C49.7362 25.6801 50.6713 25.8177 51.6783 25.8177C52.2331 25.8177 52.7881 25.7685 53.3429 25.6703C53.8978 25.5721 54.432 25.3953 54.9458 25.1399C55.3773 24.9435 55.7987 24.8747 56.2097 24.9336C56.6413 24.9926 57.0008 25.1988 57.2885 25.5525C57.6995 26.0436 57.8435 26.5543 57.7201 27.0846C57.6173 27.5954 57.3091 27.9686 56.7954 28.2043C56.261 28.4597 55.7062 28.6758 55.1307 28.8527C54.5759 29.0098 54.0107 29.1276 53.4353 29.2062C52.86 29.3044 52.2743 29.3535 51.6783 29.3535C50.1987 29.3535 48.7909 29.1276 47.4552 28.6758C46.1399 28.224 44.9583 27.5561 43.9102 26.6721C42.8827 25.7882 42.0709 24.6881 41.4749 23.3719C40.879 22.0362 40.5811 20.4941 40.5811 18.7459C40.5811 17.2333 40.8482 15.8385 41.3826 14.5617C41.9374 13.2848 42.708 12.1848 43.6945 11.2616C44.7014 10.3187 45.883 9.59183 47.2394 9.0811C48.5957 8.55071 50.0753 8.28552 51.6783 8.28552C52.5825 8.28552 53.4662 8.38374 54.3293 8.58018C55.1925 8.77662 56.0041 9.06145 56.7645 9.43469ZM76.6765 21.1915C76.6765 22.8023 76.2963 24.2265 75.5359 25.4641C74.7961 26.682 73.7891 27.6346 72.515 28.3222C71.2614 29.0098 69.8537 29.3535 68.2919 29.3535C66.7301 29.3535 65.312 29.0098 64.0379 28.3222C62.7844 27.6346 61.7773 26.682 61.017 25.4641C60.2772 24.2265 59.9073 22.8023 59.9073 21.1915C59.9073 19.5808 60.2772 18.1664 61.017 16.9485C61.7773 15.7109 62.7844 14.7483 64.0379 14.0608C65.312 13.3536 66.7301 13.0001 68.2919 13.0001C69.8537 13.0001 71.2614 13.3536 72.515 14.0608C73.7891 14.7483 74.7961 15.7109 75.5359 16.9485C76.2963 18.1664 76.6765 19.5808 76.6765 21.1915ZM72.9774 21.1915C72.9774 20.1897 72.7616 19.3254 72.33 18.5986C71.919 17.8521 71.3539 17.2726 70.6346 16.8601C69.9359 16.4476 69.155 16.2412 68.2919 16.2412C67.4288 16.2412 66.6376 16.4476 65.9183 16.8601C65.2196 17.2726 64.6545 17.8521 64.2229 18.5986C63.8119 19.3254 63.6064 20.1897 63.6064 21.1915C63.6064 22.1737 63.8119 23.038 64.2229 23.7845C64.6545 24.5113 65.2196 25.0809 65.9183 25.4935C66.6376 25.906 67.4288 26.1123 68.2919 26.1123C69.155 26.1123 69.9359 25.906 70.6346 25.4935C71.3539 25.0809 71.919 24.5113 72.33 23.7845C72.7616 23.038 72.9774 22.1737 72.9774 21.1915ZM88.7301 13.0001C90.2508 13.0001 91.4016 13.3045 92.1825 13.9135C92.984 14.5224 93.5286 15.3376 93.8163 16.3591C94.1246 17.361 94.2787 18.4807 94.2787 19.7182V27.2615C94.2787 27.7722 94.104 28.2043 93.7546 28.5579C93.4053 28.8919 92.9634 29.0589 92.4291 29.0589C91.8949 29.0589 91.453 28.8919 91.1036 28.5579C90.7543 28.2043 90.5796 27.7722 90.5796 27.2615V19.7182C90.5796 19.07 90.4871 18.4905 90.3021 17.9797C90.1377 17.4494 89.8295 17.0271 89.3774 16.7128C88.9252 16.3984 88.278 16.2412 87.4354 16.2412C86.6133 16.2412 85.9146 16.3984 85.3392 16.7128C84.7844 17.0271 84.3529 17.4494 84.0445 17.9797C83.7569 18.4905 83.613 19.07 83.613 19.7182V27.2615C83.613 27.7722 83.4383 28.2043 83.0889 28.5579C82.7395 28.8919 82.2978 29.0589 81.7635 29.0589C81.2291 29.0589 80.7873 28.8919 80.4379 28.5579C80.0885 28.2043 79.9139 27.7722 79.9139 27.2615V15.0921C79.9139 14.5814 80.0885 14.1591 80.4379 13.8251C80.7873 13.4715 81.2291 13.2947 81.7635 13.2947C82.2978 13.2947 82.7395 13.4715 83.0889 13.8251C83.4383 14.1591 83.613 14.5814 83.613 15.0921V16.3591L83.1506 16.2707C83.3355 15.9368 83.6027 15.5832 83.952 15.21C84.3014 14.8171 84.7124 14.4537 85.1851 14.1197C85.6577 13.7858 86.192 13.5205 86.788 13.3242C87.384 13.108 88.0314 13.0001 88.7301 13.0001ZM98.8662 13.2947C99.2566 13.2947 99.6162 13.3929 99.945 13.5894C100.274 13.7661 100.521 14.0411 100.685 14.4144L105.216 24.3149L104.538 24.6095L109.162 14.4438C109.511 13.6581 110.056 13.2848 110.796 13.3242C111.309 13.3242 111.72 13.4813 112.029 13.7956C112.358 14.0902 112.522 14.4635 112.522 14.9153C112.522 15.0528 112.491 15.2001 112.429 15.3573C112.388 15.5144 112.337 15.6617 112.275 15.7993L106.511 27.9392C106.182 28.6463 105.658 29.0195 104.939 29.0589C104.548 29.1178 104.168 29.049 103.798 28.8527C103.449 28.6562 103.182 28.3517 102.997 27.9392L97.2633 15.7993C97.2221 15.7011 97.1708 15.5733 97.109 15.4162C97.068 15.259 97.0474 15.0725 97.0474 14.8564C97.0474 14.5027 97.2118 14.1591 97.5406 13.8251C97.8695 13.4715 98.3112 13.2947 98.8662 13.2947ZM131.284 21.1915C131.284 22.8023 130.904 24.2265 130.144 25.4641C129.404 26.682 128.397 27.6346 127.122 28.3222C125.869 29.0098 124.461 29.3535 122.899 29.3535C121.337 29.3535 119.919 29.0098 118.645 28.3222C117.392 27.6346 116.385 26.682 115.624 25.4641C114.884 24.2265 114.515 22.8023 114.515 21.1915C114.515 19.5808 114.884 18.1664 115.624 16.9485C116.385 15.7109 117.392 14.7483 118.645 14.0608C119.919 13.3536 121.337 13.0001 122.899 13.0001C124.461 13.0001 125.869 13.3536 127.122 14.0608C128.397 14.7483 129.404 15.7109 130.144 16.9485C130.904 18.1664 131.284 19.5808 131.284 21.1915ZM127.584 21.1915C127.584 20.1897 127.369 19.3254 126.938 18.5986C126.526 17.8521 125.961 17.2726 125.242 16.8601C124.543 16.4476 123.762 16.2412 122.899 16.2412C122.036 16.2412 121.245 16.4476 120.526 16.8601C119.826 17.2726 119.262 17.8521 118.83 18.5986C118.419 19.3254 118.214 20.1897 118.214 21.1915C118.214 22.1737 118.419 23.038 118.83 23.7845C119.262 24.5113 119.826 25.0809 120.526 25.4935C121.245 25.906 122.036 26.1123 122.899 26.1123C123.762 26.1123 124.543 25.906 125.242 25.4935C125.961 25.0809 126.526 24.5113 126.938 23.7845C127.369 23.038 127.584 22.1737 127.584 21.1915ZM146.758 13.2947C147.293 13.2947 147.735 13.4715 148.084 13.8251C148.434 14.1591 148.608 14.5814 148.608 15.0921V27.6151C148.608 29.4223 148.249 30.8563 147.53 31.917C146.831 32.9974 145.885 33.7734 144.694 34.2449C143.502 34.7163 142.166 34.952 140.687 34.952C140.028 34.952 139.33 34.9029 138.59 34.8047C137.85 34.7064 137.244 34.5591 136.771 34.3627C136.155 34.1073 135.723 33.7832 135.477 33.3903C135.251 33.0171 135.21 32.6144 135.354 32.1822C135.539 31.6126 135.837 31.2197 136.247 31.0036C136.659 30.8072 137.09 30.7875 137.543 30.9447C137.871 31.0429 138.303 31.1902 138.837 31.3867C139.371 31.6027 139.987 31.7108 140.687 31.7108C141.631 31.7108 142.412 31.5831 143.029 31.3277C143.666 31.092 144.138 30.6794 144.447 30.0901C144.775 29.5204 144.94 28.7347 144.94 27.7329V25.7587L145.588 26.4659C145.238 27.1142 144.796 27.6543 144.262 28.0865C143.749 28.499 143.131 28.8133 142.412 29.0294C141.693 29.2455 140.871 29.3535 139.946 29.3535C138.857 29.3535 137.902 29.1178 137.08 28.6463C136.279 28.1552 135.652 27.4873 135.199 26.6426C134.747 25.7783 134.521 24.7962 134.521 23.6961V15.0921C134.521 14.5814 134.695 14.1591 135.045 13.8251C135.395 13.4715 135.837 13.2947 136.371 13.2947C136.905 13.2947 137.347 13.4715 137.696 13.8251C138.045 14.1591 138.221 14.5814 138.221 15.0921V22.6353C138.221 23.9122 138.508 24.8158 139.084 25.3461C139.679 25.8569 140.502 26.1123 141.55 26.1123C142.269 26.1123 142.875 25.9845 143.368 25.7293C143.861 25.4542 144.241 25.0614 144.509 24.5506C144.775 24.0202 144.91 23.3818 144.91 22.6353V15.0921C144.91 14.5814 145.084 14.1591 145.434 13.8251C145.783 13.4715 146.224 13.2947 146.758 13.2947Z" fill="#477DB3"/>
</g>
<defs>
<clipPath id="clip0_439_2685">
<rect width="152" height="38" fill="white" transform="translate(0.742676)"/>
</clipPath>
</defs>
</svg>
