<svg width="92" height="39" viewBox="0 0 92 39" fill="none" xmlns="http://www.w3.org/2000/svg">
<g clip-path="url(#clip0_438_2524)">
<path d="M16.3857 28.4336V25.8748C15.8686 26.708 15.0284 27.422 13.8651 27.9577C12.7017 28.4932 11.3445 28.7907 9.79334 28.7907C8.37147 28.7907 7.07886 28.5527 5.91551 28.1361C4.75217 27.7196 3.71808 27.065 2.87788 26.2319C2.10231 25.4583 1.45601 24.4465 0.938963 23.2563C0.486549 22.0662 0.228027 20.7571 0.228027 19.2692C0.228027 17.8411 0.486549 16.4723 0.938963 15.3416C1.39138 14.1515 2.10231 13.1398 2.9425 12.3067C3.7827 11.4736 4.81679 10.8785 5.98014 10.4024C7.1435 9.98584 8.43611 9.74781 9.85797 9.74781C11.3445 9.74781 12.6371 9.98584 13.7358 10.4619C14.8345 10.938 15.6102 11.5331 16.1917 12.2472V0.642899H20.522V28.4336H16.3857ZM10.5043 13.1994C9.66408 13.1994 8.88851 13.3183 8.17758 13.616C7.46664 13.854 6.82034 14.2705 6.3033 14.8061C5.78625 15.3416 5.39847 15.9963 5.07531 16.7104C4.75217 17.484 4.62291 18.3172 4.62291 19.3288C4.62291 20.281 4.75217 21.1736 5.07531 21.9472C5.39847 22.6613 5.78625 23.2563 6.3033 23.792C6.82034 24.3276 7.46664 24.6846 8.17758 24.9822C8.88851 25.2201 9.66408 25.3987 10.5043 25.3987C12.12 25.3987 13.4773 24.9226 14.576 23.9706C15.6102 23.0184 16.1917 21.6496 16.1917 19.8049V18.8527C16.1917 17.0675 15.6747 15.6392 14.576 14.6871C13.5419 13.6754 12.1847 13.1994 10.5043 13.1994Z" fill="#3F7CDB"/>
<path d="M51.1575 30.7546C51.1575 32.9565 50.5113 34.6823 49.154 35.9319C47.7968 37.1816 45.9871 37.7768 43.725 37.7768C43.3372 37.7768 43.0788 37.7768 42.8202 37.7768C42.5617 37.7768 42.3032 37.7172 41.98 37.6577V34.1467C42.3032 34.2062 42.7557 34.2657 43.2081 34.2657C44.3067 34.2657 45.1469 33.9681 45.7933 33.3731C46.4395 32.7779 46.7626 31.9448 46.7626 30.8141V10.105H51.0929V30.7546H51.1575ZM51.1575 6.23688H46.8273V2.19025H51.1575V6.23688Z" fill="#3F7CDB"/>
<path d="M62.4672 9.7475C65.0524 9.7475 67.0559 10.3426 68.4131 11.5923C69.7704 12.842 70.4813 14.6273 70.4813 17.0077V28.4334H66.0864V26.8266C65.3755 27.4217 64.6 27.9573 63.6951 28.3143C62.7903 28.6714 61.8208 28.85 60.6575 28.85C58.6538 28.85 57.0381 28.3739 55.8102 27.4812C54.5822 26.5291 54.0005 25.2199 54.0005 23.4941C54.0005 22.542 54.1944 21.7089 54.5822 20.9948C54.97 20.3401 55.487 19.7451 56.1333 19.3285C56.7797 18.9119 57.5552 18.5549 58.46 18.3168C59.3649 18.0788 60.3344 17.9598 61.3037 17.9002L66.0219 17.6622V17.1266C66.0219 15.9364 65.7633 14.9844 65.1815 14.3297C64.6 13.6751 63.6951 13.3181 62.4672 13.3181C61.2392 13.3181 60.3344 13.6156 59.7526 14.2701C59.1709 14.8653 58.9124 15.6389 58.9124 16.4721L54.5176 16.2339C54.5176 15.4009 54.7115 14.6273 55.0346 13.8536C55.4224 13.08 55.9395 12.3659 56.5857 11.7708C57.2321 11.1757 58.0723 10.6997 59.1063 10.2831C60.1404 9.98553 61.2392 9.7475 62.4672 9.7475ZM61.9501 20.9948C60.9159 21.0542 60.0758 21.2328 59.4295 21.5898C58.7832 21.9469 58.46 22.542 58.46 23.3752C58.46 24.1488 58.7185 24.6843 59.3002 24.9819C59.8819 25.2794 60.5928 25.4579 61.433 25.4579C62.8549 25.4579 63.9536 25.1604 64.8584 24.5058C65.6986 23.8511 66.151 22.8395 66.151 21.4114V20.7567L61.9501 20.9948Z" fill="#3F7CDB"/>
<path d="M77.9139 12.1877C78.3662 11.5331 79.0772 10.9975 79.9821 10.5214C80.8869 10.0454 82.0502 9.80731 83.4721 9.80731C84.6354 9.80731 85.6696 9.98584 86.5744 10.3429C87.5438 10.7 88.3194 11.176 89.0303 11.8306C89.7412 12.4852 90.2583 13.2588 90.6461 14.211C91.0338 15.1632 91.2278 16.2343 91.2278 17.4245V28.4932H86.8329V17.9601C86.8329 16.5914 86.4451 15.4607 85.6696 14.6871C84.8939 13.9135 83.7953 13.4969 82.5026 13.4969C81.0807 13.4969 79.9821 13.9135 79.1419 14.7466C78.3017 15.5798 77.8493 16.6509 77.8493 17.9601V28.4336H73.519V0.642899H77.8493V12.1877H77.9139Z" fill="#3F7CDB"/>
<path d="M42.6905 14.1515L39.2005 10.938C38.425 10.2239 37.3263 9.80733 36.2275 9.80733H30.734C29.6352 9.80733 28.5365 10.2239 27.761 10.938L24.2709 14.1515C23.4953 14.8657 23.043 15.8773 23.043 16.889V21.8877C23.043 22.8993 23.4953 23.911 24.2709 24.6251L28.4719 28.4932C28.7303 28.7313 28.8596 29.0288 28.8596 29.3858V30.9331C28.8596 31.8257 29.6352 32.5398 30.6047 32.5398H36.1629C37.1323 32.5398 37.9079 31.8257 37.9079 30.9331V29.4454C37.9079 29.1479 38.0372 28.7908 38.2957 28.5527L42.6259 24.6251C43.4016 23.911 43.854 22.8993 43.854 21.8877V16.889C43.9832 15.8773 43.5307 14.9251 42.6905 14.1515ZM39.5237 21.2332C39.5237 21.7687 39.3298 22.2448 38.942 22.6613L37.2617 24.3276C36.6799 24.8632 36.5506 25.6962 36.8739 26.4104L37.8432 28.6122H29.2474L30.2169 26.4104C30.54 25.6962 30.3462 24.9226 29.8291 24.3276L28.1487 22.6613C27.761 22.3043 27.567 21.7687 27.567 21.2332V17.6031C27.567 17.0675 27.761 16.5914 28.1487 16.2343L30.0229 14.2705C30.4754 13.854 31.0571 13.5564 31.7035 13.5564H35.3873C36.0337 13.5564 36.6153 13.7944 37.0677 14.2705L39.0067 16.2343C39.3944 16.5914 39.5883 17.127 39.5883 17.6626V21.2332H39.5237Z" fill="#3F7CDB"/>
</g>
<defs>
<clipPath id="clip0_438_2524">
<rect width="91" height="37.5175" fill="white" transform="translate(0.228027 0.642899)"/>
</clipPath>
</defs>
</svg>
