<svg width="146" height="36" viewBox="0 0 146 36" fill="none" xmlns="http://www.w3.org/2000/svg">
<g clip-path="url(#clip0_439_2759)">
<path d="M57.9964 2.24646H51.9053L41.5889 14.1454V2.24646H36.3354V27.3717H41.5889V19.9764L45.1803 15.9057L52.2864 27.3717H58.3008L48.9501 12.5206L57.9964 2.24646Z" fill="#0055FF"/>
<path d="M67.3218 23.9066C66.6118 23.9066 66.1041 23.7293 65.7993 23.3737C65.4949 23.0181 65.3425 22.3971 65.3425 21.5081V-0.000610352H60.127V22.0792C60.127 24.0585 60.552 25.4992 61.4027 26.4001C62.2524 27.3013 63.6044 27.7515 65.4568 27.7515C66.0909 27.7515 66.732 27.6814 67.3792 27.5422C68.0267 27.4022 68.5655 27.2063 68.9971 26.9519L69.454 23.5257C69.0219 23.6529 68.6671 23.7482 68.3879 23.8112C68.1087 23.8751 67.7535 23.9066 67.3218 23.9066Z" fill="#0055FF"/>
<path d="M83.7294 18.5769C83.7294 19.4654 83.6153 20.2328 83.387 20.88C83.1585 21.527 82.8472 22.0539 82.4543 22.4599C82.0606 22.8659 81.6101 23.1638 81.1028 23.3542C80.5948 23.5451 80.0751 23.6401 79.5419 23.6401C78.3998 23.6401 77.5242 23.3542 76.9149 22.7834C76.3062 22.2123 76.0017 21.1911 76.0017 19.719V8.3363H70.7861V20.9752C70.7861 22.5741 71.0844 23.875 71.6808 24.8772C72.2769 25.8803 73.0827 26.6094 74.098 27.0659C75.1129 27.523 76.255 27.7515 77.5242 27.7515C79.072 27.7515 80.3982 27.4527 81.5026 26.8569C82.6067 26.2608 83.4758 25.3281 84.1102 24.0585L84.3002 27.3707H88.9449V8.3363H83.7294V18.5769Z" fill="#0055FF"/>
<path d="M119.333 8.71818C118.305 8.21091 117.169 7.95691 115.926 7.95691C115.063 7.95691 114.213 8.09653 113.375 8.37539C112.538 8.6553 111.776 9.07376 111.091 9.63184C110.406 10.1903 109.86 10.8879 109.454 11.7256C108.896 10.4826 108.065 9.54303 106.96 8.90858C105.857 8.27448 104.619 7.95691 103.249 7.95691C101.904 7.95691 100.68 8.27448 99.5752 8.90858C98.4714 9.54303 97.6017 10.495 96.9676 11.7636L96.7775 8.33738H92.0952V27.3718H97.3107V17.2835C97.3107 16.0406 97.5197 15.0374 97.9386 14.2761C98.3574 13.5149 98.8903 12.9568 99.5375 12.6012C100.184 12.246 100.838 12.068 101.498 12.068C102.462 12.068 103.255 12.3603 103.877 12.9436C104.499 13.528 104.81 14.5177 104.81 15.9131V27.3718H110.025V17.1315C110.025 16.015 110.209 15.0823 110.577 14.3332C110.945 13.5851 111.453 13.02 112.1 12.6393C112.747 12.2585 113.451 12.068 114.213 12.068C115.177 12.068 115.964 12.3603 116.573 12.9436C117.182 13.528 117.486 14.5177 117.486 15.9131V27.3718H122.664L122.702 14.8853C122.727 13.312 122.429 12.0176 121.807 11.0023C121.186 9.98743 120.361 9.22615 119.333 8.71818Z" fill="#0055FF"/>
<path d="M138.367 22.2512C137.568 23.2539 136.469 23.7547 135.075 23.7547C134.186 23.7547 133.405 23.5204 132.732 23.0505C132.06 22.5812 131.546 21.9025 131.191 21.0141C130.835 20.1256 130.659 19.0724 130.659 17.8543C130.659 16.6109 130.848 15.5511 131.229 14.6755C131.61 13.7998 132.137 13.1277 132.809 12.6577C133.482 12.1884 134.261 11.9535 135.15 11.9535C136.546 11.9535 137.63 12.4549 138.405 13.457C139.179 14.4602 139.566 15.9257 139.566 17.8543C139.566 19.7831 139.166 21.2487 138.367 22.2512ZM143.735 12.5057C143.037 11.0464 142.078 9.92335 140.861 9.13652C139.643 8.35003 138.259 7.95642 136.711 7.95642C135.518 7.95642 134.439 8.2035 133.475 8.69868C132.511 9.19352 131.717 9.87256 131.096 10.7354C130.797 11.1511 130.544 11.5979 130.337 12.0724L130.126 8.33689H125.443V35.3658H130.659V24.0564C131.088 24.9303 131.669 25.6981 132.428 26.3436C133.533 27.2825 134.921 27.7521 136.597 27.7521C138.17 27.7521 139.572 27.3588 140.803 26.5721C142.033 25.7855 143.005 24.6494 143.716 23.1645C144.427 21.6799 144.781 19.8972 144.781 17.8162C144.781 15.7353 144.432 13.965 143.735 12.5057Z" fill="#0055FF"/>
<path d="M21.7141 19.335L14.6968 17.6846C14.7261 17.546 14.7604 17.4098 14.7991 17.2717C15.3327 15.3645 16.5086 13.8095 18.0343 12.7787L21.7141 19.335Z" fill="#5278C4"/>
<path d="M30.434 21.7345C29.247 26.0001 24.7927 28.504 20.4632 27.3396C16.613 26.3022 14.1886 22.6701 14.5223 18.8084L22.7131 20.7356C22.7563 20.7445 22.7995 20.7494 22.8427 20.7494C23.0175 20.7494 23.1875 20.6676 23.2964 20.5248C23.4305 20.3427 23.4464 20.0998 23.3372 19.9048L19.0171 12.2086C20.7334 11.3665 22.7588 11.1235 24.7606 11.6661C29.1198 12.8465 31.6555 17.3439 30.434 21.7345Z" fill="#5278C4"/>
<path d="M12.9898 18.4499C11.9116 21.5848 8.58324 23.3852 5.36851 22.4839C2.07464 21.5623 0.0970053 18.1503 0.934985 14.8332C1.7861 11.453 5.24859 9.42768 8.64683 10.3248C9.36662 10.5152 10.0225 10.8127 10.6016 11.1963L6.39032 16.041C6.25866 16.1909 6.21755 16.3997 6.27663 16.5883C6.33814 16.7763 6.49467 16.9218 6.68784 16.9671L12.9898 18.4499Z" fill="#74D2E7"/>
<path d="M13.2674 17.3491L7.86426 16.0779L11.4854 11.9121C12.8994 13.2809 13.5988 15.2765 13.2674 17.3491Z" fill="#74D2E7"/>
<path d="M17.2529 11.3892C16.2515 11.8433 15.1076 11.9839 14.0043 11.6978C13.3982 11.5413 12.844 11.2641 12.3608 10.9009L15.1668 7.67273L17.2529 11.3892Z" fill="#68C985"/>
<path d="M20.0525 8.12224C19.7802 9.22112 19.1105 10.1541 18.2317 10.81L15.7617 6.41277C15.6711 6.25382 15.5097 6.14495 15.3263 6.12664C15.1401 6.10866 14.9604 6.18124 14.8402 6.31982L11.5393 10.1178C10.5203 8.90769 10.0728 7.2231 10.5085 5.6204C11.2169 3.00521 14.0025 1.43187 16.6017 2.17656C19.124 2.90085 20.6839 5.59102 20.0525 8.12224Z" fill="#68C985"/>
</g>
<defs>
<clipPath id="clip0_439_2759">
<rect width="145" height="35.3659" fill="white" transform="translate(0.742676)"/>
</clipPath>
</defs>
</svg>
