<svg width="127" height="45" viewBox="0 0 127 45" fill="none" xmlns="http://www.w3.org/2000/svg">
<g clip-path="url(#clip0_438_2589)">
<path d="M59.2905 12.8721H50.0996V34.2443H59.2905V12.8721Z" fill="#000064"/>
<path d="M83.8462 15.1207C82.8803 14.2133 81.6848 13.4896 80.3429 13.0003C79.001 12.5109 77.5451 12.2676 76.0768 12.2873C74.3074 12.2724 72.554 12.5635 70.9309 13.1416C69.3079 13.7198 67.8515 14.572 66.6568 15.6428C65.4659 16.7135 64.5278 17.9563 63.8903 19.3081C63.2001 20.761 62.8544 22.3087 62.8719 23.868C62.8478 25.3688 63.1673 26.8601 63.8139 28.2643C64.3923 29.5273 65.2848 30.6778 66.4347 31.6426C67.5845 32.6074 68.9665 33.3654 70.4927 33.8684C72.1214 34.4057 73.8632 34.6742 75.6186 34.6585C76.4015 34.6626 77.1835 34.6137 77.9566 34.5123C78.6547 34.418 79.3368 34.2568 79.9891 34.032C80.6576 33.8012 81.2959 33.5154 81.8943 33.1792C82.59 32.7875 83.2444 32.3485 83.8504 31.8669V33.9101C83.8504 35.4904 83.3342 36.7261 82.3016 37.6172C81.2691 38.5083 79.7882 38.9527 77.859 38.9504C75.5959 38.9504 74.1405 38.2414 73.4927 36.8236H63.1265C63.3934 37.9801 63.9465 39.0795 64.7516 40.0538C65.5943 41.0621 66.6523 41.9371 67.8746 42.6365C69.2324 43.4103 70.7342 43.998 72.3216 44.377C75.7856 45.1672 79.44 45.2091 82.9296 44.4988C84.3781 44.1976 85.7699 43.7362 87.0668 43.1273C88.226 42.5809 89.2728 41.8878 90.1686 41.0737C90.9988 40.3283 91.6457 39.4584 92.0738 38.5118C92.4057 37.6987 92.6444 36.862 92.7867 36.0126C92.9642 34.9491 93.0493 33.8766 93.0413 32.8032V12.879H83.8462V15.1207ZM83.8207 25.3891C83.5136 25.9682 83.0825 26.4976 82.5477 26.952C82.0152 27.4022 81.3753 27.7577 80.668 27.9962C79.9372 28.2475 79.1521 28.3753 78.3597 28.3722C77.5491 28.3781 76.7453 28.2502 75.9962 27.9962C75.2895 27.7568 74.6498 27.4015 74.1164 26.952C73.587 26.4991 73.1654 25.969 72.8732 25.3891C72.5635 24.7758 72.4077 24.1176 72.4149 23.4538C72.4102 22.8083 72.5752 22.1695 72.8986 21.5811C73.2033 21.0132 73.635 20.4972 74.1716 20.06C74.7212 19.6267 75.3569 19.2735 76.0514 19.0157C76.77 18.7499 77.5502 18.6145 78.3385 18.6189C79.1141 18.6185 79.8818 18.7464 80.5959 18.9948C81.3075 19.2382 81.9546 19.5929 82.5011 20.0391C83.0358 20.4856 83.4671 21.0081 83.774 21.5811C84.0961 22.1848 84.2623 22.8366 84.2623 23.4955C84.2623 24.1545 84.0961 24.8063 83.774 25.41L83.8207 25.3891Z" fill="#000064"/>
<path d="M125.837 18.9322C125.073 17.5484 123.956 16.3151 122.561 15.3156C121.099 14.274 119.411 13.4686 117.584 12.9417C115.588 12.3588 113.482 12.069 111.363 12.0854C109.226 12.0669 107.101 12.364 105.092 12.9626C103.274 13.497 101.594 14.307 100.14 15.3504C98.7674 16.3479 97.6608 17.5673 96.8898 18.9322C96.1088 20.3234 95.7104 21.8386 95.7229 23.3702C95.6967 25.0096 96.0944 26.6349 96.8898 28.1389C97.6418 29.5377 98.74 30.7929 100.115 31.8251C101.537 32.879 103.204 33.6864 105.016 34.199C107.006 34.769 109.102 35.0517 111.211 35.0344C113.361 35.0506 115.498 34.7681 117.533 34.199C119.374 33.6957 121.073 32.8957 122.532 31.846C123.917 30.8369 125.033 29.6031 125.807 28.2225C126.618 26.7647 127.025 25.1778 127 23.5756C127.026 21.977 126.63 20.3928 125.837 18.9322ZM116.824 25.4309C116.516 26.0093 116.085 26.5384 115.552 26.9938C115.018 27.4432 114.379 27.7986 113.672 28.038C112.192 28.5391 110.531 28.5391 109.051 28.038C108.344 27.7994 107.704 27.444 107.171 26.9938C106.636 26.5393 106.205 26.01 105.898 25.4309C105.569 24.8072 105.404 24.1334 105.414 23.4538C105.41 22.8083 105.575 22.1695 105.898 21.5811C106.21 21.0102 106.641 20.4883 107.171 20.0391C107.705 19.59 108.344 19.2347 109.051 18.9948C110.531 18.4937 112.192 18.4937 113.672 18.9948C114.378 19.2356 115.017 19.5907 115.552 20.0391C116.084 20.495 116.515 21.024 116.824 21.602C117.147 22.1993 117.312 22.8458 117.308 23.499C117.315 24.1649 117.15 24.8244 116.824 25.4343V25.4309Z" fill="#000064"/>
<path d="M31.9261 11.9287C28.8149 11.8928 25.783 12.7346 23.3378 14.3131C23.1556 14.4288 22.9317 14.4916 22.7013 14.4916C22.4709 14.4916 22.247 14.4288 22.0648 14.3131C19.6151 12.7315 16.5766 11.8896 13.4595 11.9287C5.94053 12.0192 0 17.1917 0 23.3458V34.2408H9.19085V23.2275C9.18039 22.3072 9.58562 21.4164 10.3284 20.7268C11.0712 20.0371 12.0989 19.5974 13.2134 19.4925C14.3881 19.3994 15.5598 19.6923 16.4715 20.307C17.3832 20.9217 17.9603 21.8081 18.0762 22.7715C18.0762 22.8875 18.0762 23.0035 18.0762 23.1196V34.2408H27.2882V23.2275C27.2766 22.3081 27.6803 21.4177 28.4215 20.7281C29.1627 20.0384 30.189 19.5983 31.3023 19.4925C32.4772 19.3994 33.649 19.6929 34.5602 20.3085C35.4713 20.924 36.047 21.8112 36.1608 22.775C36.1608 22.891 36.1608 23.007 36.1608 23.123V34.2408H45.3517V23.3458C45.3687 17.1917 39.4281 12.0192 31.9261 11.9287Z" fill="#0000FF"/>
<path d="M10.027 0.0487318L17.6648 3.6653C17.7301 3.69566 17.7844 3.73968 17.8222 3.79289C17.86 3.84609 17.8799 3.90656 17.8799 3.96813C17.8799 4.02971 17.86 4.09018 17.8222 4.14338C17.7844 4.19658 17.7301 4.2406 17.6648 4.27096L10.027 7.88753C9.96225 7.91902 9.88847 7.93582 9.81321 7.93621C9.73796 7.93659 9.66393 7.92055 9.59872 7.88973C9.53351 7.85891 9.47947 7.81442 9.44213 7.76082C9.40479 7.70722 9.38551 7.64643 9.38625 7.5847V0.348082C9.38626 0.286644 9.4061 0.226304 9.44374 0.17319C9.48139 0.120077 9.5355 0.0760825 9.60058 0.045677C9.66566 0.0152714 9.73939 -0.000462225 9.81428 7.43123e-05C9.88917 0.00061085 9.96256 0.0173984 10.027 0.0487318Z" fill="#0000FF"/>
<path d="M28.2644 0.0487432L35.9022 3.66531C35.9675 3.69567 36.0219 3.7397 36.0597 3.7929C36.0974 3.8461 36.1174 3.90657 36.1174 3.96814C36.1174 4.02972 36.0974 4.09019 36.0597 4.14339C36.0219 4.19659 35.9675 4.24061 35.9022 4.27097L28.2644 7.88754C28.1998 7.91815 28.1265 7.93424 28.0518 7.93418C27.9772 7.93412 27.9039 7.91791 27.8394 7.8872C27.7748 7.85648 27.7213 7.81235 27.6841 7.75924C27.647 7.70613 27.6276 7.64593 27.6279 7.58471V0.348093C27.6276 0.286875 27.647 0.226675 27.6841 0.173567C27.7213 0.120459 27.7748 0.0763215 27.8394 0.0456069C27.9039 0.0148923 27.9772 -0.00131264 28.0518 -0.00137312C28.1265 -0.0014336 28.1998 0.0146525 28.2644 0.0452624V0.0487432Z" fill="#0000FF"/>
</g>
<defs>
<clipPath id="clip0_438_2589">
<rect width="127" height="45" fill="white"/>
</clipPath>
</defs>
</svg>
