<svg width="176" height="38" viewBox="0 0 176 38" fill="none" xmlns="http://www.w3.org/2000/svg">
<g clip-path="url(#clip0_439_2903)">
<path d="M76.5332 18.7302V30.8611H78.6507H80.7684V18.7302V6.59961H78.6507H76.5332V18.7302Z" fill="black"/>
<path d="M142.005 6.84708C136.154 8.18392 131.982 14.208 132.688 20.2486C133.049 23.2525 134.068 25.4145 136.123 27.5599C138.084 29.5899 139.793 30.5637 142.413 31.125C145.284 31.7357 148.86 30.9434 151.245 29.1775L151.683 28.8473L152.546 29.6561C154.13 31.092 153.942 31.0755 154.914 29.9531C156.467 28.1542 156.451 28.3192 155.259 27.1804L154.224 26.2068L154.899 24.9524C157.564 20.0342 156.797 14.2575 152.922 10.2305C151.213 8.43149 149.314 7.35872 146.993 6.84708C145.692 6.55 143.276 6.55 142.005 6.84708ZM146.632 11.0392C149.77 12.0624 152.137 15.4954 152.137 19.0107C152.137 20.0177 151.761 21.6019 151.306 22.5428L150.962 23.2358L149.408 21.8164L147.856 20.3971L147.166 21.2058C146.774 21.6681 146.256 22.2952 146.005 22.6417L145.55 23.2358L147.057 24.6057L148.545 25.9755L147.84 26.3551C146.884 26.8669 145.503 27.2299 144.53 27.2299C140.499 27.2299 136.923 23.269 136.923 18.8292C136.923 17.8555 137.284 16.3371 137.786 15.2643C138.256 14.2575 139.527 12.7061 140.484 12.0129C142.209 10.7751 144.64 10.3955 146.632 11.0392Z" fill="black"/>
<path d="M40.4565 8.99274V11.0558H44.0642H47.6721V20.9584V30.861H49.868H52.0639V20.9584V11.0558H55.6716H59.2793V8.99274V6.92969H49.868H40.4565V8.99274Z" fill="black"/>
<path d="M159.667 18.8952V30.861H167.588H175.51V28.8805V26.9001H169.706H163.903V16.9148V6.92969H161.785H159.667V18.8952Z" fill="black"/>
<path d="M122.336 10.3954V12.8711H121.081H119.826V14.6866V16.5022H121.081H122.32L122.367 22.1465L122.414 27.8075L122.838 28.6327C123.748 30.4482 125.112 31.2735 127.198 31.2735C128.406 31.2735 128.642 31.224 129.598 30.7289C130.194 30.4152 130.712 30.0688 130.759 29.9366C130.806 29.8046 130.681 29.3095 130.492 28.8308C130.289 28.3687 130.037 27.7416 129.928 27.4446L129.724 26.9328L129.128 27.2464C128.438 27.6261 127.81 27.6424 127.214 27.3289C126.399 26.8668 126.352 26.5698 126.289 21.3214L126.242 16.5022H128.202H130.179V14.6866V12.8711H128.218H126.257V10.3954V7.9198H124.297H122.336V10.3954Z" fill="black"/>
<path d="M65.4753 12.4914C64.5029 12.5739 63.0442 12.8545 62.1814 13.1516C61.507 13.3661 59.6403 14.1583 59.452 14.3069C59.3736 14.3564 60.7068 17.4921 60.8011 17.4921C60.8324 17.4921 61.1148 17.3601 61.4443 17.1787C63.954 15.8418 67.0284 15.8088 68.44 17.1292C68.8949 17.5583 69.4752 18.9777 69.4752 19.7038C69.4752 20.2815 69.4438 20.331 69.1301 20.232C66.8871 19.5717 64.2989 19.3902 62.7305 19.7863C60.8011 20.2815 59.1541 21.6019 58.3855 23.2523C58.009 24.0444 57.9463 24.3746 57.9463 25.5793C57.9463 26.7513 58.009 27.1309 58.3541 27.8899C59.1698 29.6724 60.7227 30.8277 62.8245 31.2074C64.895 31.587 66.9341 31.1084 68.597 29.8539L69.4752 29.1938V30.0189V30.8609H71.5145H73.5534V24.8201C73.5534 18.3999 73.4909 17.6408 72.7378 16.1059C72.2986 15.1981 70.9341 13.8118 70.0086 13.3166C68.8322 12.706 66.9655 12.3594 65.4753 12.4914ZM67.3577 22.7737C67.9695 22.8727 68.6909 23.0212 68.9733 23.1202C69.4752 23.2851 69.4752 23.3018 69.4752 24.3581C69.4752 25.5793 69.2555 26.1405 68.4714 26.8501C66.7145 28.484 63.3891 28.4182 62.3068 26.7346C61.6795 25.7775 61.8676 24.3746 62.7305 23.632C63.8285 22.691 65.1302 22.4435 67.3577 22.7737Z" fill="black"/>
<path d="M90.7293 12.5412C88.7999 12.7723 87.0588 13.647 85.7098 15.0829C84.5178 16.3373 83.8276 17.5915 83.4354 19.242C82.102 24.7379 85.0197 29.9204 90.1331 31.1252C92.8468 31.7523 96.5329 30.861 98.5093 29.0785L99.1525 28.501L97.929 27.2136L96.7212 25.9263L96.3134 26.2233C95.6702 26.702 94.3997 27.3291 93.5998 27.5602C92.6428 27.8242 90.7293 27.7087 90.0077 27.3291C88.7215 26.6856 87.6078 25.2167 87.2627 23.7146L87.1686 23.269H93.7724H100.376L100.313 22.642C100.266 22.3119 100.188 21.5196 100.141 20.9089C99.8896 17.7731 98.0858 14.5713 95.8897 13.3995C94.5095 12.6568 92.5174 12.3267 90.7293 12.5412ZM93.333 16.2547C94.6664 16.7499 95.5918 17.8556 96.078 19.5555L96.2821 20.2983H91.7487C89.2391 20.2983 87.2 20.2653 87.2 20.2323C87.2 19.9352 87.7489 18.6644 88.1254 18.1033C89.2391 16.3868 91.5136 15.5781 93.333 16.2547Z" fill="black"/>
<path d="M110.697 12.5577C109.551 12.7393 108.297 13.3499 107.371 14.2082L106.65 14.8848V13.8781V12.8713H104.532H102.415V21.8662V30.8611H104.532H106.634L106.681 24.9689C106.728 19.2089 106.744 19.0439 107.073 18.3673C107.732 17.0965 109.112 16.2877 110.649 16.2877C112.061 16.2712 113.096 16.9314 113.755 18.2351C114.085 18.8789 114.1 19.1099 114.147 24.8701L114.194 30.8611H116.218H118.257V24.5399C118.257 19.8195 118.194 18.0206 118.037 17.41C117.175 13.9441 114.226 12.0131 110.697 12.5577Z" fill="black"/>
<path d="M14.0544 0.243603C10.8074 0.920274 7.82716 2.53771 5.42723 4.93084C3.85867 6.49875 2.88615 7.85211 1.96072 9.7336C0.533313 12.6384 0 14.9819 0 18.2993C0 21.6168 0.533313 23.9603 1.96072 26.8652C2.88615 28.7466 3.85867 30.1 5.42723 31.6679C8.70556 34.9522 12.7211 36.6193 17.3327 36.6193C20.407 36.6193 22.7128 36.0581 25.254 34.7212C26.5245 34.0446 28.2342 32.8893 28.2342 32.6912C28.2342 32.6252 27.2773 31.5689 26.1167 30.3475L23.999 28.1194L23.0579 28.6641C21.3012 29.6873 20.0307 30.0505 17.9443 30.133C16.3601 30.199 15.8425 30.166 14.7289 29.8688C9.59964 28.5156 6.11741 23.8447 6.11741 18.2993C6.11741 11.6646 11.1055 6.41622 17.4111 6.41622C25.7089 6.41622 31.1204 15.3616 27.6853 23.3827L27.2459 24.4225L29.3478 26.6507C30.4929 27.8719 31.5125 28.8621 31.6066 28.8621C31.9517 28.8621 33.3633 26.0894 33.9752 24.1915C34.5711 22.3594 34.8222 20.577 34.8222 18.2993C34.8222 14.9819 34.2889 12.6384 32.8616 9.7336C31.936 7.85211 30.9636 6.49875 29.3948 4.93084C26.9637 2.4882 23.9835 0.887274 20.658 0.227097C19.1208 -0.0864844 15.5445 -0.0699815 14.0544 0.243603Z" fill="black"/>
<path d="M17.2859 26.3985C21.6252 26.3985 25.143 22.7051 25.143 18.149C25.143 13.5929 21.6252 9.89941 17.2859 9.89941C12.9465 9.89941 9.42871 13.5929 9.42871 18.149C9.42871 22.7051 12.9465 26.3985 17.2859 26.3985Z" fill="black"/>
</g>
<defs>
<clipPath id="clip0_439_2903">
<rect width="176" height="37.948" fill="white"/>
</clipPath>
</defs>
</svg>
