<svg width="24" height="24" viewBox="0 0 24 24" fill="none" xmlns="http://www.w3.org/2000/svg">
<path fill-rule="evenodd" clip-rule="evenodd" d="M7.25003 6.63099V5.46099C7.25017 5.04201 7.40062 4.63699 7.67404 4.31953C7.94746 4.00206 8.3257 3.79323 8.74003 3.73099L9.96003 3.54799C11.3125 3.34509 12.6876 3.34509 14.04 3.54799L15.26 3.73099C15.6744 3.79323 16.0526 4.00206 16.326 4.31953C16.5994 4.63699 16.7499 5.04201 16.75 5.46099V6.63099L18.464 6.76899C19.1017 6.8205 19.7037 7.08435 20.1738 7.51835C20.6439 7.95234 20.9549 8.53142 21.057 9.16299C21.5223 12.0356 21.5223 14.9644 21.057 17.837C20.9549 18.4686 20.6439 19.0476 20.1738 19.4816C19.7037 19.9156 19.1017 20.1795 18.464 20.231L16.592 20.381C13.5357 20.6277 10.4644 20.6277 7.40803 20.381L5.53603 20.231C4.89833 20.1795 4.29631 19.9156 3.82624 19.4816C3.35617 19.0476 3.0452 18.4686 2.94303 17.837C2.47781 14.9644 2.47781 12.0356 2.94303 9.16299C3.0454 8.5316 3.35647 7.95275 3.82652 7.51896C4.29657 7.08516 4.89847 6.82145 5.53603 6.76999L7.25003 6.63099ZM10.183 5.03099C11.3876 4.85031 12.6124 4.85031 13.817 5.03099L15.037 5.21399C15.0962 5.22284 15.1503 5.25264 15.1894 5.29797C15.2284 5.34329 15.25 5.40114 15.25 5.46099V6.52599C13.0851 6.40252 10.9149 6.40252 8.75003 6.52599V5.45999C8.75009 5.40014 8.77162 5.34229 8.8107 5.29697C8.84979 5.25164 8.90384 5.22184 8.96303 5.21299L10.183 5.03099ZM7.52903 8.11299C10.505 7.87299 13.495 7.87299 16.471 8.11299L18.343 8.26499C18.6464 8.28926 18.9328 8.41457 19.1565 8.62089C19.3803 8.8272 19.5283 9.10258 19.577 9.40299C19.639 9.78799 19.692 10.173 19.737 10.561C17.33 11.746 14.6829 12.3623 12 12.3623C9.31712 12.3623 6.67006 11.746 4.26303 10.561C4.30703 10.174 4.36103 9.78799 4.42303 9.40299C4.47174 9.10258 4.61979 8.8272 4.84351 8.62089C5.06722 8.41457 5.35367 8.28926 5.65703 8.26499L7.52903 8.11299ZM4.12903 12.157C6.60088 13.2808 9.28471 13.8622 12 13.8622C14.7153 13.8622 17.3992 13.2808 19.871 12.157C19.9666 13.9756 19.868 15.7992 19.577 17.597C19.5285 17.8976 19.3806 18.1732 19.1568 18.3797C18.9331 18.5862 18.6465 18.7117 18.343 18.736L16.471 18.886C13.495 19.126 10.505 19.126 7.52903 18.886L5.65703 18.736C5.35353 18.7117 5.06697 18.5862 4.84323 18.3797C4.6195 18.1732 4.47153 17.8976 4.42303 17.597C4.13203 15.797 4.03303 13.973 4.12903 12.157Z" fill="#045103"/>
</svg>
