<svg width="24" height="24" viewBox="0 0 24 24" fill="none" xmlns="http://www.w3.org/2000/svg">
<path d="M11.943 1.25H13.5C13.6989 1.25 13.8897 1.32902 14.0303 1.46967C14.171 1.61032 14.25 1.80109 14.25 2C14.25 2.19891 14.171 2.38968 14.0303 2.53033C13.8897 2.67098 13.6989 2.75 13.5 2.75H12C9.622 2.75 7.914 2.752 6.614 2.926C5.335 3.098 4.564 3.426 3.994 3.995C3.425 4.565 3.098 5.335 2.926 6.614C2.752 7.914 2.75 9.622 2.75 12C2.75 14.378 2.752 16.086 2.926 17.386C3.098 18.665 3.426 19.436 3.995 20.006C4.565 20.575 5.335 20.902 6.614 21.074C7.914 21.248 9.622 21.25 12 21.25C14.378 21.25 16.086 21.248 17.386 21.074C18.665 20.902 19.436 20.574 20.006 20.005C20.575 19.435 20.902 18.665 21.074 17.386C21.248 16.086 21.25 14.378 21.25 12V10.5C21.25 10.3011 21.329 10.1103 21.4697 9.96967C21.6103 9.82902 21.8011 9.75 22 9.75C22.1989 9.75 22.3897 9.82902 22.5303 9.96967C22.671 10.1103 22.75 10.3011 22.75 10.5V12.057C22.75 14.366 22.75 16.175 22.56 17.587C22.366 19.031 21.96 20.171 21.066 21.066C20.171 21.961 19.031 22.366 17.586 22.56C16.175 22.75 14.366 22.75 12.057 22.75H11.943C9.634 22.75 7.825 22.75 6.413 22.56C4.969 22.366 3.829 21.96 2.934 21.066C2.039 20.171 1.634 19.031 1.44 17.586C1.25 16.175 1.25 14.366 1.25 12.057V11.943C1.25 9.634 1.25 7.825 1.44 6.413C1.634 4.969 2.04 3.829 2.934 2.934C3.829 2.039 4.969 1.634 6.414 1.44C7.825 1.25 9.634 1.25 11.943 1.25Z" fill="#045103"/>
<path d="M17.48 9.424C17.6327 9.55134 17.7286 9.73411 17.7466 9.93213C17.7646 10.1301 17.7032 10.3272 17.576 10.48L15.747 12.675C15.419 13.069 15.123 13.425 14.847 13.675C14.545 13.945 14.167 14.188 13.667 14.188C13.167 14.188 12.788 13.946 12.487 13.674C12.211 13.424 11.915 13.069 11.586 12.674L11.294 12.324C10.923 11.879 10.695 11.608 10.507 11.439C10.4583 11.3913 10.4035 11.3502 10.344 11.317L10.337 11.314L10.333 11.312L10.323 11.317C10.2631 11.3501 10.208 11.3912 10.159 11.439C9.972 11.609 9.744 11.879 9.373 12.324L7.576 14.48C7.44708 14.6274 7.26565 14.7185 7.07046 14.7339C6.87527 14.7492 6.6818 14.6877 6.53138 14.5623C6.38097 14.437 6.28554 14.2578 6.26547 14.063C6.24541 13.8683 6.3023 13.6734 6.424 13.52L8.253 11.325C8.581 10.931 8.877 10.575 9.153 10.325C9.455 10.055 9.833 9.812 10.333 9.812C10.833 9.812 11.212 10.054 11.513 10.326C11.789 10.576 12.085 10.931 12.414 11.326L12.706 11.676C13.077 12.121 13.305 12.392 13.493 12.561C13.579 12.639 13.631 12.671 13.656 12.683L13.666 12.688L13.671 12.686L13.678 12.683C13.7375 12.6498 13.7924 12.6088 13.841 12.561C14.028 12.391 14.256 12.121 14.627 11.676L16.424 9.52C16.5513 9.36729 16.7341 9.27139 16.9321 9.25339C17.1301 9.23539 17.3272 9.29675 17.48 9.424Z" fill="#045103"/>
<path fill-rule="evenodd" clip-rule="evenodd" d="M19 1.25C18.0054 1.25 17.0516 1.64509 16.3483 2.34835C15.6451 3.05161 15.25 4.00544 15.25 5C15.25 5.99456 15.6451 6.94839 16.3483 7.65165C17.0516 8.35491 18.0054 8.75 19 8.75C19.9946 8.75 20.9484 8.35491 21.6517 7.65165C22.3549 6.94839 22.75 5.99456 22.75 5C22.75 4.00544 22.3549 3.05161 21.6517 2.34835C20.9484 1.64509 19.9946 1.25 19 1.25ZM16.75 5C16.75 4.40326 16.9871 3.83097 17.409 3.40901C17.831 2.98705 18.4033 2.75 19 2.75C19.5967 2.75 20.169 2.98705 20.591 3.40901C21.0129 3.83097 21.25 4.40326 21.25 5C21.25 5.59674 21.0129 6.16903 20.591 6.59099C20.169 7.01295 19.5967 7.25 19 7.25C18.4033 7.25 17.831 7.01295 17.409 6.59099C16.9871 6.16903 16.75 5.59674 16.75 5Z" fill="#045103"/>
</svg>
